<svg width="10" height="13" viewBox="0 0 10 13" fill="none" xmlns="http://www.w3.org/2000/svg">
<path d="M6.39044 5.20683C6.84235 5.20683 7.20872 5.59544 7.20872 6.07479C7.20872 6.55402 6.84235 6.94263 6.39044 6.94263C5.93864 6.94263 5.57227 6.55402 5.57227 6.07479C5.57227 5.59544 5.93864 5.20683 6.39044 5.20683Z" fill="#1E1E1E"/>
<path d="M4.75354 8.67843C4.75354 9.15765 4.38717 9.54626 3.93536 9.54626C3.48396 9.54626 3.11719 9.15765 3.11719 8.67843C3.11719 8.19908 3.48396 7.81036 3.93536 7.81036C4.38717 7.81047 4.75354 8.19908 4.75354 8.67843Z" fill="#1E1E1E"/>
<path d="M4.75354 3.47163C4.75354 3.95086 4.38717 4.33936 3.93536 4.33936C3.48396 4.33936 3.11719 3.95086 3.11719 3.47163C3.11719 2.99229 3.48396 2.60356 3.93536 2.60356C4.38717 2.60378 4.75354 2.99229 4.75354 3.47163Z" fill="#1E1E1E"/>
<path d="M2.29922 11.2817C2.29922 11.761 1.93306 12.1495 1.48115 12.1495C1.02975 12.1495 0.663086 11.761 0.663086 11.2817C0.663086 10.8025 1.02978 10.4139 1.48115 10.4139C1.93306 10.414 2.29922 10.8025 2.29922 11.2817Z" fill="#1E1E1E"/>
<path d="M2.29954 0.867878C2.29954 1.34711 1.93317 1.73572 1.48115 1.73572C1.02975 1.73572 0.663086 1.34711 0.663086 0.867878C0.663191 0.388735 1.02997 3.81307e-05 1.48137 3.81108e-05C1.93328 3.80908e-05 2.29954 0.388763 2.29954 0.867878Z" fill="#1E1E1E"/>
<path d="M8.84454 5.20683C9.29645 5.20683 9.66272 5.59544 9.66272 6.07479C9.66272 6.55402 9.29645 6.94263 8.84454 6.94263C8.39263 6.94263 8.02637 6.55402 8.02637 6.07479C8.02637 5.59544 8.39263 5.20683 8.84454 5.20683Z" fill="#1E1E1E"/>
<path d="M7.20861 8.6783C7.20861 9.15753 6.84235 9.54614 6.39044 9.54614C5.93915 9.54614 5.57227 9.15753 5.57227 8.6783C5.57227 8.19896 5.93915 7.81024 6.39044 7.81024C6.84224 7.81035 7.20861 8.19896 7.20861 8.6783Z" fill="#1E1E1E"/>
<path d="M7.20861 3.47163C7.20861 3.95086 6.84235 4.33936 6.39044 4.33936C5.93915 4.33936 5.57227 3.95086 5.57227 3.47163C5.57227 2.99229 5.93915 2.60379 6.39044 2.60379C6.84224 2.60379 7.20861 2.99229 7.20861 3.47163Z" fill="#1E1E1E"/>
<path d="M4.75354 11.2817C4.75354 11.761 4.38717 12.1495 3.93536 12.1495C3.48396 12.1495 3.11719 11.761 3.11719 11.2817C3.11719 10.8025 3.48396 10.4139 3.93536 10.4139C4.38717 10.414 4.75354 10.8025 4.75354 11.2817Z" fill="#1E1E1E"/>
<path d="M4.75451 0.867879C4.75451 1.34711 4.38814 1.73572 3.93634 1.73572C3.48494 1.73572 3.11816 1.34711 3.11816 0.867879C3.11806 0.388736 3.48486 4.00381e-05 3.93634 4.00181e-05C4.38814 3.99981e-05 4.75451 0.388765 4.75451 0.867879Z" fill="#1E1E1E"/>
</svg>
