<svg width="35" height="32" viewBox="0 0 35 32" fill="none" xmlns="http://www.w3.org/2000/svg">
<path d="M31.7964 18.2222C31.4887 18.2222 31.2388 17.9786 31.2388 17.678C31.2388 17.3773 31.4884 17.1338 31.7964 17.1338H35C34.8611 12.8327 33.0872 8.92839 30.2635 5.99358L28.0034 8.19907C27.8943 8.30553 27.7519 8.35839 27.609 8.35839C27.4661 8.35839 27.3237 8.30554 27.2146 8.19907C26.9968 7.98691 26.9968 7.64186 27.2146 7.42969L29.4747 5.2242C26.4673 2.46881 22.4659 0.738127 18.0577 0.602539V3.72871C18.0577 4.02934 17.8081 4.27291 17.5 4.27291C17.1923 4.27291 16.9423 4.02934 16.9423 3.72871V0.602539C12.5344 0.738108 8.53298 2.46871 5.52532 5.2242L7.78541 7.42969C8.00322 7.64186 8.00322 7.98691 7.78541 8.19907C7.67632 8.30553 7.53385 8.35839 7.391 8.35839C7.24815 8.35839 7.10569 8.30554 6.99659 8.19907L4.73649 5.99358C1.91248 8.92829 0.138945 12.8326 0 17.1338H3.20358C3.51126 17.1338 3.76125 17.3773 3.76125 17.678C3.76125 17.9786 3.51165 18.2222 3.20358 18.2222H0.00281305C0.175887 23.5637 2.87907 28.4967 7.34903 31.6025C9.57225 28.2688 13.4081 26.2211 17.5002 26.2211C21.5923 26.2211 25.428 28.2692 27.6513 31.6021C32.1208 28.4967 34.8241 23.5633 34.9975 18.2218H31.7963L31.7964 18.2222ZM25.1099 11.0484L22.8266 14.2623C21.6901 15.8623 20.7557 17.5944 19.8519 19.2687C19.2636 20.3582 18.1314 21.0234 16.8787 21.0234C16.8433 21.0234 16.8084 21.0231 16.7727 21.0219C14.9894 20.9687 13.5283 19.5039 13.5162 17.7575C13.5075 16.5251 14.1939 15.4011 15.3081 14.8251L15.314 14.8217L24.3791 10.2633C24.6059 10.1392 24.8896 10.1844 25.0647 10.372C25.2389 10.5601 25.2578 10.8404 25.1098 11.0483L25.1099 11.0484Z" fill="#86BE3F"/>
</svg>
