<svg width="176" height="169" viewBox="0 0 176 169" fill="none" xmlns="http://www.w3.org/2000/svg">
<path opacity="0.2" d="M4.24217 84.1907C4.24217 85.4144 3.26321 86.3118 2.12109 86.3118C0.897383 86.3118 0 85.3328 0 84.1907C0 82.967 0.978963 82.0696 2.12109 82.0696C3.26321 81.9881 4.24217 82.967 4.24217 84.1907Z" fill="#A5ABBD"/>
<path opacity="0.2" d="M11.3398 84.1908C11.3398 85.4146 10.3609 86.3119 9.21874 86.3119C8.07662 86.3119 7.09766 85.333 7.09766 84.1908C7.09766 82.9671 8.07662 82.0698 9.21874 82.0698C10.3609 82.0698 11.3398 82.9671 11.3398 84.1908Z" fill="#A5ABBD"/>
<path opacity="0.2" d="M18.4375 84.1907C18.4375 85.4144 17.4585 86.3117 16.3164 86.3117C15.0927 86.3117 14.1953 85.3328 14.1953 84.1907C14.1953 82.967 15.1743 82.0696 16.3164 82.0696C17.4585 81.988 18.4375 82.967 18.4375 84.1907Z" fill="#A5ABBD"/>
<path opacity="0.2" d="M25.5351 84.1907C25.5351 85.4144 24.5562 86.3118 23.4141 86.3118C22.1903 86.3118 21.293 85.3328 21.293 84.1907C21.293 82.967 22.2719 82.0696 23.4141 82.0696C24.6378 81.9881 25.5351 82.967 25.5351 84.1907Z" fill="#A5ABBD"/>
<path opacity="0.2" d="M32.7139 84.1907C32.7139 85.4144 31.7349 86.3117 30.5928 86.3117C29.3691 86.3117 28.4717 85.3328 28.4717 84.1907C28.4717 82.967 29.4506 82.0696 30.5928 82.0696C31.7349 81.988 32.7139 82.967 32.7139 84.1907Z" fill="#A5ABBD"/>
<path opacity="0.2" d="M39.8105 84.1908C39.8105 85.4145 38.8316 86.3119 37.6894 86.3119C36.5473 86.3119 35.5684 85.3329 35.5684 84.1908C35.5684 82.9671 36.5473 82.0697 37.6894 82.0697C38.8316 82.0697 39.8105 82.9671 39.8105 84.1908Z" fill="#A5ABBD"/>
<path opacity="0.2" d="M46.9092 84.1907C46.9092 85.4144 45.9302 86.3117 44.7881 86.3117C43.5644 86.3117 42.667 85.3328 42.667 84.1907C42.667 82.967 43.646 82.0696 44.7881 82.0696C45.9302 81.988 46.9092 82.967 46.9092 84.1907Z" fill="#A5ABBD"/>
<path opacity="0.2" d="M54.0058 84.1907C54.0058 85.4144 53.0269 86.3117 51.8848 86.3117C50.6611 86.3117 49.7637 85.3328 49.7637 84.1907C49.7637 82.967 50.7426 82.0696 51.8848 82.0696C53.1085 81.988 54.0058 82.967 54.0058 84.1907Z" fill="#A5ABBD"/>
<path opacity="0.2" d="M61.1855 84.1908C61.1855 85.4146 60.2066 86.3119 59.0644 86.3119C57.9223 86.3119 56.9434 85.333 56.9434 84.1908C56.9434 82.9671 57.9223 82.0698 59.0644 82.0698C60.2066 82.0698 61.1855 82.9671 61.1855 84.1908Z" fill="#A5ABBD"/>
<path opacity="0.2" d="M68.2832 84.1908C68.2832 85.4145 67.3042 86.3119 66.1621 86.3119C65.02 86.3119 64.041 85.3329 64.041 84.1908C64.041 82.9671 65.02 82.0697 66.1621 82.0697C67.3042 82.0697 68.2832 82.9671 68.2832 84.1908Z" fill="#A5ABBD"/>
<path opacity="0.2" d="M75.3799 84.1908C75.3799 85.4145 74.4009 86.3119 73.2588 86.3119C72.1167 86.3119 71.1377 85.3329 71.1377 84.1908C71.1377 82.9671 72.1167 82.0697 73.2588 82.0697C74.4009 82.0697 75.3799 82.9671 75.3799 84.1908Z" fill="#A5ABBD"/>
<path opacity="0.2" d="M82.4775 84.1907C82.4775 85.4144 81.4986 86.3117 80.3564 86.3117C79.1327 86.3117 78.2354 85.3328 78.2354 84.1907C78.2354 82.967 79.2143 82.0696 80.3564 82.0696C81.5801 81.988 82.4775 82.967 82.4775 84.1907Z" fill="#A5ABBD"/>
<path opacity="0.2" d="M89.6562 84.1907C89.6562 85.4144 88.6773 86.3117 87.5351 86.3117C86.3114 86.3117 85.4141 85.3328 85.4141 84.1907C85.4141 82.967 86.393 82.0696 87.5351 82.0696C88.6773 81.988 89.6562 82.967 89.6562 84.1907Z" fill="#A5ABBD"/>
<path opacity="0.2" d="M96.7539 84.1907C96.7539 85.4144 95.7749 86.3118 94.6328 86.3118C93.4091 86.3118 92.5117 85.3328 92.5117 84.1907C92.5117 82.967 93.4907 82.0696 94.6328 82.0696C95.7749 81.9881 96.7539 82.967 96.7539 84.1907Z" fill="#A5ABBD"/>
<path opacity="0.2" d="M103.852 84.1908C103.852 85.4145 102.873 86.3119 101.73 86.3119C100.588 86.3119 99.6094 85.3329 99.6094 84.1908C99.6094 82.9671 100.588 82.0697 101.73 82.0697C102.873 82.0697 103.852 82.9671 103.852 84.1908Z" fill="#A5ABBD"/>
<path opacity="0.2" d="M110.949 84.1907C110.949 85.4144 109.97 86.3117 108.828 86.3117C107.604 86.3117 106.707 85.3328 106.707 84.1907C106.707 82.967 107.686 82.0696 108.828 82.0696C110.052 81.988 110.949 82.967 110.949 84.1907Z" fill="#A5ABBD"/>
<path opacity="0.2" d="M118.129 84.1907C118.129 85.4144 117.15 86.3117 116.008 86.3117C114.784 86.3117 113.887 85.3328 113.887 84.1907C113.887 82.967 114.866 82.0696 116.008 82.0696C117.15 81.988 118.129 82.967 118.129 84.1907Z" fill="#A5ABBD"/>
<path opacity="0.2" d="M125.226 84.1907C125.226 85.4144 124.247 86.3117 123.104 86.3117C121.881 86.3117 120.983 85.3328 120.983 84.1907C120.983 82.967 121.962 82.0696 123.104 82.0696C124.247 81.988 125.226 82.967 125.226 84.1907Z" fill="#A5ABBD"/>
<path opacity="0.2" d="M132.323 84.1907C132.323 85.4144 131.344 86.3117 130.202 86.3117C128.978 86.3117 128.081 85.3328 128.081 84.1907C128.081 82.967 129.06 82.0696 130.202 82.0696C131.344 81.988 132.323 82.967 132.323 84.1907Z" fill="#A5ABBD"/>
<path opacity="0.2" d="M139.42 84.1907C139.42 85.4144 138.441 86.3117 137.299 86.3117C136.075 86.3117 135.178 85.3328 135.178 84.1907C135.178 82.967 136.157 82.0696 137.299 82.0696C138.523 81.988 139.42 82.967 139.42 84.1907Z" fill="#A5ABBD"/>
<path opacity="0.2" d="M146.6 84.1907C146.6 85.4144 145.621 86.3118 144.479 86.3118C143.255 86.3118 142.357 85.3328 142.357 84.1907C142.357 82.967 143.336 82.0696 144.479 82.0696C145.621 81.9881 146.6 82.967 146.6 84.1907Z" fill="#A5ABBD"/>
<path opacity="0.2" d="M153.697 84.1907C153.697 85.4144 152.718 86.3117 151.576 86.3117C150.352 86.3117 149.455 85.3328 149.455 84.1907C149.455 82.967 150.434 82.0696 151.576 82.0696C152.718 81.988 153.697 82.967 153.697 84.1907Z" fill="#A5ABBD"/>
<path opacity="0.2" d="M160.795 84.1907C160.795 85.4144 159.816 86.3118 158.674 86.3118C157.45 86.3118 156.553 85.3328 156.553 84.1907C156.553 82.967 157.532 82.0696 158.674 82.0696C159.816 81.9881 160.795 82.967 160.795 84.1907Z" fill="#A5ABBD"/>
<path opacity="0.2" d="M167.893 84.1907C167.893 85.4144 166.914 86.3117 165.771 86.3117C164.548 86.3117 163.65 85.3328 163.65 84.1907C163.65 82.967 164.629 82.0696 165.771 82.0696C166.995 81.988 167.893 82.967 167.893 84.1907Z" fill="#A5ABBD"/>
<path opacity="0.2" d="M175.071 84.1907C175.071 85.4144 174.092 86.3117 172.95 86.3117C171.726 86.3117 170.829 85.3328 170.829 84.1907C170.829 82.967 171.808 82.0696 172.95 82.0696C174.092 81.988 175.071 82.967 175.071 84.1907Z" fill="#A5ABBD"/>
<path opacity="0.2" d="M11.5849 92.3491C11.5849 93.5728 10.606 94.4702 9.46386 94.4702C8.32174 94.4702 7.34277 93.4912 7.34277 92.3491C7.34277 91.207 8.32174 90.228 9.46386 90.228C10.606 90.228 11.5849 91.207 11.5849 92.3491Z" fill="#A5ABBD"/>
<path opacity="0.2" d="M18.6826 92.3492C18.6826 93.5729 17.7036 94.4703 16.5615 94.4703C15.3378 94.4703 14.4404 93.4914 14.4404 92.3492C14.4404 91.2071 15.4194 90.2281 16.5615 90.2281C17.7036 90.2281 18.6826 91.2071 18.6826 92.3492Z" fill="#A5ABBD"/>
<path opacity="0.2" d="M25.7803 92.3492C25.7803 93.5729 24.8013 94.4703 23.6592 94.4703C22.4355 94.4703 21.5381 93.4914 21.5381 92.3492C21.5381 91.2071 22.517 90.2281 23.6592 90.2281C24.8829 90.2281 25.7803 91.2071 25.7803 92.3492Z" fill="#A5ABBD"/>
<path opacity="0.2" d="M32.959 92.3492C32.959 93.5729 31.98 94.4703 30.8379 94.4703C29.6142 94.4703 28.7168 93.4914 28.7168 92.3492C28.7168 91.2071 29.6958 90.2281 30.8379 90.2281C31.98 90.2281 32.959 91.2071 32.959 92.3492Z" fill="#A5ABBD"/>
<path opacity="0.2" d="M40.0566 92.3491C40.0566 93.5728 39.0777 94.4702 37.9355 94.4702C36.7934 94.4702 35.8145 93.4912 35.8145 92.3491C35.8145 91.207 36.7934 90.228 37.9355 90.228C39.0777 90.228 40.0566 91.207 40.0566 92.3491Z" fill="#A5ABBD"/>
<path opacity="0.2" d="M47.1543 92.3492C47.1543 93.5729 46.1753 94.4703 45.0332 94.4703C43.8095 94.4703 42.9121 93.4914 42.9121 92.3492C42.9121 91.2071 43.8911 90.2281 45.0332 90.2281C46.1753 90.2281 47.1543 91.2071 47.1543 92.3492Z" fill="#A5ABBD"/>
<path opacity="0.2" d="M54.2519 92.3491C54.2519 93.5728 53.273 94.4702 52.1309 94.4702C50.9071 94.4702 50.0098 93.4912 50.0098 92.3491C50.0098 91.207 50.9887 90.228 52.1309 90.228C53.3546 90.228 54.2519 91.207 54.2519 92.3491Z" fill="#A5ABBD"/>
<path opacity="0.2" d="M61.4306 92.3492C61.4306 93.5729 60.4517 94.4703 59.3096 94.4703C58.1674 94.4703 57.1885 93.4914 57.1885 92.3492C57.1885 91.2071 58.1674 90.2281 59.3096 90.2281C60.4517 90.2281 61.4306 91.2071 61.4306 92.3492Z" fill="#A5ABBD"/>
<path opacity="0.2" d="M68.5273 92.3492C68.5273 93.5729 67.5484 94.4703 66.4062 94.4703C65.2641 94.4703 64.2852 93.4914 64.2852 92.3492C64.2852 91.2071 65.2641 90.2281 66.4062 90.2281C67.5484 90.2281 68.5273 91.2071 68.5273 92.3492Z" fill="#A5ABBD"/>
<path opacity="0.2" d="M75.626 92.3492C75.626 93.5729 74.647 94.4703 73.5049 94.4703C72.3628 94.4703 71.3838 93.4914 71.3838 92.3492C71.3838 91.2071 72.3628 90.2281 73.5049 90.2281C74.647 90.2281 75.626 91.2071 75.626 92.3492Z" fill="#A5ABBD"/>
<path opacity="0.2" d="M82.7226 92.3492C82.7226 93.5729 81.7437 94.4703 80.6016 94.4703C79.3778 94.4703 78.4805 93.4914 78.4805 92.3492C78.4805 91.2071 79.4594 90.2281 80.6016 90.2281C81.8253 90.2281 82.7226 91.2071 82.7226 92.3492Z" fill="#A5ABBD"/>
<path opacity="0.2" d="M89.9023 92.3491C89.9023 93.5728 88.9234 94.4702 87.7812 94.4702C86.5575 94.4702 85.6602 93.4912 85.6602 92.3491C85.6602 91.207 86.6391 90.228 87.7812 90.228C88.9234 90.228 89.9023 91.207 89.9023 92.3491Z" fill="#A5ABBD"/>
<path opacity="0.2" d="M97 92.3492C97 93.5729 96.021 94.4703 94.8789 94.4703C93.6552 94.4703 92.7578 93.4914 92.7578 92.3492C92.7578 91.2071 93.7368 90.2281 94.8789 90.2281C96.021 90.2281 97 91.2071 97 92.3492Z" fill="#A5ABBD"/>
<path opacity="0.2" d="M104.097 92.3492C104.097 93.5729 103.118 94.4703 101.976 94.4703C100.833 94.4703 99.8545 93.4914 99.8545 92.3492C99.8545 91.2071 100.833 90.2281 101.976 90.2281C103.118 90.2281 104.097 91.2071 104.097 92.3492Z" fill="#A5ABBD"/>
<path opacity="0.2" d="M111.195 92.3492C111.195 93.5729 110.216 94.4703 109.074 94.4703C107.851 94.4703 106.953 93.4914 106.953 92.3492C106.953 91.2071 107.932 90.2281 109.074 90.2281C110.298 90.2281 111.195 91.2071 111.195 92.3492Z" fill="#A5ABBD"/>
<path opacity="0.2" d="M118.373 92.3492C118.373 93.5729 117.394 94.4703 116.252 94.4703C115.028 94.4703 114.131 93.4914 114.131 92.3492C114.131 91.2071 115.11 90.2281 116.252 90.2281C117.394 90.2281 118.373 91.2071 118.373 92.3492Z" fill="#A5ABBD"/>
<path opacity="0.2" d="M125.471 92.3492C125.471 93.5729 124.492 94.4703 123.35 94.4703C122.126 94.4703 121.229 93.4914 121.229 92.3492C121.229 91.2071 122.207 90.2281 123.35 90.2281C124.492 90.2281 125.471 91.2071 125.471 92.3492Z" fill="#A5ABBD"/>
<path opacity="0.2" d="M132.568 92.3492C132.568 93.5729 131.589 94.4703 130.447 94.4703C129.224 94.4703 128.326 93.4914 128.326 92.3492C128.326 91.2071 129.305 90.2281 130.447 90.2281C131.589 90.2281 132.568 91.2071 132.568 92.3492Z" fill="#A5ABBD"/>
<path opacity="0.2" d="M139.666 92.3492C139.666 93.5729 138.687 94.4703 137.545 94.4703C136.321 94.4703 135.424 93.4914 135.424 92.3492C135.424 91.2071 136.403 90.2281 137.545 90.2281C138.769 90.2281 139.666 91.2071 139.666 92.3492Z" fill="#A5ABBD"/>
<path opacity="0.2" d="M146.846 92.3492C146.846 93.5729 145.867 94.4703 144.725 94.4703C143.501 94.4703 142.604 93.4914 142.604 92.3492C142.604 91.2071 143.582 90.2281 144.725 90.2281C145.867 90.2281 146.846 91.2071 146.846 92.3492Z" fill="#A5ABBD"/>
<path opacity="0.2" d="M153.942 92.3492C153.942 93.5729 152.963 94.4703 151.821 94.4703C150.598 94.4703 149.7 93.4914 149.7 92.3492C149.7 91.2071 150.679 90.2281 151.821 90.2281C152.963 90.2281 153.942 91.2071 153.942 92.3492Z" fill="#A5ABBD"/>
<path opacity="0.2" d="M161.04 92.3492C161.04 93.5729 160.061 94.4703 158.919 94.4703C157.695 94.4703 156.798 93.4914 156.798 92.3492C156.798 91.2071 157.777 90.2281 158.919 90.2281C160.061 90.2281 161.04 91.2071 161.04 92.3492Z" fill="#A5ABBD"/>
<path opacity="0.2" d="M168.137 92.3492C168.137 93.5729 167.158 94.4703 166.016 94.4703C164.792 94.4703 163.895 93.4914 163.895 92.3492C163.895 91.2071 164.873 90.2281 166.016 90.2281C167.239 90.2281 168.137 91.2071 168.137 92.3492Z" fill="#A5ABBD"/>
<path opacity="0.2" d="M11.5849 100.589C11.5849 101.813 10.606 102.71 9.46386 102.71C8.32174 102.71 7.34277 101.731 7.34277 100.589C7.34277 99.3652 8.32174 98.4678 9.46386 98.4678C10.606 98.4678 11.5849 99.3652 11.5849 100.589Z" fill="#A5ABBD"/>
<path opacity="0.2" d="M18.6826 100.589C18.6826 101.813 17.7036 102.71 16.5615 102.71C15.3378 102.71 14.4404 101.731 14.4404 100.589C14.4404 99.3652 15.4194 98.4678 16.5615 98.4678C17.7036 98.3862 18.6826 99.3652 18.6826 100.589Z" fill="#A5ABBD"/>
<path opacity="0.2" d="M25.7803 100.589C25.7803 101.813 24.8013 102.71 23.6592 102.71C22.4355 102.71 21.5381 101.731 21.5381 100.589C21.5381 99.3652 22.517 98.4678 23.6592 98.4678C24.8829 98.3862 25.7803 99.3652 25.7803 100.589Z" fill="#A5ABBD"/>
<path opacity="0.2" d="M32.959 100.589C32.959 101.813 31.98 102.71 30.8379 102.71C29.6142 102.71 28.7168 101.731 28.7168 100.589C28.7168 99.3652 29.6958 98.4678 30.8379 98.4678C31.98 98.3862 32.959 99.3652 32.959 100.589Z" fill="#A5ABBD"/>
<path opacity="0.2" d="M40.0566 100.589C40.0566 101.813 39.0777 102.71 37.9355 102.71C36.7934 102.71 35.8145 101.731 35.8145 100.589C35.8145 99.3652 36.7934 98.4678 37.9355 98.4678C39.0777 98.4678 40.0566 99.3652 40.0566 100.589Z" fill="#A5ABBD"/>
<path opacity="0.2" d="M47.1543 100.589C47.1543 101.813 46.1753 102.71 45.0332 102.71C43.8095 102.71 42.9121 101.731 42.9121 100.589C42.9121 99.3652 43.8911 98.4678 45.0332 98.4678C46.1753 98.3862 47.1543 99.3652 47.1543 100.589Z" fill="#A5ABBD"/>
<path opacity="0.2" d="M54.2519 100.589C54.2519 101.812 53.273 102.71 52.1309 102.71C50.9071 102.71 50.0098 101.731 50.0098 100.589C50.0098 99.3651 50.9887 98.4677 52.1309 98.4677C53.3546 98.3861 54.2519 99.3651 54.2519 100.589Z" fill="#A5ABBD"/>
<path opacity="0.2" d="M61.4306 100.589C61.4306 101.813 60.4517 102.71 59.3096 102.71C58.1674 102.71 57.1885 101.731 57.1885 100.589C57.1885 99.3653 58.1674 98.4679 59.3096 98.4679C60.4517 98.4679 61.4306 99.3653 61.4306 100.589Z" fill="#A5ABBD"/>
<path opacity="0.2" d="M68.5273 100.589C68.5273 101.813 67.5484 102.71 66.4062 102.71C65.2641 102.71 64.2852 101.731 64.2852 100.589C64.2852 99.3653 65.2641 98.4679 66.4062 98.4679C67.5484 98.4679 68.5273 99.3653 68.5273 100.589Z" fill="#A5ABBD"/>
<path opacity="0.2" d="M75.626 100.589C75.626 101.813 74.647 102.71 73.5049 102.71C72.3628 102.71 71.3838 101.731 71.3838 100.589C71.3838 99.3653 72.3628 98.4679 73.5049 98.4679C74.647 98.4679 75.626 99.3653 75.626 100.589Z" fill="#A5ABBD"/>
<path opacity="0.2" d="M82.7226 100.589C82.7226 101.813 81.7437 102.71 80.6016 102.71C79.3778 102.71 78.4805 101.731 78.4805 100.589C78.4805 99.3652 79.4594 98.4678 80.6016 98.4678C81.8253 98.3862 82.7226 99.3652 82.7226 100.589Z" fill="#A5ABBD"/>
<path opacity="0.2" d="M89.9023 100.589C89.9023 101.812 88.9234 102.71 87.7812 102.71C86.5575 102.71 85.6602 101.731 85.6602 100.589C85.6602 99.3651 86.6391 98.4677 87.7812 98.4677C88.9234 98.3861 89.9023 99.3651 89.9023 100.589Z" fill="#A5ABBD"/>
<path opacity="0.2" d="M97 100.589C97 101.813 96.021 102.71 94.8789 102.71C93.6552 102.71 92.7578 101.731 92.7578 100.589C92.7578 99.3652 93.7368 98.4678 94.8789 98.4678C96.021 98.3862 97 99.3652 97 100.589Z" fill="#A5ABBD"/>
<path opacity="0.2" d="M104.097 100.589C104.097 101.813 103.118 102.71 101.976 102.71C100.833 102.71 99.8545 101.731 99.8545 100.589C99.8545 99.3653 100.833 98.4679 101.976 98.4679C103.118 98.4679 104.097 99.3653 104.097 100.589Z" fill="#A5ABBD"/>
<path opacity="0.2" d="M111.195 100.589C111.195 101.813 110.216 102.71 109.074 102.71C107.851 102.71 106.953 101.731 106.953 100.589C106.953 99.3652 107.932 98.4678 109.074 98.4678C110.298 98.3862 111.195 99.3652 111.195 100.589Z" fill="#A5ABBD"/>
<path opacity="0.2" d="M118.373 100.589C118.373 101.813 117.394 102.71 116.252 102.71C115.028 102.71 114.131 101.731 114.131 100.589C114.131 99.3652 115.11 98.4678 116.252 98.4678C117.394 98.3862 118.373 99.3652 118.373 100.589Z" fill="#A5ABBD"/>
<path opacity="0.2" d="M125.471 100.589C125.471 101.813 124.492 102.71 123.35 102.71C122.126 102.71 121.229 101.731 121.229 100.589C121.229 99.3652 122.207 98.4678 123.35 98.4678C124.492 98.3862 125.471 99.3652 125.471 100.589Z" fill="#A5ABBD"/>
<path opacity="0.2" d="M132.568 100.589C132.568 101.813 131.589 102.71 130.447 102.71C129.224 102.71 128.326 101.731 128.326 100.589C128.326 99.3652 129.305 98.4678 130.447 98.4678C131.589 98.3862 132.568 99.3652 132.568 100.589Z" fill="#A5ABBD"/>
<path opacity="0.2" d="M139.666 100.589C139.666 101.813 138.687 102.71 137.545 102.71C136.321 102.71 135.424 101.731 135.424 100.589C135.424 99.3652 136.403 98.4678 137.545 98.4678C138.769 98.3862 139.666 99.3652 139.666 100.589Z" fill="#A5ABBD"/>
<path opacity="0.2" d="M146.846 100.589C146.846 101.813 145.867 102.71 144.725 102.71C143.501 102.71 142.604 101.731 142.604 100.589C142.604 99.3652 143.582 98.4678 144.725 98.4678C145.867 98.3862 146.846 99.3652 146.846 100.589Z" fill="#A5ABBD"/>
<path opacity="0.2" d="M153.942 100.589C153.942 101.813 152.963 102.71 151.821 102.71C150.598 102.71 149.7 101.731 149.7 100.589C149.7 99.3652 150.679 98.4678 151.821 98.4678C152.963 98.3862 153.942 99.3652 153.942 100.589Z" fill="#A5ABBD"/>
<path opacity="0.2" d="M161.04 100.589C161.04 101.813 160.061 102.71 158.919 102.71C157.695 102.71 156.798 101.731 156.798 100.589C156.798 99.3652 157.777 98.4678 158.919 98.4678C160.061 98.3862 161.04 99.3652 161.04 100.589Z" fill="#A5ABBD"/>
<path opacity="0.2" d="M168.137 100.589C168.137 101.813 167.158 102.71 166.016 102.71C164.792 102.71 163.895 101.731 163.895 100.589C163.895 99.3652 164.873 98.4678 166.016 98.4678C167.239 98.3862 168.137 99.3652 168.137 100.589Z" fill="#A5ABBD"/>
<path opacity="0.2" d="M9.46386 110.868C10.6353 110.868 11.5849 109.919 11.5849 108.747C11.5849 107.576 10.6353 106.626 9.46386 106.626C8.29242 106.626 7.34277 107.576 7.34277 108.747C7.34277 109.919 8.29242 110.868 9.46386 110.868Z" fill="#A5ABBD"/>
<path opacity="0.2" d="M18.6826 108.747C18.6826 109.971 17.7036 110.868 16.5615 110.868C15.3378 110.868 14.4404 109.889 14.4404 108.747C14.4404 107.605 15.4194 106.626 16.5615 106.626C17.7036 106.626 18.6826 107.605 18.6826 108.747Z" fill="#A5ABBD"/>
<path opacity="0.2" d="M23.6592 110.868C24.8306 110.868 25.7803 109.919 25.7803 108.747C25.7803 107.576 24.8306 106.626 23.6592 106.626C22.4877 106.626 21.5381 107.576 21.5381 108.747C21.5381 109.919 22.4877 110.868 23.6592 110.868Z" fill="#A5ABBD"/>
<path opacity="0.2" d="M32.959 108.747C32.959 109.971 31.98 110.868 30.8379 110.868C29.6142 110.868 28.7168 109.889 28.7168 108.747C28.7168 107.605 29.6958 106.626 30.8379 106.626C31.98 106.626 32.959 107.605 32.959 108.747Z" fill="#A5ABBD"/>
<path opacity="0.2" d="M40.0566 108.747C40.0566 109.971 39.0777 110.868 37.9355 110.868C36.7934 110.868 35.8145 109.889 35.8145 108.747C35.8145 107.605 36.7934 106.626 37.9355 106.626C39.0777 106.626 40.0566 107.605 40.0566 108.747Z" fill="#A5ABBD"/>
<path opacity="0.2" d="M47.1543 108.747C47.1543 109.971 46.1753 110.868 45.0332 110.868C43.8095 110.868 42.9121 109.889 42.9121 108.747C42.9121 107.605 43.8911 106.626 45.0332 106.626C46.1753 106.626 47.1543 107.605 47.1543 108.747Z" fill="#A5ABBD"/>
<path opacity="0.2" d="M54.2519 108.747C54.2519 109.971 53.273 110.868 52.1309 110.868C50.9071 110.868 50.0098 109.889 50.0098 108.747C50.0098 107.605 50.9887 106.626 52.1309 106.626C53.3546 106.626 54.2519 107.605 54.2519 108.747Z" fill="#A5ABBD"/>
<path opacity="0.2" d="M61.4306 108.747C61.4306 109.971 60.4517 110.868 59.3096 110.868C58.1674 110.868 57.1885 109.889 57.1885 108.747C57.1885 107.605 58.1674 106.626 59.3096 106.626C60.4517 106.626 61.4306 107.605 61.4306 108.747Z" fill="#A5ABBD"/>
<path opacity="0.2" d="M68.5273 108.747C68.5273 109.971 67.5484 110.868 66.4062 110.868C65.2641 110.868 64.2852 109.889 64.2852 108.747C64.2852 107.605 65.2641 106.626 66.4062 106.626C67.5484 106.626 68.5273 107.605 68.5273 108.747Z" fill="#A5ABBD"/>
<path opacity="0.2" d="M75.626 108.747C75.626 109.971 74.647 110.868 73.5049 110.868C72.3628 110.868 71.3838 109.889 71.3838 108.747C71.3838 107.605 72.3628 106.626 73.5049 106.626C74.647 106.626 75.626 107.605 75.626 108.747Z" fill="#A5ABBD"/>
<path opacity="0.2" d="M82.7226 108.747C82.7226 109.971 81.7437 110.868 80.6016 110.868C79.3778 110.868 78.4805 109.889 78.4805 108.747C78.4805 107.605 79.4594 106.626 80.6016 106.626C81.8253 106.626 82.7226 107.605 82.7226 108.747Z" fill="#A5ABBD"/>
<path opacity="0.2" d="M89.9023 108.747C89.9023 109.971 88.9234 110.868 87.7812 110.868C86.5575 110.868 85.6602 109.889 85.6602 108.747C85.6602 107.605 86.6391 106.626 87.7812 106.626C88.9234 106.626 89.9023 107.605 89.9023 108.747Z" fill="#A5ABBD"/>
<path opacity="0.2" d="M97 108.747C97 109.971 96.021 110.868 94.8789 110.868C93.6552 110.868 92.7578 109.889 92.7578 108.747C92.7578 107.605 93.7368 106.626 94.8789 106.626C96.021 106.626 97 107.605 97 108.747Z" fill="#A5ABBD"/>
<path opacity="0.2" d="M104.097 108.747C104.097 109.971 103.118 110.868 101.976 110.868C100.833 110.868 99.8545 109.889 99.8545 108.747C99.8545 107.605 100.833 106.626 101.976 106.626C103.118 106.626 104.097 107.605 104.097 108.747Z" fill="#A5ABBD"/>
<path opacity="0.2" d="M111.195 108.747C111.195 109.971 110.216 110.868 109.074 110.868C107.851 110.868 106.953 109.889 106.953 108.747C106.953 107.605 107.932 106.626 109.074 106.626C110.298 106.626 111.195 107.605 111.195 108.747Z" fill="#A5ABBD"/>
<path opacity="0.2" d="M118.373 108.747C118.373 109.971 117.394 110.868 116.252 110.868C115.028 110.868 114.131 109.889 114.131 108.747C114.131 107.605 115.11 106.626 116.252 106.626C117.394 106.626 118.373 107.605 118.373 108.747Z" fill="#A5ABBD"/>
<path opacity="0.2" d="M125.471 108.747C125.471 109.971 124.492 110.868 123.35 110.868C122.126 110.868 121.229 109.889 121.229 108.747C121.229 107.605 122.207 106.626 123.35 106.626C124.492 106.626 125.471 107.605 125.471 108.747Z" fill="#A5ABBD"/>
<path opacity="0.2" d="M132.568 108.747C132.568 109.971 131.589 110.868 130.447 110.868C129.224 110.868 128.326 109.889 128.326 108.747C128.326 107.605 129.305 106.626 130.447 106.626C131.589 106.626 132.568 107.605 132.568 108.747Z" fill="#A5ABBD"/>
<path opacity="0.2" d="M139.666 108.747C139.666 109.971 138.687 110.868 137.545 110.868C136.321 110.868 135.424 109.889 135.424 108.747C135.424 107.605 136.403 106.626 137.545 106.626C138.769 106.626 139.666 107.605 139.666 108.747Z" fill="#A5ABBD"/>
<path opacity="0.2" d="M146.846 108.747C146.846 109.971 145.867 110.868 144.725 110.868C143.501 110.868 142.604 109.889 142.604 108.747C142.604 107.605 143.582 106.626 144.725 106.626C145.867 106.626 146.846 107.605 146.846 108.747Z" fill="#A5ABBD"/>
<path opacity="0.2" d="M153.942 108.747C153.942 109.971 152.963 110.868 151.821 110.868C150.598 110.868 149.7 109.889 149.7 108.747C149.7 107.605 150.679 106.626 151.821 106.626C152.963 106.626 153.942 107.605 153.942 108.747Z" fill="#A5ABBD"/>
<path opacity="0.2" d="M161.04 108.747C161.04 109.971 160.061 110.868 158.919 110.868C157.695 110.868 156.798 109.889 156.798 108.747C156.798 107.605 157.777 106.626 158.919 106.626C160.061 106.626 161.04 107.605 161.04 108.747Z" fill="#A5ABBD"/>
<path opacity="0.2" d="M168.137 108.747C168.137 109.971 167.158 110.868 166.016 110.868C164.792 110.868 163.895 109.889 163.895 108.747C163.895 107.605 164.873 106.626 166.016 106.626C167.239 106.626 168.137 107.605 168.137 108.747Z" fill="#A5ABBD"/>
<path opacity="0.2" d="M18.6816 116.987C18.6816 118.21 17.7027 119.108 16.5605 119.108C15.3368 119.108 14.4395 118.129 14.4395 116.987C14.4395 115.763 15.4184 114.866 16.5605 114.866C17.7027 114.784 18.6816 115.763 18.6816 116.987Z" fill="#A5ABBD"/>
<path opacity="0.2" d="M25.7793 116.987C25.7793 118.21 24.8003 119.108 23.6582 119.108C22.4345 119.108 21.5371 118.129 21.5371 116.987C21.5371 115.763 22.5161 114.866 23.6582 114.866C24.8819 114.784 25.7793 115.763 25.7793 116.987Z" fill="#A5ABBD"/>
<path opacity="0.2" d="M32.958 116.987C32.958 118.21 31.979 119.108 30.8369 119.108C29.6132 119.108 28.7158 118.129 28.7158 116.987C28.7158 115.763 29.6948 114.866 30.8369 114.866C31.979 114.784 32.958 115.763 32.958 116.987Z" fill="#A5ABBD"/>
<path opacity="0.2" d="M40.0556 116.987C40.0556 118.211 39.0767 119.108 37.9346 119.108C36.7924 119.108 35.8135 118.129 35.8135 116.987C35.8135 115.763 36.7924 114.866 37.9346 114.866C39.0767 114.866 40.0556 115.763 40.0556 116.987Z" fill="#A5ABBD"/>
<path opacity="0.2" d="M47.1533 116.987C47.1533 118.21 46.1743 119.108 45.0322 119.108C43.8085 119.108 42.9111 118.129 42.9111 116.987C42.9111 115.763 43.8901 114.866 45.0322 114.866C46.1743 114.784 47.1533 115.763 47.1533 116.987Z" fill="#A5ABBD"/>
<path opacity="0.2" d="M54.25 116.987C54.25 118.21 53.271 119.108 52.1289 119.108C50.9052 119.108 50.0078 118.129 50.0078 116.987C50.0078 115.763 50.9868 114.866 52.1289 114.866C53.3526 114.784 54.25 115.763 54.25 116.987Z" fill="#A5ABBD"/>
<path opacity="0.2" d="M61.4297 116.987C61.4297 118.211 60.4507 119.108 59.3086 119.108C58.1665 119.108 57.1875 118.129 57.1875 116.987C57.1875 115.763 58.1665 114.866 59.3086 114.866C60.4507 114.866 61.4297 115.763 61.4297 116.987Z" fill="#A5ABBD"/>
<path opacity="0.2" d="M68.5273 116.987C68.5273 118.211 67.5484 119.108 66.4062 119.108C65.2641 119.108 64.2852 118.129 64.2852 116.987C64.2852 115.763 65.2641 114.866 66.4062 114.866C67.5484 114.866 68.5273 115.763 68.5273 116.987Z" fill="#A5ABBD"/>
<path opacity="0.2" d="M75.625 116.987C75.625 118.211 74.646 119.108 73.5039 119.108C72.3618 119.108 71.3828 118.129 71.3828 116.987C71.3828 115.763 72.3618 114.866 73.5039 114.866C74.646 114.866 75.625 115.763 75.625 116.987Z" fill="#A5ABBD"/>
<path opacity="0.2" d="M82.7217 116.987C82.7217 118.21 81.7427 119.108 80.6006 119.108C79.3769 119.108 78.4795 118.129 78.4795 116.987C78.4795 115.763 79.4585 114.866 80.6006 114.866C81.8243 114.784 82.7217 115.763 82.7217 116.987Z" fill="#A5ABBD"/>
<path opacity="0.2" d="M89.9013 116.987C89.9013 118.21 88.9224 119.108 87.7803 119.108C86.5566 119.108 85.6592 118.129 85.6592 116.987C85.6592 115.763 86.6381 114.866 87.7803 114.866C88.9224 114.784 89.9013 115.763 89.9013 116.987Z" fill="#A5ABBD"/>
<path opacity="0.2" d="M96.999 116.987C96.999 118.21 96.02 119.108 94.8779 119.108C93.6542 119.108 92.7568 118.129 92.7568 116.987C92.7568 115.763 93.7358 114.866 94.8779 114.866C96.02 114.784 96.999 115.763 96.999 116.987Z" fill="#A5ABBD"/>
<path opacity="0.2" d="M104.096 116.987C104.096 118.211 103.117 119.108 101.975 119.108C100.832 119.108 99.8535 118.129 99.8535 116.987C99.8535 115.763 100.832 114.866 101.975 114.866C103.117 114.866 104.096 115.763 104.096 116.987Z" fill="#A5ABBD"/>
<path opacity="0.2" d="M111.193 116.987C111.193 118.21 110.214 119.108 109.072 119.108C107.849 119.108 106.951 118.129 106.951 116.987C106.951 115.763 107.93 114.866 109.072 114.866C110.296 114.784 111.193 115.763 111.193 116.987Z" fill="#A5ABBD"/>
<path opacity="0.2" d="M118.372 116.987C118.372 118.21 117.393 119.108 116.251 119.108C115.027 119.108 114.13 118.129 114.13 116.987C114.13 115.763 115.109 114.866 116.251 114.866C117.393 114.784 118.372 115.763 118.372 116.987Z" fill="#A5ABBD"/>
<path opacity="0.2" d="M125.471 116.987C125.471 118.21 124.492 119.108 123.35 119.108C122.126 119.108 121.229 118.129 121.229 116.987C121.229 115.763 122.207 114.866 123.35 114.866C124.492 114.784 125.471 115.763 125.471 116.987Z" fill="#A5ABBD"/>
<path opacity="0.2" d="M132.567 116.987C132.567 118.21 131.588 119.108 130.446 119.108C129.223 119.108 128.325 118.129 128.325 116.987C128.325 115.763 129.304 114.866 130.446 114.866C131.588 114.784 132.567 115.763 132.567 116.987Z" fill="#A5ABBD"/>
<path opacity="0.2" d="M139.665 116.987C139.665 118.21 138.686 119.108 137.544 119.108C136.32 119.108 135.423 118.129 135.423 116.987C135.423 115.763 136.402 114.866 137.544 114.866C138.768 114.784 139.665 115.763 139.665 116.987Z" fill="#A5ABBD"/>
<path opacity="0.2" d="M146.845 116.987C146.845 118.21 145.866 119.108 144.724 119.108C143.5 119.108 142.603 118.129 142.603 116.987C142.603 115.763 143.581 114.866 144.724 114.866C145.866 114.784 146.845 115.763 146.845 116.987Z" fill="#A5ABBD"/>
<path opacity="0.2" d="M153.941 116.987C153.941 118.21 152.962 119.108 151.82 119.108C150.597 119.108 149.699 118.129 149.699 116.987C149.699 115.763 150.678 114.866 151.82 114.866C152.962 114.784 153.941 115.763 153.941 116.987Z" fill="#A5ABBD"/>
<path opacity="0.2" d="M161.039 116.987C161.039 118.21 160.06 119.108 158.918 119.108C157.694 119.108 156.797 118.129 156.797 116.987C156.797 115.763 157.776 114.866 158.918 114.866C160.06 114.784 161.039 115.763 161.039 116.987Z" fill="#A5ABBD"/>
<path opacity="0.2" d="M18.6816 125.144C18.6816 126.368 17.7027 127.266 16.5605 127.266C15.3368 127.266 14.4395 126.287 14.4395 125.144C14.4395 123.921 15.4184 123.023 16.5605 123.023C17.7027 123.023 18.6816 124.002 18.6816 125.144Z" fill="#A5ABBD"/>
<path opacity="0.2" d="M25.7793 125.144C25.7793 126.368 24.8003 127.265 23.6582 127.265C22.4345 127.265 21.5371 126.287 21.5371 125.144C21.5371 123.921 22.5161 123.023 23.6582 123.023C24.8819 123.023 25.7793 124.002 25.7793 125.144Z" fill="#A5ABBD"/>
<path opacity="0.2" d="M32.958 125.144C32.958 126.368 31.979 127.265 30.8369 127.265C29.6132 127.265 28.7158 126.287 28.7158 125.144C28.7158 123.921 29.6948 123.023 30.8369 123.023C31.979 123.023 32.958 124.002 32.958 125.144Z" fill="#A5ABBD"/>
<path opacity="0.2" d="M40.0556 125.144C40.0556 126.368 39.0767 127.266 37.9346 127.266C36.7924 127.266 35.8135 126.287 35.8135 125.144C35.8135 123.921 36.7924 123.023 37.9346 123.023C39.0767 123.023 40.0556 124.002 40.0556 125.144Z" fill="#A5ABBD"/>
<path opacity="0.2" d="M47.1533 125.144C47.1533 126.368 46.1743 127.265 45.0322 127.265C43.8085 127.265 42.9111 126.287 42.9111 125.144C42.9111 123.921 43.8901 123.023 45.0322 123.023C46.1743 123.023 47.1533 124.002 47.1533 125.144Z" fill="#A5ABBD"/>
<path opacity="0.2" d="M54.25 125.144C54.25 126.368 53.271 127.266 52.1289 127.266C50.9052 127.266 50.0078 126.287 50.0078 125.144C50.0078 123.921 50.9868 123.023 52.1289 123.023C53.3526 123.023 54.25 124.002 54.25 125.144Z" fill="#A5ABBD"/>
<path opacity="0.2" d="M61.4297 125.144C61.4297 126.368 60.4507 127.265 59.3086 127.265C58.1665 127.265 57.1875 126.287 57.1875 125.144C57.1875 123.921 58.1665 123.023 59.3086 123.023C60.4507 123.023 61.4297 124.002 61.4297 125.144Z" fill="#A5ABBD"/>
<path opacity="0.2" d="M68.5273 125.144C68.5273 126.368 67.5484 127.265 66.4062 127.265C65.2641 127.265 64.2852 126.287 64.2852 125.144C64.2852 123.921 65.2641 123.023 66.4062 123.023C67.5484 123.023 68.5273 124.002 68.5273 125.144Z" fill="#A5ABBD"/>
<path opacity="0.2" d="M75.625 125.144C75.625 126.368 74.646 127.265 73.5039 127.265C72.3618 127.265 71.3828 126.287 71.3828 125.144C71.3828 123.921 72.3618 123.023 73.5039 123.023C74.646 123.023 75.625 124.002 75.625 125.144Z" fill="#A5ABBD"/>
<path opacity="0.2" d="M82.7217 125.144C82.7217 126.368 81.7427 127.265 80.6006 127.265C79.3769 127.265 78.4795 126.287 78.4795 125.144C78.4795 123.921 79.4585 123.023 80.6006 123.023C81.8243 123.023 82.7217 124.002 82.7217 125.144Z" fill="#A5ABBD"/>
<path opacity="0.2" d="M89.9013 125.144C89.9013 126.368 88.9224 127.266 87.7803 127.266C86.5566 127.266 85.6592 126.287 85.6592 125.144C85.6592 123.921 86.6381 123.023 87.7803 123.023C88.9224 123.023 89.9013 124.002 89.9013 125.144Z" fill="#A5ABBD"/>
<path opacity="0.2" d="M96.999 125.144C96.999 126.368 96.02 127.265 94.8779 127.265C93.6542 127.265 92.7568 126.287 92.7568 125.144C92.7568 123.921 93.7358 123.023 94.8779 123.023C96.02 123.023 96.999 124.002 96.999 125.144Z" fill="#A5ABBD"/>
<path opacity="0.2" d="M104.096 125.144C104.096 126.368 103.117 127.265 101.975 127.265C100.832 127.265 99.8535 126.287 99.8535 125.144C99.8535 123.921 100.832 123.023 101.975 123.023C103.117 123.023 104.096 124.002 104.096 125.144Z" fill="#A5ABBD"/>
<path opacity="0.2" d="M111.193 125.144C111.193 126.368 110.214 127.265 109.072 127.265C107.849 127.265 106.951 126.287 106.951 125.144C106.951 123.921 107.93 123.023 109.072 123.023C110.296 123.023 111.193 124.002 111.193 125.144Z" fill="#A5ABBD"/>
<path opacity="0.2" d="M118.372 125.144C118.372 126.368 117.393 127.265 116.251 127.265C115.027 127.265 114.13 126.287 114.13 125.144C114.13 123.921 115.109 123.023 116.251 123.023C117.393 123.023 118.372 124.002 118.372 125.144Z" fill="#A5ABBD"/>
<path opacity="0.2" d="M125.471 125.144C125.471 126.368 124.492 127.266 123.35 127.266C122.126 127.266 121.229 126.287 121.229 125.144C121.229 123.921 122.207 123.023 123.35 123.023C124.492 123.023 125.471 124.002 125.471 125.144Z" fill="#A5ABBD"/>
<path opacity="0.2" d="M132.567 125.144C132.567 126.368 131.588 127.265 130.446 127.265C129.223 127.265 128.325 126.287 128.325 125.144C128.325 123.921 129.304 123.023 130.446 123.023C131.588 123.023 132.567 124.002 132.567 125.144Z" fill="#A5ABBD"/>
<path opacity="0.2" d="M139.665 125.144C139.665 126.368 138.686 127.265 137.544 127.265C136.32 127.265 135.423 126.287 135.423 125.144C135.423 123.921 136.402 123.023 137.544 123.023C138.768 123.023 139.665 124.002 139.665 125.144Z" fill="#A5ABBD"/>
<path opacity="0.2" d="M146.845 125.144C146.845 126.368 145.866 127.265 144.724 127.265C143.5 127.265 142.603 126.287 142.603 125.144C142.603 123.921 143.581 123.023 144.724 123.023C145.866 123.023 146.845 124.002 146.845 125.144Z" fill="#A5ABBD"/>
<path opacity="0.2" d="M153.941 125.144C153.941 126.368 152.962 127.265 151.82 127.265C150.597 127.265 149.699 126.287 149.699 125.144C149.699 123.921 150.678 123.023 151.82 123.023C152.962 123.023 153.941 124.002 153.941 125.144Z" fill="#A5ABBD"/>
<path opacity="0.2" d="M161.039 125.144C161.039 126.368 160.06 127.265 158.918 127.265C157.694 127.265 156.797 126.287 156.797 125.144C156.797 123.921 157.776 123.023 158.918 123.023C160.06 123.023 161.039 124.002 161.039 125.144Z" fill="#A5ABBD"/>
<path opacity="0.2" d="M23.6592 135.505C24.8306 135.505 25.7803 134.555 25.7803 133.384C25.7803 132.212 24.8306 131.263 23.6592 131.263C22.4877 131.263 21.5381 132.212 21.5381 133.384C21.5381 134.555 22.4877 135.505 23.6592 135.505Z" fill="#A5ABBD"/>
<path opacity="0.2" d="M32.959 133.384C32.959 134.607 31.98 135.505 30.8379 135.505C29.6142 135.505 28.7168 134.526 28.7168 133.384C28.7168 132.16 29.6958 131.263 30.8379 131.263C31.98 131.181 32.959 132.16 32.959 133.384Z" fill="#A5ABBD"/>
<path opacity="0.2" d="M40.0566 133.384C40.0566 134.607 39.0777 135.505 37.9355 135.505C36.7934 135.505 35.8145 134.526 35.8145 133.384C35.8145 132.16 36.7934 131.263 37.9355 131.263C39.0777 131.263 40.0566 132.16 40.0566 133.384Z" fill="#A5ABBD"/>
<path opacity="0.2" d="M47.1543 133.384C47.1543 134.607 46.1753 135.505 45.0332 135.505C43.8095 135.505 42.9121 134.526 42.9121 133.384C42.9121 132.16 43.8911 131.263 45.0332 131.263C46.1753 131.181 47.1543 132.16 47.1543 133.384Z" fill="#A5ABBD"/>
<path opacity="0.2" d="M54.2519 133.384C54.2519 134.607 53.273 135.505 52.1309 135.505C50.9071 135.505 50.0098 134.526 50.0098 133.384C50.0098 132.16 50.9887 131.263 52.1309 131.263C53.3546 131.181 54.2519 132.16 54.2519 133.384Z" fill="#A5ABBD"/>
<path opacity="0.2" d="M61.4306 133.383C61.4306 134.607 60.4517 135.504 59.3096 135.504C58.1674 135.504 57.1885 134.525 57.1885 133.383C57.1885 132.16 58.1674 131.262 59.3096 131.262C60.4517 131.262 61.4306 132.16 61.4306 133.383Z" fill="#A5ABBD"/>
<path opacity="0.2" d="M68.5283 133.383C68.5283 134.607 67.5493 135.504 66.4072 135.504C65.2651 135.504 64.2861 134.525 64.2861 133.383C64.2861 132.16 65.2651 131.262 66.4072 131.262C67.5493 131.262 68.5283 132.16 68.5283 133.383Z" fill="#A5ABBD"/>
<path opacity="0.2" d="M75.626 133.383C75.626 134.607 74.647 135.504 73.5049 135.504C72.3628 135.504 71.3838 134.525 71.3838 133.383C71.3838 132.16 72.3628 131.262 73.5049 131.262C74.647 131.262 75.626 132.16 75.626 133.383Z" fill="#A5ABBD"/>
<path opacity="0.2" d="M82.7226 133.384C82.7226 134.607 81.7437 135.505 80.6016 135.505C79.3778 135.505 78.4805 134.526 78.4805 133.384C78.4805 132.16 79.4594 131.263 80.6016 131.263C81.8253 131.181 82.7226 132.16 82.7226 133.384Z" fill="#A5ABBD"/>
<path opacity="0.2" d="M89.9023 133.384C89.9023 134.607 88.9234 135.505 87.7812 135.505C86.5575 135.505 85.6602 134.526 85.6602 133.384C85.6602 132.16 86.6391 131.263 87.7812 131.263C88.9234 131.181 89.9023 132.16 89.9023 133.384Z" fill="#A5ABBD"/>
<path opacity="0.2" d="M97 133.384C97 134.607 96.021 135.505 94.8789 135.505C93.6552 135.505 92.7578 134.526 92.7578 133.384C92.7578 132.16 93.7368 131.263 94.8789 131.263C96.021 131.181 97 132.16 97 133.384Z" fill="#A5ABBD"/>
<path opacity="0.2" d="M104.098 133.383C104.098 134.607 103.119 135.504 101.977 135.504C100.834 135.504 99.8555 134.525 99.8555 133.383C99.8555 132.16 100.834 131.262 101.977 131.262C103.119 131.262 104.098 132.16 104.098 133.383Z" fill="#A5ABBD"/>
<path opacity="0.2" d="M111.195 133.384C111.195 134.607 110.216 135.505 109.074 135.505C107.851 135.505 106.953 134.526 106.953 133.384C106.953 132.16 107.932 131.263 109.074 131.263C110.298 131.181 111.195 132.16 111.195 133.384Z" fill="#A5ABBD"/>
<path opacity="0.2" d="M118.373 133.384C118.373 134.607 117.394 135.505 116.252 135.505C115.028 135.505 114.131 134.526 114.131 133.384C114.131 132.16 115.11 131.263 116.252 131.263C117.394 131.181 118.373 132.16 118.373 133.384Z" fill="#A5ABBD"/>
<path opacity="0.2" d="M125.471 133.384C125.471 134.607 124.492 135.505 123.35 135.505C122.126 135.505 121.229 134.526 121.229 133.384C121.229 132.16 122.207 131.263 123.35 131.263C124.492 131.181 125.471 132.16 125.471 133.384Z" fill="#A5ABBD"/>
<path opacity="0.2" d="M132.568 133.384C132.568 134.607 131.589 135.505 130.447 135.505C129.224 135.505 128.326 134.526 128.326 133.384C128.326 132.16 129.305 131.263 130.447 131.263C131.589 131.181 132.568 132.16 132.568 133.384Z" fill="#A5ABBD"/>
<path opacity="0.2" d="M139.666 133.384C139.666 134.607 138.687 135.505 137.545 135.505C136.321 135.505 135.424 134.526 135.424 133.384C135.424 132.16 136.403 131.263 137.545 131.263C138.769 131.181 139.666 132.16 139.666 133.384Z" fill="#A5ABBD"/>
<path opacity="0.2" d="M146.846 133.384C146.846 134.607 145.867 135.505 144.725 135.505C143.501 135.505 142.604 134.526 142.604 133.384C142.604 132.16 143.582 131.263 144.725 131.263C145.867 131.181 146.846 132.16 146.846 133.384Z" fill="#A5ABBD"/>
<path opacity="0.2" d="M153.942 133.384C153.942 134.607 152.963 135.505 151.821 135.505C150.598 135.505 149.7 134.526 149.7 133.384C149.7 132.16 150.679 131.263 151.821 131.263C152.963 131.181 153.942 132.16 153.942 133.384Z" fill="#A5ABBD"/>
<path opacity="0.2" d="M32.959 141.542C32.959 142.766 31.98 143.663 30.8379 143.663C29.6142 143.663 28.7168 142.684 28.7168 141.542C28.7168 140.318 29.6958 139.421 30.8379 139.421C31.98 139.421 32.959 140.4 32.959 141.542Z" fill="#A5ABBD"/>
<path opacity="0.2" d="M40.0566 141.542C40.0566 142.766 39.0777 143.663 37.9355 143.663C36.7934 143.663 35.8145 142.684 35.8145 141.542C35.8145 140.318 36.7934 139.421 37.9355 139.421C39.0777 139.421 40.0566 140.4 40.0566 141.542Z" fill="#A5ABBD"/>
<path opacity="0.2" d="M47.1543 141.542C47.1543 142.766 46.1753 143.663 45.0332 143.663C43.8095 143.663 42.9121 142.684 42.9121 141.542C42.9121 140.318 43.8911 139.421 45.0332 139.421C46.1753 139.421 47.1543 140.4 47.1543 141.542Z" fill="#A5ABBD"/>
<path opacity="0.2" d="M54.2519 141.542C54.2519 142.766 53.273 143.663 52.1309 143.663C50.9071 143.663 50.0098 142.684 50.0098 141.542C50.0098 140.318 50.9887 139.421 52.1309 139.421C53.3546 139.421 54.2519 140.4 54.2519 141.542Z" fill="#A5ABBD"/>
<path opacity="0.2" d="M61.4306 141.542C61.4306 142.766 60.4517 143.663 59.3096 143.663C58.1674 143.663 57.1885 142.684 57.1885 141.542C57.1885 140.318 58.1674 139.421 59.3096 139.421C60.4517 139.421 61.4306 140.4 61.4306 141.542Z" fill="#A5ABBD"/>
<path opacity="0.2" d="M68.5273 141.542C68.5273 142.766 67.5484 143.663 66.4062 143.663C65.2641 143.663 64.2852 142.684 64.2852 141.542C64.2852 140.318 65.2641 139.421 66.4062 139.421C67.5484 139.421 68.5273 140.4 68.5273 141.542Z" fill="#A5ABBD"/>
<path opacity="0.2" d="M75.626 141.542C75.626 142.766 74.647 143.663 73.5049 143.663C72.3628 143.663 71.3838 142.684 71.3838 141.542C71.3838 140.318 72.3628 139.421 73.5049 139.421C74.647 139.421 75.626 140.4 75.626 141.542Z" fill="#A5ABBD"/>
<path opacity="0.2" d="M82.7226 141.542C82.7226 142.766 81.7437 143.663 80.6016 143.663C79.3778 143.663 78.4805 142.684 78.4805 141.542C78.4805 140.318 79.4594 139.421 80.6016 139.421C81.8253 139.421 82.7226 140.4 82.7226 141.542Z" fill="#A5ABBD"/>
<path opacity="0.2" d="M89.9023 141.542C89.9023 142.766 88.9234 143.663 87.7812 143.663C86.5575 143.663 85.6602 142.684 85.6602 141.542C85.6602 140.318 86.6391 139.421 87.7812 139.421C88.9234 139.421 89.9023 140.4 89.9023 141.542Z" fill="#A5ABBD"/>
<path opacity="0.2" d="M97 141.542C97 142.766 96.021 143.663 94.8789 143.663C93.6552 143.663 92.7578 142.684 92.7578 141.542C92.7578 140.318 93.7368 139.421 94.8789 139.421C96.021 139.421 97 140.4 97 141.542Z" fill="#A5ABBD"/>
<path opacity="0.2" d="M104.097 141.542C104.097 142.766 103.118 143.663 101.976 143.663C100.833 143.663 99.8545 142.684 99.8545 141.542C99.8545 140.318 100.833 139.421 101.976 139.421C103.118 139.421 104.097 140.4 104.097 141.542Z" fill="#A5ABBD"/>
<path opacity="0.2" d="M111.194 141.542C111.194 142.766 110.215 143.663 109.073 143.663C107.85 143.663 106.952 142.684 106.952 141.542C106.952 140.318 107.931 139.421 109.073 139.421C110.297 139.421 111.194 140.4 111.194 141.542Z" fill="#A5ABBD"/>
<path opacity="0.2" d="M118.373 141.542C118.373 142.766 117.394 143.663 116.252 143.663C115.028 143.663 114.131 142.684 114.131 141.542C114.131 140.318 115.11 139.421 116.252 139.421C117.394 139.421 118.373 140.4 118.373 141.542Z" fill="#A5ABBD"/>
<path opacity="0.2" d="M125.471 141.542C125.471 142.766 124.492 143.663 123.35 143.663C122.126 143.663 121.229 142.684 121.229 141.542C121.229 140.318 122.207 139.421 123.35 139.421C124.492 139.421 125.471 140.4 125.471 141.542Z" fill="#A5ABBD"/>
<path opacity="0.2" d="M132.568 141.542C132.568 142.766 131.589 143.663 130.447 143.663C129.224 143.663 128.326 142.684 128.326 141.542C128.326 140.318 129.305 139.421 130.447 139.421C131.589 139.421 132.568 140.4 132.568 141.542Z" fill="#A5ABBD"/>
<path opacity="0.2" d="M139.666 141.542C139.666 142.766 138.687 143.663 137.545 143.663C136.321 143.663 135.424 142.684 135.424 141.542C135.424 140.318 136.403 139.421 137.545 139.421C138.769 139.421 139.666 140.4 139.666 141.542Z" fill="#A5ABBD"/>
<path opacity="0.2" d="M146.846 141.542C146.846 142.766 145.867 143.663 144.725 143.663C143.501 143.663 142.604 142.684 142.604 141.542C142.604 140.318 143.582 139.421 144.725 139.421C145.867 139.421 146.846 140.4 146.846 141.542Z" fill="#A5ABBD"/>
<path opacity="0.2" d="M40.0566 149.782C40.0566 151.005 39.0777 151.903 37.9355 151.903C36.7934 151.903 35.8145 150.924 35.8145 149.782C35.8145 148.558 36.7934 147.661 37.9355 147.661C39.0777 147.661 40.0566 148.558 40.0566 149.782Z" fill="#A5ABBD"/>
<path opacity="0.2" d="M47.1543 149.782C47.1543 151.005 46.1753 151.903 45.0332 151.903C43.8095 151.903 42.9121 150.924 42.9121 149.782C42.9121 148.558 43.8911 147.661 45.0332 147.661C46.1753 147.579 47.1543 148.558 47.1543 149.782Z" fill="#A5ABBD"/>
<path opacity="0.2" d="M54.2519 149.782C54.2519 151.005 53.273 151.903 52.1309 151.903C50.9071 151.903 50.0098 150.924 50.0098 149.782C50.0098 148.558 50.9887 147.661 52.1309 147.661C53.3546 147.579 54.2519 148.558 54.2519 149.782Z" fill="#A5ABBD"/>
<path opacity="0.2" d="M61.4306 149.782C61.4306 151.005 60.4517 151.903 59.3096 151.903C58.1674 151.903 57.1885 150.924 57.1885 149.782C57.1885 148.558 58.1674 147.661 59.3096 147.661C60.4517 147.661 61.4306 148.558 61.4306 149.782Z" fill="#A5ABBD"/>
<path opacity="0.2" d="M68.5283 149.782C68.5283 151.005 67.5493 151.903 66.4072 151.903C65.2651 151.903 64.2861 150.924 64.2861 149.782C64.2861 148.558 65.2651 147.661 66.4072 147.661C67.5493 147.661 68.5283 148.558 68.5283 149.782Z" fill="#A5ABBD"/>
<path opacity="0.2" d="M75.625 149.782C75.625 151.005 74.646 151.903 73.5039 151.903C72.3618 151.903 71.3828 150.924 71.3828 149.782C71.3828 148.558 72.3618 147.661 73.5039 147.661C74.646 147.661 75.625 148.558 75.625 149.782Z" fill="#A5ABBD"/>
<path opacity="0.2" d="M82.7236 149.782C82.7236 151.005 81.7447 151.903 80.6025 151.903C79.3788 151.903 78.4814 150.924 78.4814 149.782C78.4814 148.558 79.4604 147.661 80.6025 147.661C81.8262 147.579 82.7236 148.558 82.7236 149.782Z" fill="#A5ABBD"/>
<path opacity="0.2" d="M89.9023 149.782C89.9023 151.005 88.9234 151.903 87.7812 151.903C86.5575 151.903 85.6602 150.924 85.6602 149.782C85.6602 148.558 86.6391 147.661 87.7812 147.661C88.9234 147.579 89.9023 148.558 89.9023 149.782Z" fill="#A5ABBD"/>
<path opacity="0.2" d="M97 149.782C97 151.005 96.021 151.903 94.8789 151.903C93.6552 151.903 92.7578 150.924 92.7578 149.782C92.7578 148.558 93.7368 147.661 94.8789 147.661C96.021 147.579 97 148.558 97 149.782Z" fill="#A5ABBD"/>
<path opacity="0.2" d="M104.098 149.782C104.098 151.005 103.119 151.903 101.977 151.903C100.834 151.903 99.8555 150.924 99.8555 149.782C99.8555 148.558 100.834 147.661 101.977 147.661C103.119 147.661 104.098 148.558 104.098 149.782Z" fill="#A5ABBD"/>
<path opacity="0.2" d="M111.194 149.782C111.194 151.005 110.215 151.903 109.073 151.903C107.85 151.903 106.952 150.924 106.952 149.782C106.952 148.558 107.931 147.661 109.073 147.661C110.297 147.579 111.194 148.558 111.194 149.782Z" fill="#A5ABBD"/>
<path opacity="0.2" d="M118.374 149.782C118.374 151.005 117.395 151.903 116.253 151.903C115.029 151.903 114.132 150.924 114.132 149.782C114.132 148.558 115.111 147.661 116.253 147.661C117.395 147.579 118.374 148.558 118.374 149.782Z" fill="#A5ABBD"/>
<path opacity="0.2" d="M125.471 149.782C125.471 151.005 124.492 151.903 123.35 151.903C122.126 151.903 121.229 150.924 121.229 149.782C121.229 148.558 122.207 147.661 123.35 147.661C124.492 147.579 125.471 148.558 125.471 149.782Z" fill="#A5ABBD"/>
<path opacity="0.2" d="M132.568 149.782C132.568 151.005 131.589 151.903 130.447 151.903C129.224 151.903 128.326 150.924 128.326 149.782C128.326 148.558 129.305 147.661 130.447 147.661C131.589 147.579 132.568 148.558 132.568 149.782Z" fill="#A5ABBD"/>
<path opacity="0.2" d="M139.666 149.782C139.666 151.005 138.687 151.903 137.545 151.903C136.321 151.903 135.424 150.924 135.424 149.782C135.424 148.558 136.403 147.661 137.545 147.661C138.769 147.579 139.666 148.558 139.666 149.782Z" fill="#A5ABBD"/>
<path opacity="0.2" d="M54.251 157.94C54.251 159.164 53.272 160.061 52.1299 160.061C50.9062 160.061 50.0088 159.082 50.0088 157.94C50.0088 156.716 50.9878 155.819 52.1299 155.819C53.3536 155.819 54.251 156.798 54.251 157.94Z" fill="#A5ABBD"/>
<path opacity="0.2" d="M61.4297 157.94C61.4297 159.164 60.4507 160.061 59.3086 160.061C58.1665 160.061 57.1875 159.082 57.1875 157.94C57.1875 156.716 58.1665 155.819 59.3086 155.819C60.4507 155.819 61.4297 156.798 61.4297 157.94Z" fill="#A5ABBD"/>
<path opacity="0.2" d="M68.5273 157.94C68.5273 159.164 67.5484 160.061 66.4062 160.061C65.2641 160.061 64.2852 159.082 64.2852 157.94C64.2852 156.716 65.2641 155.819 66.4062 155.819C67.5484 155.819 68.5273 156.798 68.5273 157.94Z" fill="#A5ABBD"/>
<path opacity="0.2" d="M75.625 157.94C75.625 159.164 74.646 160.061 73.5039 160.061C72.3618 160.061 71.3828 159.082 71.3828 157.94C71.3828 156.716 72.3618 155.819 73.5039 155.819C74.646 155.819 75.625 156.798 75.625 157.94Z" fill="#A5ABBD"/>
<path opacity="0.2" d="M82.7226 157.94C82.7226 159.164 81.7437 160.061 80.6016 160.061C79.3778 160.061 78.4805 159.082 78.4805 157.94C78.4805 156.716 79.4594 155.819 80.6016 155.819C81.8253 155.819 82.7226 156.798 82.7226 157.94Z" fill="#A5ABBD"/>
<path opacity="0.2" d="M89.9023 157.94C89.9023 159.164 88.9234 160.061 87.7812 160.061C86.5575 160.061 85.6602 159.082 85.6602 157.94C85.6602 156.716 86.6391 155.819 87.7812 155.819C88.9234 155.819 89.9023 156.798 89.9023 157.94Z" fill="#A5ABBD"/>
<path opacity="0.2" d="M96.999 157.94C96.999 159.164 96.02 160.061 94.8779 160.061C93.6542 160.061 92.7568 159.082 92.7568 157.94C92.7568 156.716 93.7358 155.819 94.8779 155.819C96.02 155.819 96.999 156.798 96.999 157.94Z" fill="#A5ABBD"/>
<path opacity="0.2" d="M104.097 157.94C104.097 159.164 103.118 160.061 101.976 160.061C100.833 160.061 99.8545 159.082 99.8545 157.94C99.8545 156.716 100.833 155.819 101.976 155.819C103.118 155.819 104.097 156.798 104.097 157.94Z" fill="#A5ABBD"/>
<path opacity="0.2" d="M111.194 157.94C111.194 159.164 110.215 160.061 109.073 160.061C107.85 160.061 106.952 159.082 106.952 157.94C106.952 156.716 107.931 155.819 109.073 155.819C110.297 155.819 111.194 156.798 111.194 157.94Z" fill="#A5ABBD"/>
<path opacity="0.2" d="M118.373 157.94C118.373 159.164 117.394 160.061 116.252 160.061C115.028 160.061 114.131 159.082 114.131 157.94C114.131 156.716 115.11 155.819 116.252 155.819C117.394 155.819 118.373 156.798 118.373 157.94Z" fill="#A5ABBD"/>
<path opacity="0.2" d="M125.471 157.94C125.471 159.164 124.492 160.061 123.35 160.061C122.126 160.061 121.229 159.082 121.229 157.94C121.229 156.716 122.207 155.819 123.35 155.819C124.492 155.819 125.471 156.798 125.471 157.94Z" fill="#A5ABBD"/>
<path opacity="0.2" d="M68.5273 166.18C68.5273 167.403 67.5484 168.301 66.4062 168.301C65.2641 168.301 64.2852 167.322 64.2852 166.18C64.2852 164.956 65.2641 164.059 66.4062 164.059C67.5484 164.059 68.5273 164.956 68.5273 166.18Z" fill="#A5ABBD"/>
<path opacity="0.2" d="M75.625 166.18C75.625 167.403 74.646 168.301 73.5039 168.301C72.3618 168.301 71.3828 167.322 71.3828 166.18C71.3828 164.956 72.3618 164.059 73.5039 164.059C74.646 164.059 75.625 164.956 75.625 166.18Z" fill="#A5ABBD"/>
<path opacity="0.2" d="M82.7217 166.18C82.7217 167.403 81.7427 168.301 80.6006 168.301C79.3769 168.301 78.4795 167.322 78.4795 166.18C78.4795 164.956 79.4585 164.059 80.6006 164.059C81.8243 164.059 82.7217 164.956 82.7217 166.18Z" fill="#A5ABBD"/>
<path opacity="0.2" d="M89.9013 166.18C89.9013 167.403 88.9224 168.301 87.7803 168.301C86.5566 168.301 85.6592 167.322 85.6592 166.18C85.6592 164.956 86.6381 164.059 87.7803 164.059C88.9224 164.059 89.9013 164.956 89.9013 166.18Z" fill="#A5ABBD"/>
<path opacity="0.2" d="M96.999 166.18C96.999 167.403 96.02 168.301 94.8779 168.301C93.6542 168.301 92.7568 167.322 92.7568 166.18C92.7568 164.956 93.7358 164.059 94.8779 164.059C96.02 164.059 96.999 164.956 96.999 166.18Z" fill="#A5ABBD"/>
<path opacity="0.2" d="M104.096 166.18C104.096 167.403 103.117 168.301 101.975 168.301C100.832 168.301 99.8535 167.322 99.8535 166.18C99.8535 164.956 100.832 164.059 101.975 164.059C103.117 164.059 104.096 164.956 104.096 166.18Z" fill="#A5ABBD"/>
<path opacity="0.2" d="M111.193 166.18C111.193 167.403 110.214 168.301 109.072 168.301C107.849 168.301 106.951 167.322 106.951 166.18C106.951 164.956 107.93 164.059 109.072 164.059C110.296 164.059 111.193 164.956 111.193 166.18Z" fill="#A5ABBD"/>
<path opacity="0.2" d="M163.977 75.951C163.977 74.7273 164.956 73.83 166.098 73.83C167.321 73.83 168.219 74.8089 168.219 75.951C168.219 77.1747 167.24 78.0721 166.098 78.0721C164.956 78.0721 163.977 77.1747 163.977 75.951Z" fill="#A5ABBD"/>
<path opacity="0.2" d="M156.88 75.951C156.88 74.7273 157.859 73.83 159.001 73.83C160.225 73.83 161.122 74.8089 161.122 75.951C161.122 77.1747 160.143 78.0721 159.001 78.0721C157.777 78.0721 156.88 77.1747 156.88 75.951Z" fill="#A5ABBD"/>
<path opacity="0.2" d="M149.7 75.951C149.7 74.7273 150.679 73.83 151.821 73.83C153.045 73.83 153.942 74.8089 153.942 75.951C153.942 77.1747 152.963 78.0721 151.821 78.0721C150.679 78.0721 149.7 77.1747 149.7 75.951Z" fill="#A5ABBD"/>
<path opacity="0.2" d="M142.604 75.951C142.604 74.7273 143.582 73.83 144.725 73.83C145.948 73.83 146.846 74.8089 146.846 75.951C146.846 77.1747 145.867 78.0721 144.725 78.0721C143.582 78.0721 142.604 77.1747 142.604 75.951Z" fill="#A5ABBD"/>
<path opacity="0.2" d="M135.506 75.9511C135.506 74.7274 136.485 73.83 137.627 73.83C138.851 73.83 139.748 74.809 139.748 75.9511C139.748 77.1748 138.769 78.0722 137.627 78.0722C136.485 78.0722 135.506 77.1748 135.506 75.9511Z" fill="#A5ABBD"/>
<path opacity="0.2" d="M128.408 75.951C128.408 74.7273 129.387 73.83 130.529 73.83C131.753 73.83 132.65 74.8089 132.65 75.951C132.65 77.1747 131.671 78.0721 130.529 78.0721C129.306 78.0721 128.408 77.1747 128.408 75.951Z" fill="#A5ABBD"/>
<path opacity="0.2" d="M121.229 75.951C121.229 74.7273 122.207 73.83 123.35 73.83C124.573 73.83 125.471 74.8089 125.471 75.951C125.471 77.1747 124.492 78.0721 123.35 78.0721C122.207 78.0721 121.229 77.1747 121.229 75.951Z" fill="#A5ABBD"/>
<path opacity="0.2" d="M114.131 75.951C114.131 74.7273 115.11 73.83 116.252 73.83C117.476 73.83 118.373 74.8089 118.373 75.951C118.373 77.1747 117.394 78.0721 116.252 78.0721C115.11 78.0721 114.131 77.1747 114.131 75.951Z" fill="#A5ABBD"/>
<path opacity="0.2" d="M107.034 75.951C107.034 74.7273 108.013 73.83 109.155 73.83C110.379 73.83 111.276 74.8089 111.276 75.951C111.276 77.1747 110.297 78.0721 109.155 78.0721C108.013 78.0721 107.034 77.1747 107.034 75.951Z" fill="#A5ABBD"/>
<path opacity="0.2" d="M99.9365 75.951C99.9365 74.7273 100.915 73.83 102.058 73.83C103.2 73.83 104.179 74.8089 104.179 75.951C104.179 77.1747 103.2 78.0721 102.058 78.0721C100.915 78.0721 99.9365 77.1747 99.9365 75.951Z" fill="#A5ABBD"/>
<path opacity="0.2" d="M92.7578 75.951C92.7578 74.7273 93.7368 73.83 94.8789 73.83C96.1026 73.83 97 74.8089 97 75.951C97 77.1747 96.021 78.0721 94.8789 78.0721C93.7368 78.0721 92.7578 77.1747 92.7578 75.951Z" fill="#A5ABBD"/>
<path opacity="0.2" d="M85.6602 75.9511C85.6602 74.7274 86.6391 73.83 87.7812 73.83C89.005 73.83 89.9023 74.809 89.9023 75.9511C89.9023 77.1748 88.9234 78.0722 87.7812 78.0722C86.6391 78.0722 85.6602 77.1748 85.6602 75.9511Z" fill="#A5ABBD"/>
<path opacity="0.2" d="M78.5625 75.951C78.5625 74.7273 79.5415 73.83 80.6836 73.83C81.9073 73.83 82.8047 74.8089 82.8047 75.951C82.8047 77.1747 81.8257 78.0721 80.6836 78.0721C79.5415 78.0721 78.5625 77.1747 78.5625 75.951Z" fill="#A5ABBD"/>
<path opacity="0.2" d="M71.3838 75.951C71.3838 74.7273 72.3628 73.83 73.5049 73.83C74.647 73.83 75.626 74.8089 75.626 75.951C75.626 77.1747 74.647 78.0721 73.5049 78.0721C72.3628 78.0721 71.3838 77.1747 71.3838 75.951Z" fill="#A5ABBD"/>
<path opacity="0.2" d="M64.2852 75.951C64.2852 74.7273 65.2641 73.83 66.4062 73.83C67.5484 73.83 68.5273 74.8089 68.5273 75.951C68.5273 77.1747 67.5484 78.0721 66.4062 78.0721C65.2641 78.0721 64.2852 77.1747 64.2852 75.951Z" fill="#A5ABBD"/>
<path opacity="0.2" d="M57.1885 75.951C57.1885 74.7273 58.1674 73.83 59.3096 73.83C60.4517 73.83 61.4306 74.8089 61.4306 75.951C61.4306 77.1747 60.4517 78.0721 59.3096 78.0721C58.1674 78.0721 57.1885 77.1747 57.1885 75.951Z" fill="#A5ABBD"/>
<path opacity="0.2" d="M50.0908 75.951C50.0908 74.7273 51.0698 73.83 52.2119 73.83C53.4356 73.83 54.333 74.8089 54.333 75.951C54.333 77.1747 53.354 78.0721 52.2119 78.0721C51.0698 78.0721 50.0908 77.1747 50.0908 75.951Z" fill="#A5ABBD"/>
<path opacity="0.2" d="M42.9932 75.951C42.9932 74.7273 43.9721 73.83 45.1142 73.83C46.338 73.83 47.2353 74.8089 47.2353 75.951C47.2353 77.1747 46.2564 78.0721 45.1142 78.0721C43.8905 78.0721 42.9932 77.1747 42.9932 75.951Z" fill="#A5ABBD"/>
<path opacity="0.2" d="M35.8145 75.9511C35.8145 74.7274 36.7934 73.83 37.9355 73.83C39.0777 73.83 40.0566 74.809 40.0566 75.9511C40.0566 77.1748 39.0777 78.0722 37.9355 78.0722C36.7934 78.0722 35.8145 77.1748 35.8145 75.9511Z" fill="#A5ABBD"/>
<path opacity="0.2" d="M28.7168 75.951C28.7168 74.7273 29.6958 73.83 30.8379 73.83C32.0616 73.83 32.959 74.8089 32.959 75.951C32.959 77.1747 31.98 78.0721 30.8379 78.0721C29.6958 78.0721 28.7168 77.1747 28.7168 75.951Z" fill="#A5ABBD"/>
<path opacity="0.2" d="M21.6191 75.9511C21.6191 74.7274 22.5981 73.83 23.7402 73.83C24.9639 73.83 25.8613 74.809 25.8613 75.9511C25.8613 77.1748 24.8823 78.0722 23.7402 78.0722C22.5981 78.0722 21.6191 77.1748 21.6191 75.9511Z" fill="#A5ABBD"/>
<path opacity="0.2" d="M14.5215 75.951C14.5215 74.7273 15.5004 73.83 16.6426 73.83C17.8663 73.83 18.7637 74.8089 18.7637 75.951C18.7637 77.1747 17.7847 78.0721 16.6426 78.0721C15.4189 78.0721 14.5215 77.1747 14.5215 75.951Z" fill="#A5ABBD"/>
<path opacity="0.2" d="M7.34277 75.9511C7.34277 74.7274 8.32174 73.83 9.46386 73.83C10.606 73.83 11.5849 74.809 11.5849 75.9511C11.5849 77.1748 10.606 78.0722 9.46386 78.0722C8.32174 78.0722 7.34277 77.1748 7.34277 75.9511Z" fill="#A5ABBD"/>
<path opacity="0.2" d="M163.977 67.793C163.977 66.5693 164.956 65.6719 166.098 65.6719C167.321 65.6719 168.219 66.6508 168.219 67.793C168.219 69.0167 167.24 69.914 166.098 69.914C164.956 69.914 163.977 68.9351 163.977 67.793Z" fill="#A5ABBD"/>
<path opacity="0.2" d="M156.88 67.793C156.88 66.5693 157.859 65.6719 159.001 65.6719C160.225 65.6719 161.122 66.6508 161.122 67.793C161.122 69.0167 160.143 69.914 159.001 69.914C157.777 69.914 156.88 68.9351 156.88 67.793Z" fill="#A5ABBD"/>
<path opacity="0.2" d="M149.7 67.793C149.7 66.5693 150.679 65.6719 151.821 65.6719C153.045 65.6719 153.942 66.6508 153.942 67.793C153.942 69.0167 152.963 69.914 151.821 69.914C150.679 69.914 149.7 68.9351 149.7 67.793Z" fill="#A5ABBD"/>
<path opacity="0.2" d="M142.604 67.793C142.604 66.5693 143.582 65.6719 144.725 65.6719C145.948 65.6719 146.846 66.6508 146.846 67.793C146.846 69.0167 145.867 69.914 144.725 69.914C143.582 69.914 142.604 68.9351 142.604 67.793Z" fill="#A5ABBD"/>
<path opacity="0.2" d="M135.506 67.793C135.506 66.5693 136.485 65.6719 137.627 65.6719C138.851 65.6719 139.748 66.6508 139.748 67.793C139.748 69.0167 138.769 69.914 137.627 69.914C136.485 69.914 135.506 68.9351 135.506 67.793Z" fill="#A5ABBD"/>
<path opacity="0.2" d="M128.408 67.793C128.408 66.5693 129.387 65.6719 130.529 65.6719C131.753 65.6719 132.65 66.6508 132.65 67.793C132.65 69.0167 131.671 69.914 130.529 69.914C129.306 69.914 128.408 68.9351 128.408 67.793Z" fill="#A5ABBD"/>
<path opacity="0.2" d="M121.229 67.793C121.229 66.5693 122.207 65.6719 123.35 65.6719C124.573 65.6719 125.471 66.6508 125.471 67.793C125.471 69.0167 124.492 69.914 123.35 69.914C122.207 69.914 121.229 68.9351 121.229 67.793Z" fill="#A5ABBD"/>
<path opacity="0.2" d="M114.131 67.793C114.131 66.5693 115.11 65.6719 116.252 65.6719C117.476 65.6719 118.373 66.6508 118.373 67.793C118.373 69.0167 117.394 69.914 116.252 69.914C115.11 69.914 114.131 68.9351 114.131 67.793Z" fill="#A5ABBD"/>
<path opacity="0.2" d="M107.034 67.793C107.034 66.5693 108.013 65.6719 109.155 65.6719C110.379 65.6719 111.276 66.6508 111.276 67.793C111.276 69.0167 110.297 69.914 109.155 69.914C108.013 69.914 107.034 68.9351 107.034 67.793Z" fill="#A5ABBD"/>
<path opacity="0.2" d="M99.9365 67.793C99.9365 66.5693 100.915 65.6719 102.058 65.6719C103.2 65.6719 104.179 66.6508 104.179 67.793C104.179 69.0167 103.2 69.914 102.058 69.914C100.915 69.914 99.9365 68.9351 99.9365 67.793Z" fill="#A5ABBD"/>
<path opacity="0.2" d="M92.7578 67.793C92.7578 66.5693 93.7368 65.6719 94.8789 65.6719C96.1026 65.6719 97 66.6508 97 67.793C97 69.0167 96.021 69.914 94.8789 69.914C93.7368 69.914 92.7578 68.9351 92.7578 67.793Z" fill="#A5ABBD"/>
<path opacity="0.2" d="M85.6602 67.793C85.6602 66.5693 86.6391 65.6719 87.7812 65.6719C89.005 65.6719 89.9023 66.6508 89.9023 67.793C89.9023 69.0167 88.9234 69.914 87.7812 69.914C86.6391 69.914 85.6602 68.9351 85.6602 67.793Z" fill="#A5ABBD"/>
<path opacity="0.2" d="M78.5625 67.793C78.5625 66.5693 79.5415 65.6719 80.6836 65.6719C81.9073 65.6719 82.8047 66.6508 82.8047 67.793C82.8047 69.0167 81.8257 69.914 80.6836 69.914C79.5415 69.914 78.5625 68.9351 78.5625 67.793Z" fill="#A5ABBD"/>
<path opacity="0.2" d="M71.3838 67.793C71.3838 66.5693 72.3628 65.6719 73.5049 65.6719C74.647 65.6719 75.626 66.6508 75.626 67.793C75.626 69.0167 74.647 69.914 73.5049 69.914C72.3628 69.914 71.3838 68.9351 71.3838 67.793Z" fill="#A5ABBD"/>
<path opacity="0.2" d="M64.2852 67.793C64.2852 66.5693 65.2641 65.6719 66.4062 65.6719C67.5484 65.6719 68.5273 66.6508 68.5273 67.793C68.5273 69.0167 67.5484 69.914 66.4062 69.914C65.2641 69.914 64.2852 68.9351 64.2852 67.793Z" fill="#A5ABBD"/>
<path opacity="0.2" d="M57.1885 67.793C57.1885 66.5693 58.1674 65.6719 59.3096 65.6719C60.4517 65.6719 61.4306 66.6508 61.4306 67.793C61.4306 69.0167 60.4517 69.914 59.3096 69.914C58.1674 69.914 57.1885 68.9351 57.1885 67.793Z" fill="#A5ABBD"/>
<path opacity="0.2" d="M50.0908 67.793C50.0908 66.5693 51.0698 65.6719 52.2119 65.6719C53.4356 65.6719 54.333 66.6508 54.333 67.793C54.333 69.0167 53.354 69.914 52.2119 69.914C51.0698 69.914 50.0908 68.9351 50.0908 67.793Z" fill="#A5ABBD"/>
<path opacity="0.2" d="M42.9932 67.793C42.9932 66.5693 43.9721 65.6719 45.1142 65.6719C46.338 65.6719 47.2353 66.6508 47.2353 67.793C47.2353 69.0167 46.2564 69.914 45.1142 69.914C43.8905 69.914 42.9932 68.9351 42.9932 67.793Z" fill="#A5ABBD"/>
<path opacity="0.2" d="M35.8145 67.793C35.8145 66.5693 36.7934 65.6719 37.9355 65.6719C39.0777 65.6719 40.0566 66.6508 40.0566 67.793C40.0566 69.0167 39.0777 69.914 37.9355 69.914C36.7934 69.914 35.8145 68.9351 35.8145 67.793Z" fill="#A5ABBD"/>
<path opacity="0.2" d="M28.7168 67.793C28.7168 66.5693 29.6958 65.6719 30.8379 65.6719C32.0616 65.6719 32.959 66.6508 32.959 67.793C32.959 69.0167 31.98 69.914 30.8379 69.914C29.6958 69.914 28.7168 68.9351 28.7168 67.793Z" fill="#A5ABBD"/>
<path opacity="0.2" d="M21.6191 67.793C21.6191 66.5693 22.5981 65.6719 23.7402 65.6719C24.9639 65.6719 25.8613 66.6508 25.8613 67.793C25.8613 69.0167 24.8823 69.914 23.7402 69.914C22.5981 69.914 21.6191 68.9351 21.6191 67.793Z" fill="#A5ABBD"/>
<path opacity="0.2" d="M14.5215 67.793C14.5215 66.5693 15.5004 65.6719 16.6426 65.6719C17.8663 65.6719 18.7637 66.6508 18.7637 67.793C18.7637 69.0167 17.7847 69.914 16.6426 69.914C15.4189 69.914 14.5215 68.9351 14.5215 67.793Z" fill="#A5ABBD"/>
<path opacity="0.2" d="M7.34277 67.793C7.34277 66.5693 8.32174 65.6719 9.46386 65.6719C10.606 65.6719 11.5849 66.6508 11.5849 67.793C11.5849 69.0167 10.606 69.914 9.46386 69.914C8.32174 69.914 7.34277 68.9351 7.34277 67.793Z" fill="#A5ABBD"/>
<path opacity="0.2" d="M163.977 59.5537C163.977 58.33 164.956 57.4326 166.098 57.4326C167.321 57.4326 168.219 58.4116 168.219 59.5537C168.219 60.7774 167.24 61.6748 166.098 61.6748C164.956 61.6748 163.977 60.7774 163.977 59.5537Z" fill="#A5ABBD"/>
<path opacity="0.2" d="M156.88 59.5537C156.88 58.33 157.859 57.4326 159.001 57.4326C160.225 57.4326 161.122 58.4116 161.122 59.5537C161.122 60.7774 160.143 61.6748 159.001 61.6748C157.777 61.6748 156.88 60.7774 156.88 59.5537Z" fill="#A5ABBD"/>
<path opacity="0.2" d="M149.7 59.5537C149.7 58.33 150.679 57.4326 151.821 57.4326C153.045 57.4326 153.942 58.4116 153.942 59.5537C153.942 60.7774 152.963 61.6748 151.821 61.6748C150.679 61.6748 149.7 60.7774 149.7 59.5537Z" fill="#A5ABBD"/>
<path opacity="0.2" d="M142.604 59.5537C142.604 58.33 143.582 57.4326 144.725 57.4326C145.948 57.4326 146.846 58.4116 146.846 59.5537C146.846 60.7774 145.867 61.6748 144.725 61.6748C143.582 61.6748 142.604 60.7774 142.604 59.5537Z" fill="#A5ABBD"/>
<path opacity="0.2" d="M135.506 59.5537C135.506 58.33 136.485 57.4326 137.627 57.4326C138.851 57.4326 139.748 58.4116 139.748 59.5537C139.748 60.7774 138.769 61.6748 137.627 61.6748C136.485 61.6748 135.506 60.7774 135.506 59.5537Z" fill="#A5ABBD"/>
<path opacity="0.2" d="M128.408 59.5537C128.408 58.33 129.387 57.4326 130.529 57.4326C131.753 57.4326 132.65 58.4116 132.65 59.5537C132.65 60.7774 131.671 61.6748 130.529 61.6748C129.306 61.6748 128.408 60.7774 128.408 59.5537Z" fill="#A5ABBD"/>
<path opacity="0.2" d="M121.229 59.5537C121.229 58.33 122.207 57.4326 123.35 57.4326C124.573 57.4326 125.471 58.4116 125.471 59.5537C125.471 60.7774 124.492 61.6748 123.35 61.6748C122.207 61.6748 121.229 60.7774 121.229 59.5537Z" fill="#A5ABBD"/>
<path opacity="0.2" d="M114.131 59.5537C114.131 58.33 115.11 57.4326 116.252 57.4326C117.476 57.4326 118.373 58.4116 118.373 59.5537C118.373 60.7774 117.394 61.6748 116.252 61.6748C115.11 61.6748 114.131 60.7774 114.131 59.5537Z" fill="#A5ABBD"/>
<path opacity="0.2" d="M107.034 59.5537C107.034 58.33 108.013 57.4326 109.155 57.4326C110.379 57.4326 111.276 58.4116 111.276 59.5537C111.276 60.7774 110.297 61.6748 109.155 61.6748C108.013 61.6748 107.034 60.7774 107.034 59.5537Z" fill="#A5ABBD"/>
<path opacity="0.2" d="M99.9365 59.5537C99.9365 58.33 100.915 57.4326 102.058 57.4326C103.2 57.4326 104.179 58.4116 104.179 59.5537C104.179 60.7774 103.2 61.6748 102.058 61.6748C100.915 61.6748 99.9365 60.7774 99.9365 59.5537Z" fill="#A5ABBD"/>
<path opacity="0.2" d="M92.7578 59.5537C92.7578 58.33 93.7368 57.4326 94.8789 57.4326C96.1026 57.4326 97 58.4116 97 59.5537C97 60.7774 96.021 61.6748 94.8789 61.6748C93.7368 61.6748 92.7578 60.7774 92.7578 59.5537Z" fill="#A5ABBD"/>
<path opacity="0.2" d="M85.6602 59.5537C85.6602 58.33 86.6391 57.4326 87.7812 57.4326C89.005 57.4326 89.9023 58.4116 89.9023 59.5537C89.9023 60.7774 88.9234 61.6748 87.7812 61.6748C86.6391 61.6748 85.6602 60.7774 85.6602 59.5537Z" fill="#A5ABBD"/>
<path opacity="0.2" d="M78.5625 59.5537C78.5625 58.33 79.5415 57.4326 80.6836 57.4326C81.9073 57.4326 82.8047 58.4116 82.8047 59.5537C82.8047 60.7774 81.8257 61.6748 80.6836 61.6748C79.5415 61.6748 78.5625 60.7774 78.5625 59.5537Z" fill="#A5ABBD"/>
<path opacity="0.2" d="M71.3838 59.5537C71.3838 58.33 72.3628 57.4326 73.5049 57.4326C74.647 57.4326 75.626 58.4116 75.626 59.5537C75.626 60.7774 74.647 61.6748 73.5049 61.6748C72.3628 61.6748 71.3838 60.7774 71.3838 59.5537Z" fill="#A5ABBD"/>
<path opacity="0.2" d="M64.2852 59.5537C64.2852 58.33 65.2641 57.4326 66.4062 57.4326C67.5484 57.4326 68.5273 58.4116 68.5273 59.5537C68.5273 60.7774 67.5484 61.6748 66.4062 61.6748C65.2641 61.6748 64.2852 60.7774 64.2852 59.5537Z" fill="#A5ABBD"/>
<path opacity="0.2" d="M57.1885 59.5537C57.1885 58.33 58.1674 57.4326 59.3096 57.4326C60.4517 57.4326 61.4306 58.4116 61.4306 59.5537C61.4306 60.7774 60.4517 61.6748 59.3096 61.6748C58.1674 61.6748 57.1885 60.7774 57.1885 59.5537Z" fill="#A5ABBD"/>
<path opacity="0.2" d="M50.0908 59.5537C50.0908 58.33 51.0698 57.4326 52.2119 57.4326C53.4356 57.4326 54.333 58.4116 54.333 59.5537C54.333 60.7774 53.354 61.6748 52.2119 61.6748C51.0698 61.6748 50.0908 60.7774 50.0908 59.5537Z" fill="#A5ABBD"/>
<path opacity="0.2" d="M42.9932 59.5537C42.9932 58.33 43.9721 57.4326 45.1142 57.4326C46.338 57.4326 47.2353 58.4116 47.2353 59.5537C47.2353 60.7774 46.2564 61.6748 45.1142 61.6748C43.8905 61.6748 42.9932 60.7774 42.9932 59.5537Z" fill="#A5ABBD"/>
<path opacity="0.2" d="M35.8145 59.5537C35.8145 58.33 36.7934 57.4326 37.9355 57.4326C39.0777 57.4326 40.0566 58.4116 40.0566 59.5537C40.0566 60.7774 39.0777 61.6748 37.9355 61.6748C36.7934 61.6748 35.8145 60.7774 35.8145 59.5537Z" fill="#A5ABBD"/>
<path opacity="0.2" d="M28.7168 59.5537C28.7168 58.33 29.6958 57.4326 30.8379 57.4326C32.0616 57.4326 32.959 58.4116 32.959 59.5537C32.959 60.7774 31.98 61.6748 30.8379 61.6748C29.6958 61.6748 28.7168 60.7774 28.7168 59.5537Z" fill="#A5ABBD"/>
<path opacity="0.2" d="M21.6191 59.5537C21.6191 58.33 22.5981 57.4326 23.7402 57.4326C24.9639 57.4326 25.8613 58.4116 25.8613 59.5537C25.8613 60.7774 24.8823 61.6748 23.7402 61.6748C22.5981 61.6748 21.6191 60.7774 21.6191 59.5537Z" fill="#A5ABBD"/>
<path opacity="0.2" d="M14.5215 59.5537C14.5215 58.33 15.5004 57.4326 16.6426 57.4326C17.8663 57.4326 18.7637 58.4116 18.7637 59.5537C18.7637 60.7774 17.7847 61.6748 16.6426 61.6748C15.4189 61.6748 14.5215 60.7774 14.5215 59.5537Z" fill="#A5ABBD"/>
<path opacity="0.2" d="M7.34277 59.5537C7.34277 58.33 8.32174 57.4326 9.46386 57.4326C10.606 57.4326 11.6665 58.33 11.6665 59.5537C11.6665 60.7774 10.6876 61.6748 9.54544 61.6748C8.40332 61.6748 7.34277 60.7774 7.34277 59.5537Z" fill="#A5ABBD"/>
<path opacity="0.2" d="M156.879 51.314C156.879 50.0903 157.858 49.1929 159 49.1929C160.224 49.1929 161.121 50.1718 161.121 51.314C161.121 52.5377 160.142 53.435 159 53.435C157.776 53.5166 156.879 52.5377 156.879 51.314Z" fill="#A5ABBD"/>
<path opacity="0.2" d="M149.699 51.314C149.699 50.0903 150.678 49.1929 151.82 49.1929C153.044 49.1929 153.941 50.1718 153.941 51.314C153.941 52.5377 152.962 53.435 151.82 53.435C150.678 53.5166 149.699 52.5377 149.699 51.314Z" fill="#A5ABBD"/>
<path opacity="0.2" d="M142.603 51.314C142.603 50.0903 143.582 49.1929 144.724 49.1929C145.947 49.1929 146.845 50.1718 146.845 51.314C146.845 52.5377 145.866 53.435 144.724 53.435C143.582 53.5166 142.603 52.5377 142.603 51.314Z" fill="#A5ABBD"/>
<path opacity="0.2" d="M135.505 51.314C135.505 50.0903 136.484 49.1929 137.626 49.1929C138.85 49.1929 139.747 50.1718 139.747 51.314C139.747 52.5377 138.768 53.435 137.626 53.435C136.484 53.5166 135.505 52.5377 135.505 51.314Z" fill="#A5ABBD"/>
<path opacity="0.2" d="M128.408 51.314C128.408 50.0903 129.387 49.1929 130.529 49.1929C131.753 49.1929 132.65 50.1718 132.65 51.314C132.65 52.5377 131.671 53.435 130.529 53.435C129.306 53.5166 128.408 52.5377 128.408 51.314Z" fill="#A5ABBD"/>
<path opacity="0.2" d="M121.229 51.314C121.229 50.0903 122.207 49.1929 123.35 49.1929C124.573 49.1929 125.471 50.1718 125.471 51.314C125.471 52.5377 124.492 53.435 123.35 53.435C122.207 53.5166 121.229 52.5377 121.229 51.314Z" fill="#A5ABBD"/>
<path opacity="0.2" d="M114.131 51.314C114.131 50.0903 115.11 49.1929 116.252 49.1929C117.476 49.1929 118.373 50.1718 118.373 51.314C118.373 52.5377 117.394 53.435 116.252 53.435C115.11 53.5166 114.131 52.5377 114.131 51.314Z" fill="#A5ABBD"/>
<path opacity="0.2" d="M107.033 51.314C107.033 50.0903 108.012 49.1929 109.154 49.1929C110.378 49.1929 111.275 50.1718 111.275 51.314C111.275 52.5377 110.296 53.435 109.154 53.435C108.012 53.5166 107.033 52.5377 107.033 51.314Z" fill="#A5ABBD"/>
<path opacity="0.2" d="M99.9355 51.314C99.9355 50.0903 100.915 49.1929 102.057 49.1929C103.199 49.1929 104.178 50.1718 104.178 51.314C104.178 52.5377 103.199 53.435 102.057 53.435C100.915 53.435 99.9355 52.5377 99.9355 51.314Z" fill="#A5ABBD"/>
<path opacity="0.2" d="M92.7568 51.314C92.7568 50.0903 93.7358 49.1929 94.8779 49.1929C96.1016 49.1929 96.999 50.1718 96.999 51.314C96.999 52.5377 96.02 53.435 94.8779 53.435C93.7358 53.5166 92.7568 52.5377 92.7568 51.314Z" fill="#A5ABBD"/>
<path opacity="0.2" d="M85.6602 51.314C85.6602 50.0903 86.6391 49.1929 87.7812 49.1929C89.005 49.1929 89.9023 50.1718 89.9023 51.314C89.9023 52.5377 88.9234 53.435 87.7812 53.435C86.6391 53.5166 85.6602 52.5377 85.6602 51.314Z" fill="#A5ABBD"/>
<path opacity="0.2" d="M78.5625 51.314C78.5625 50.0903 79.5415 49.1929 80.6836 49.1929C81.9073 49.1929 82.8047 50.1718 82.8047 51.314C82.8047 52.5377 81.8257 53.435 80.6836 53.435C79.5415 53.5166 78.5625 52.5377 78.5625 51.314Z" fill="#A5ABBD"/>
<path opacity="0.2" d="M71.3828 51.314C71.3828 50.0903 72.3618 49.1929 73.5039 49.1929C74.646 49.1929 75.625 50.1718 75.625 51.314C75.625 52.5377 74.646 53.435 73.5039 53.435C72.3618 53.435 71.3828 52.5377 71.3828 51.314Z" fill="#A5ABBD"/>
<path opacity="0.2" d="M64.2852 51.314C64.2852 50.0903 65.2641 49.1929 66.4062 49.1929C67.5484 49.1929 68.5273 50.1718 68.5273 51.314C68.5273 52.5377 67.5484 53.435 66.4062 53.435C65.2641 53.435 64.2852 52.5377 64.2852 51.314Z" fill="#A5ABBD"/>
<path opacity="0.2" d="M57.1885 51.314C57.1885 50.0903 58.1674 49.1929 59.3096 49.1929C60.4517 49.1929 61.4306 50.1718 61.4306 51.314C61.4306 52.5377 60.4517 53.435 59.3096 53.435C58.1674 53.435 57.1885 52.5377 57.1885 51.314Z" fill="#A5ABBD"/>
<path opacity="0.2" d="M50.0898 51.314C50.0898 50.0903 51.0688 49.1929 52.2109 49.1929C53.4346 49.1929 54.332 50.1718 54.332 51.314C54.332 52.5377 53.3531 53.435 52.2109 53.435C51.0688 53.5166 50.0898 52.5377 50.0898 51.314Z" fill="#A5ABBD"/>
<path opacity="0.2" d="M42.9932 51.314C42.9932 50.0903 43.9721 49.1929 45.1142 49.1929C46.338 49.1929 47.2353 50.1718 47.2353 51.314C47.2353 52.5377 46.2564 53.435 45.1142 53.435C43.8905 53.5166 42.9932 52.5377 42.9932 51.314Z" fill="#A5ABBD"/>
<path opacity="0.2" d="M35.8145 51.314C35.8145 50.0903 36.7934 49.1929 37.9355 49.1929C39.0777 49.1929 40.0566 50.1718 40.0566 51.314C40.0566 52.5377 39.0777 53.435 37.9355 53.435C36.7934 53.435 35.8145 52.5377 35.8145 51.314Z" fill="#A5ABBD"/>
<path opacity="0.2" d="M28.7168 51.314C28.7168 50.0903 29.6958 49.1929 30.8379 49.1929C32.0616 49.1929 32.959 50.1718 32.959 51.314C32.959 52.5377 31.98 53.435 30.8379 53.435C29.6958 53.5166 28.7168 52.5377 28.7168 51.314Z" fill="#A5ABBD"/>
<path opacity="0.2" d="M21.6191 51.314C21.6191 50.0903 22.5981 49.1929 23.7402 49.1929C24.9639 49.1929 25.8613 50.1718 25.8613 51.314C25.8613 52.5377 24.8823 53.435 23.7402 53.435C22.5981 53.5166 21.6191 52.5377 21.6191 51.314Z" fill="#A5ABBD"/>
<path opacity="0.2" d="M14.5215 51.314C14.5215 50.0903 15.5004 49.1929 16.6426 49.1929C17.8663 49.1929 18.7637 50.1718 18.7637 51.314C18.7637 52.5377 17.7847 53.435 16.6426 53.435C15.4189 53.5166 14.5215 52.5377 14.5215 51.314Z" fill="#A5ABBD"/>
<path opacity="0.2" d="M156.879 43.1558C156.879 41.9321 157.858 41.0347 159 41.0347C160.224 41.0347 161.121 42.0136 161.121 43.1558C161.121 44.3795 160.142 45.2768 159 45.2768C157.776 45.2768 156.879 44.2979 156.879 43.1558Z" fill="#A5ABBD"/>
<path opacity="0.2" d="M149.699 43.1557C149.699 41.932 150.678 41.0346 151.82 41.0346C153.044 41.0346 153.941 42.0136 153.941 43.1557C153.941 44.3794 152.962 45.2768 151.82 45.2768C150.678 45.2768 149.699 44.2978 149.699 43.1557Z" fill="#A5ABBD"/>
<path opacity="0.2" d="M142.603 43.1557C142.603 41.932 143.582 41.0346 144.724 41.0346C145.947 41.0346 146.845 42.0136 146.845 43.1557C146.845 44.3794 145.866 45.2768 144.724 45.2768C143.582 45.2768 142.603 44.2978 142.603 43.1557Z" fill="#A5ABBD"/>
<path opacity="0.2" d="M135.505 43.1557C135.505 41.932 136.484 41.0346 137.626 41.0346C138.85 41.0346 139.747 42.0136 139.747 43.1557C139.747 44.3794 138.768 45.2768 137.626 45.2768C136.484 45.2768 135.505 44.2978 135.505 43.1557Z" fill="#A5ABBD"/>
<path opacity="0.2" d="M128.408 43.1557C128.408 41.932 129.387 41.0346 130.529 41.0346C131.753 41.0346 132.65 42.0136 132.65 43.1557C132.65 44.3794 131.671 45.2768 130.529 45.2768C129.306 45.2768 128.408 44.2978 128.408 43.1557Z" fill="#A5ABBD"/>
<path opacity="0.2" d="M121.229 43.1557C121.229 41.932 122.207 41.0346 123.35 41.0346C124.573 41.0346 125.471 42.0136 125.471 43.1557C125.471 44.3794 124.492 45.2768 123.35 45.2768C122.207 45.2768 121.229 44.2978 121.229 43.1557Z" fill="#A5ABBD"/>
<path opacity="0.2" d="M114.131 43.1557C114.131 41.932 115.11 41.0346 116.252 41.0346C117.476 41.0346 118.373 42.0136 118.373 43.1557C118.373 44.3794 117.394 45.2768 116.252 45.2768C115.11 45.2768 114.131 44.2978 114.131 43.1557Z" fill="#A5ABBD"/>
<path opacity="0.2" d="M107.033 43.1557C107.033 41.932 108.012 41.0346 109.154 41.0346C110.378 41.0346 111.275 42.0136 111.275 43.1557C111.275 44.3794 110.296 45.2768 109.154 45.2768C108.012 45.2768 107.033 44.2978 107.033 43.1557Z" fill="#A5ABBD"/>
<path opacity="0.2" d="M99.9355 43.1557C99.9355 41.932 100.915 41.0346 102.057 41.0346C103.199 41.0346 104.178 42.0136 104.178 43.1557C104.178 44.3794 103.199 45.2768 102.057 45.2768C100.915 45.2768 99.9355 44.2978 99.9355 43.1557Z" fill="#A5ABBD"/>
<path opacity="0.2" d="M92.7568 43.1557C92.7568 41.932 93.7358 41.0346 94.8779 41.0346C96.1016 41.0346 96.999 42.0136 96.999 43.1557C96.999 44.3794 96.02 45.2768 94.8779 45.2768C93.7358 45.2768 92.7568 44.2978 92.7568 43.1557Z" fill="#A5ABBD"/>
<path opacity="0.2" d="M85.6602 43.1558C85.6602 41.9321 86.6391 41.0347 87.7812 41.0347C89.005 41.0347 89.9023 42.0136 89.9023 43.1558C89.9023 44.3795 88.9234 45.2768 87.7812 45.2768C86.6391 45.2768 85.6602 44.2979 85.6602 43.1558Z" fill="#A5ABBD"/>
<path opacity="0.2" d="M78.5625 43.1557C78.5625 41.932 79.5415 41.0346 80.6836 41.0346C81.9073 41.0346 82.8047 42.0136 82.8047 43.1557C82.8047 44.3794 81.8257 45.2768 80.6836 45.2768C79.5415 45.2768 78.5625 44.2978 78.5625 43.1557Z" fill="#A5ABBD"/>
<path opacity="0.2" d="M71.3828 43.1557C71.3828 41.932 72.3618 41.0346 73.5039 41.0346C74.646 41.0346 75.625 42.0136 75.625 43.1557C75.625 44.3794 74.646 45.2768 73.5039 45.2768C72.3618 45.2768 71.3828 44.2978 71.3828 43.1557Z" fill="#A5ABBD"/>
<path opacity="0.2" d="M64.2852 43.1557C64.2852 41.932 65.2641 41.0346 66.4062 41.0346C67.5484 41.0346 68.5273 42.0136 68.5273 43.1557C68.5273 44.3794 67.5484 45.2768 66.4062 45.2768C65.2641 45.2768 64.2852 44.2978 64.2852 43.1557Z" fill="#A5ABBD"/>
<path opacity="0.2" d="M57.1885 43.1557C57.1885 41.932 58.1674 41.0346 59.3096 41.0346C60.4517 41.0346 61.4306 42.0136 61.4306 43.1557C61.4306 44.3794 60.4517 45.2768 59.3096 45.2768C58.1674 45.2768 57.1885 44.2978 57.1885 43.1557Z" fill="#A5ABBD"/>
<path opacity="0.2" d="M50.0898 43.1557C50.0898 41.932 51.0688 41.0346 52.2109 41.0346C53.4346 41.0346 54.332 42.0136 54.332 43.1557C54.332 44.3794 53.3531 45.2768 52.2109 45.2768C51.0688 45.2768 50.0898 44.2978 50.0898 43.1557Z" fill="#A5ABBD"/>
<path opacity="0.2" d="M42.9932 43.1557C42.9932 41.932 43.9721 41.0346 45.1142 41.0346C46.338 41.0346 47.2353 42.0136 47.2353 43.1557C47.2353 44.3794 46.2564 45.2768 45.1142 45.2768C43.8905 45.2768 42.9932 44.2978 42.9932 43.1557Z" fill="#A5ABBD"/>
<path opacity="0.2" d="M35.8145 43.1558C35.8145 41.9321 36.7934 41.0347 37.9355 41.0347C39.0777 41.0347 40.0566 42.0136 40.0566 43.1558C40.0566 44.3795 39.0777 45.2768 37.9355 45.2768C36.7934 45.2768 35.8145 44.2979 35.8145 43.1558Z" fill="#A5ABBD"/>
<path opacity="0.2" d="M28.7168 43.1557C28.7168 41.932 29.6958 41.0346 30.8379 41.0346C32.0616 41.0346 32.959 42.0136 32.959 43.1557C32.959 44.3794 31.98 45.2768 30.8379 45.2768C29.6958 45.2768 28.7168 44.2978 28.7168 43.1557Z" fill="#A5ABBD"/>
<path opacity="0.2" d="M21.6191 43.1558C21.6191 41.9321 22.5981 41.0347 23.7402 41.0347C24.9639 41.0347 25.8613 42.0136 25.8613 43.1558C25.8613 44.3795 24.8823 45.2768 23.7402 45.2768C22.5981 45.2768 21.6191 44.2979 21.6191 43.1558Z" fill="#A5ABBD"/>
<path opacity="0.2" d="M14.5215 43.1558C14.5215 41.9321 15.5004 41.0347 16.6426 41.0347C17.8663 41.0347 18.7637 42.0136 18.7637 43.1558C18.7637 44.3795 17.7847 45.2768 16.6426 45.2768C15.4189 45.2768 14.5215 44.2979 14.5215 43.1558Z" fill="#A5ABBD"/>
<path opacity="0.2" d="M149.7 34.9164C149.7 33.6927 150.679 32.7953 151.821 32.7953C153.045 32.7953 153.942 33.7743 153.942 34.9164C153.942 36.1401 152.963 37.0375 151.821 37.0375C150.679 37.1191 149.7 36.1401 149.7 34.9164Z" fill="#A5ABBD"/>
<path opacity="0.2" d="M142.603 34.9164C142.603 33.6927 143.582 32.7953 144.724 32.7953C145.947 32.7953 146.845 33.7743 146.845 34.9164C146.845 36.1401 145.866 37.0375 144.724 37.0375C143.582 37.1191 142.603 36.1401 142.603 34.9164Z" fill="#A5ABBD"/>
<path opacity="0.2" d="M135.506 34.9164C135.506 33.6927 136.485 32.7953 137.627 32.7953C138.851 32.7953 139.748 33.7743 139.748 34.9164C139.748 36.1401 138.769 37.0375 137.627 37.0375C136.485 37.1191 135.506 36.1401 135.506 34.9164Z" fill="#A5ABBD"/>
<path opacity="0.2" d="M128.407 34.9164C128.407 33.6927 129.386 32.7953 130.528 32.7953C131.752 32.7953 132.649 33.7743 132.649 34.9164C132.649 36.1401 131.67 37.0375 130.528 37.0375C129.305 37.1191 128.407 36.1401 128.407 34.9164Z" fill="#A5ABBD"/>
<path opacity="0.2" d="M121.229 34.9164C121.229 33.6927 122.207 32.7953 123.35 32.7953C124.573 32.7953 125.471 33.7743 125.471 34.9164C125.471 36.1401 124.492 37.0375 123.35 37.0375C122.207 37.1191 121.229 36.1401 121.229 34.9164Z" fill="#A5ABBD"/>
<path opacity="0.2" d="M114.131 34.9164C114.131 33.6927 115.11 32.7953 116.252 32.7953C117.476 32.7953 118.373 33.7743 118.373 34.9164C118.373 36.1401 117.394 37.0375 116.252 37.0375C115.11 37.1191 114.131 36.1401 114.131 34.9164Z" fill="#A5ABBD"/>
<path opacity="0.2" d="M107.033 34.9164C107.033 33.6927 108.012 32.7953 109.154 32.7953C110.378 32.7953 111.275 33.7743 111.275 34.9164C111.275 36.1401 110.296 37.0375 109.154 37.0375C108.012 37.1191 107.033 36.1401 107.033 34.9164Z" fill="#A5ABBD"/>
<path opacity="0.2" d="M99.9365 34.9164C99.9365 33.6927 100.915 32.7953 102.058 32.7953C103.2 32.7953 104.179 33.7743 104.179 34.9164C104.179 36.1401 103.2 37.0375 102.058 37.0375C100.915 37.0375 99.9365 36.1401 99.9365 34.9164Z" fill="#A5ABBD"/>
<path opacity="0.2" d="M92.7568 34.9164C92.7568 33.6927 93.7358 32.7953 94.8779 32.7953C96.1016 32.7953 96.999 33.7743 96.999 34.9164C96.999 36.1401 96.02 37.0375 94.8779 37.0375C93.7358 37.1191 92.7568 36.1401 92.7568 34.9164Z" fill="#A5ABBD"/>
<path opacity="0.2" d="M85.6602 34.9164C85.6602 33.6927 86.6391 32.7953 87.7812 32.7953C89.005 32.7953 89.9023 33.7743 89.9023 34.9164C89.9023 36.1401 88.9234 37.0375 87.7812 37.0375C86.6391 37.1191 85.6602 36.1401 85.6602 34.9164Z" fill="#A5ABBD"/>
<path opacity="0.2" d="M78.5625 34.9164C78.5625 33.6927 79.5415 32.7953 80.6836 32.7953C81.9073 32.7953 82.8047 33.7743 82.8047 34.9164C82.8047 36.1401 81.8257 37.0375 80.6836 37.0375C79.5415 37.1191 78.5625 36.1401 78.5625 34.9164Z" fill="#A5ABBD"/>
<path opacity="0.2" d="M71.3828 34.9164C71.3828 33.6927 72.3618 32.7953 73.5039 32.7953C74.646 32.7953 75.625 33.7743 75.625 34.9164C75.625 36.1401 74.646 37.0375 73.5039 37.0375C72.3618 37.0375 71.3828 36.1401 71.3828 34.9164Z" fill="#A5ABBD"/>
<path opacity="0.2" d="M64.2861 34.9164C64.2861 33.6927 65.2651 32.7953 66.4072 32.7953C67.5493 32.7953 68.5283 33.7743 68.5283 34.9164C68.5283 36.1401 67.5493 37.0375 66.4072 37.0375C65.2651 37.0375 64.2861 36.1401 64.2861 34.9164Z" fill="#A5ABBD"/>
<path opacity="0.2" d="M57.1875 34.9164C57.1875 33.6927 58.1665 32.7953 59.3086 32.7953C60.4507 32.7953 61.4297 33.7743 61.4297 34.9164C61.4297 36.1401 60.4507 37.0375 59.3086 37.0375C58.1665 37.0375 57.1875 36.1401 57.1875 34.9164Z" fill="#A5ABBD"/>
<path opacity="0.2" d="M50.0908 34.9164C50.0908 33.6927 51.0698 32.7953 52.2119 32.7953C53.4356 32.7953 54.333 33.7743 54.333 34.9164C54.333 36.1401 53.354 37.0375 52.2119 37.0375C51.0698 37.1191 50.0908 36.1401 50.0908 34.9164Z" fill="#A5ABBD"/>
<path opacity="0.2" d="M42.9932 34.9164C42.9932 33.6927 43.9721 32.7953 45.1142 32.7953C46.338 32.7953 47.2353 33.7743 47.2353 34.9164C47.2353 36.1401 46.2564 37.0375 45.1142 37.0375C43.8905 37.1191 42.9932 36.1401 42.9932 34.9164Z" fill="#A5ABBD"/>
<path opacity="0.2" d="M35.8145 34.9164C35.8145 33.6927 36.7934 32.7953 37.9355 32.7953C39.0777 32.7953 40.0566 33.7743 40.0566 34.9164C40.0566 36.1401 39.0777 37.0375 37.9355 37.0375C36.7934 37.0375 35.8145 36.1401 35.8145 34.9164Z" fill="#A5ABBD"/>
<path opacity="0.2" d="M28.7168 34.9164C28.7168 33.6927 29.6958 32.7953 30.8379 32.7953C32.0616 32.7953 32.959 33.7743 32.959 34.9164C32.959 36.1401 31.98 37.0375 30.8379 37.0375C29.6958 37.1191 28.7168 36.1401 28.7168 34.9164Z" fill="#A5ABBD"/>
<path opacity="0.2" d="M21.6191 34.9164C21.6191 33.6927 22.5981 32.7953 23.7402 32.7953C24.9639 32.7953 25.8613 33.7743 25.8613 34.9164C25.8613 36.1401 24.8823 37.0375 23.7402 37.0375C22.5981 37.1191 21.6191 36.1401 21.6191 34.9164Z" fill="#A5ABBD"/>
<path opacity="0.2" d="M142.604 26.7584C142.604 25.5347 143.582 24.6373 144.725 24.6373C145.948 24.6373 146.846 25.6163 146.846 26.7584C146.846 27.9821 145.867 28.8795 144.725 28.8795C143.582 28.8795 142.604 27.9005 142.604 26.7584Z" fill="#A5ABBD"/>
<path opacity="0.2" d="M135.505 26.7584C135.505 25.5347 136.484 24.6373 137.626 24.6373C138.85 24.6373 139.747 25.6163 139.747 26.7584C139.747 27.9821 138.768 28.8795 137.626 28.8795C136.484 28.8795 135.505 27.9005 135.505 26.7584Z" fill="#A5ABBD"/>
<path opacity="0.2" d="M128.408 26.7584C128.408 25.5347 129.387 24.6373 130.529 24.6373C131.753 24.6373 132.65 25.6163 132.65 26.7584C132.65 27.9821 131.671 28.8795 130.529 28.8795C129.306 28.8795 128.408 27.9005 128.408 26.7584Z" fill="#A5ABBD"/>
<path opacity="0.2" d="M121.229 26.7584C121.229 25.5346 122.207 24.6373 123.35 24.6373C124.573 24.6373 125.471 25.6162 125.471 26.7584C125.471 27.9821 124.492 28.8794 123.35 28.8794C122.207 28.8794 121.229 27.9005 121.229 26.7584Z" fill="#A5ABBD"/>
<path opacity="0.2" d="M114.131 26.7584C114.131 25.5347 115.11 24.6373 116.252 24.6373C117.476 24.6373 118.373 25.6163 118.373 26.7584C118.373 27.9821 117.394 28.8795 116.252 28.8795C115.11 28.8795 114.131 27.9005 114.131 26.7584Z" fill="#A5ABBD"/>
<path opacity="0.2" d="M107.033 26.7584C107.033 25.5346 108.012 24.6373 109.154 24.6373C110.378 24.6373 111.275 25.6162 111.275 26.7584C111.275 27.9821 110.296 28.8794 109.154 28.8794C108.012 28.8794 107.033 27.9005 107.033 26.7584Z" fill="#A5ABBD"/>
<path opacity="0.2" d="M99.9365 26.7584C99.9365 25.5347 100.915 24.6373 102.058 24.6373C103.2 24.6373 104.179 25.6163 104.179 26.7584C104.179 27.9821 103.2 28.8795 102.058 28.8795C100.915 28.8795 99.9365 27.9005 99.9365 26.7584Z" fill="#A5ABBD"/>
<path opacity="0.2" d="M92.7578 26.7584C92.7578 25.5347 93.7368 24.6373 94.8789 24.6373C96.1026 24.6373 97 25.6163 97 26.7584C97 27.9821 96.021 28.8795 94.8789 28.8795C93.7368 28.8795 92.7578 27.9005 92.7578 26.7584Z" fill="#A5ABBD"/>
<path opacity="0.2" d="M85.6602 26.7584C85.6602 25.5347 86.6391 24.6373 87.7812 24.6373C89.005 24.6373 89.9023 25.6163 89.9023 26.7584C89.9023 27.9821 88.9234 28.8795 87.7812 28.8795C86.6391 28.8795 85.6602 27.9005 85.6602 26.7584Z" fill="#A5ABBD"/>
<path opacity="0.2" d="M78.5625 26.7584C78.5625 25.5347 79.5415 24.6373 80.6836 24.6373C81.9073 24.6373 82.8047 25.6163 82.8047 26.7584C82.8047 27.9821 81.8257 28.8795 80.6836 28.8795C79.5415 28.8795 78.5625 27.9005 78.5625 26.7584Z" fill="#A5ABBD"/>
<path opacity="0.2" d="M71.3838 26.7584C71.3838 25.5347 72.3628 24.6373 73.5049 24.6373C74.647 24.6373 75.626 25.6163 75.626 26.7584C75.626 27.9821 74.647 28.8795 73.5049 28.8795C72.3628 28.8795 71.3838 27.9005 71.3838 26.7584Z" fill="#A5ABBD"/>
<path opacity="0.2" d="M64.2852 26.7584C64.2852 25.5347 65.2641 24.6373 66.4062 24.6373C67.5484 24.6373 68.5273 25.6163 68.5273 26.7584C68.5273 27.9821 67.5484 28.8795 66.4062 28.8795C65.2641 28.8795 64.2852 27.9005 64.2852 26.7584Z" fill="#A5ABBD"/>
<path opacity="0.2" d="M57.1885 26.7584C57.1885 25.5347 58.1674 24.6373 59.3096 24.6373C60.4517 24.6373 61.4306 25.6163 61.4306 26.7584C61.4306 27.9821 60.4517 28.8795 59.3096 28.8795C58.1674 28.8795 57.1885 27.9005 57.1885 26.7584Z" fill="#A5ABBD"/>
<path opacity="0.2" d="M50.0908 26.7584C50.0908 25.5347 51.0698 24.6373 52.2119 24.6373C53.4356 24.6373 54.333 25.6163 54.333 26.7584C54.333 27.9821 53.354 28.8795 52.2119 28.8795C51.0698 28.8795 50.0908 27.9005 50.0908 26.7584Z" fill="#A5ABBD"/>
<path opacity="0.2" d="M42.9932 26.7584C42.9932 25.5347 43.9721 24.6373 45.1142 24.6373C46.338 24.6373 47.2353 25.6163 47.2353 26.7584C47.2353 27.9821 46.2564 28.8795 45.1142 28.8795C43.8905 28.8795 42.9932 27.9005 42.9932 26.7584Z" fill="#A5ABBD"/>
<path opacity="0.2" d="M35.8145 26.7584C35.8145 25.5346 36.7934 24.6373 37.9355 24.6373C39.0777 24.6373 40.0566 25.6162 40.0566 26.7584C40.0566 27.9821 39.0777 28.8794 37.9355 28.8794C36.7934 28.8794 35.8145 27.9005 35.8145 26.7584Z" fill="#A5ABBD"/>
<path opacity="0.2" d="M28.7168 26.7584C28.7168 25.5346 29.6958 24.6373 30.8379 24.6373C32.0616 24.6373 32.959 25.6162 32.959 26.7584C32.959 27.9821 31.98 28.8794 30.8379 28.8794C29.6958 28.8794 28.7168 27.9005 28.7168 26.7584Z" fill="#A5ABBD"/>
<path opacity="0.2" d="M135.506 18.5185C135.506 17.2948 136.485 16.3975 137.627 16.3975C138.851 16.3975 139.748 17.3764 139.748 18.5185C139.748 19.7423 138.769 20.6396 137.627 20.6396C136.485 20.7212 135.506 19.7423 135.506 18.5185Z" fill="#A5ABBD"/>
<path opacity="0.2" d="M128.408 18.5185C128.408 17.2948 129.387 16.3975 130.529 16.3975C131.753 16.3975 132.65 17.3764 132.65 18.5185C132.65 19.7423 131.671 20.6396 130.529 20.6396C129.306 20.7212 128.408 19.7423 128.408 18.5185Z" fill="#A5ABBD"/>
<path opacity="0.2" d="M121.229 18.5185C121.229 17.2948 122.207 16.3975 123.35 16.3975C124.573 16.3975 125.471 17.3764 125.471 18.5185C125.471 19.7423 124.492 20.6396 123.35 20.6396C122.207 20.7212 121.229 19.7423 121.229 18.5185Z" fill="#A5ABBD"/>
<path opacity="0.2" d="M114.132 18.5185C114.132 17.2948 115.111 16.3975 116.253 16.3975C117.477 16.3975 118.374 17.3764 118.374 18.5185C118.374 19.7423 117.395 20.6396 116.253 20.6396C115.111 20.7212 114.132 19.7423 114.132 18.5185Z" fill="#A5ABBD"/>
<path opacity="0.2" d="M107.034 18.5185C107.034 17.2948 108.013 16.3975 109.155 16.3975C110.379 16.3975 111.276 17.3764 111.276 18.5185C111.276 19.7423 110.297 20.6396 109.155 20.6396C108.013 20.7212 107.034 19.7423 107.034 18.5185Z" fill="#A5ABBD"/>
<path opacity="0.2" d="M99.9365 18.5185C99.9365 17.2948 100.915 16.3975 102.058 16.3975C103.2 16.3975 104.179 17.3764 104.179 18.5185C104.179 19.7423 103.2 20.6396 102.058 20.6396C100.915 20.6396 99.9365 19.7423 99.9365 18.5185Z" fill="#A5ABBD"/>
<path opacity="0.2" d="M92.7578 18.5185C92.7578 17.2948 93.7368 16.3975 94.8789 16.3975C96.1026 16.3975 97 17.3764 97 18.5185C97 19.7423 96.021 20.6396 94.8789 20.6396C93.7368 20.7212 92.7578 19.7423 92.7578 18.5185Z" fill="#A5ABBD"/>
<path opacity="0.2" d="M85.6602 18.5185C85.6602 17.2948 86.6391 16.3975 87.7812 16.3975C89.005 16.3975 89.9023 17.3764 89.9023 18.5185C89.9023 19.7423 88.9234 20.6396 87.7812 20.6396C86.6391 20.7212 85.6602 19.7423 85.6602 18.5185Z" fill="#A5ABBD"/>
<path opacity="0.2" d="M78.5625 18.5185C78.5625 17.2948 79.5415 16.3975 80.6836 16.3975C81.9073 16.3975 82.8047 17.3764 82.8047 18.5185C82.8047 19.7423 81.8257 20.6396 80.6836 20.6396C79.5415 20.7212 78.5625 19.7423 78.5625 18.5185Z" fill="#A5ABBD"/>
<path opacity="0.2" d="M71.3828 18.5185C71.3828 17.2948 72.3618 16.3975 73.5039 16.3975C74.646 16.3975 75.625 17.3764 75.625 18.5185C75.625 19.7423 74.646 20.6396 73.5039 20.6396C72.3618 20.6396 71.3828 19.7423 71.3828 18.5185Z" fill="#A5ABBD"/>
<path opacity="0.2" d="M64.2861 18.5185C64.2861 17.2948 65.2651 16.3975 66.4072 16.3975C67.5493 16.3975 68.5283 17.3764 68.5283 18.5185C68.5283 19.7423 67.5493 20.6396 66.4072 20.6396C65.2651 20.6396 64.2861 19.7423 64.2861 18.5185Z" fill="#A5ABBD"/>
<path opacity="0.2" d="M57.1885 18.5185C57.1885 17.2948 58.1674 16.3975 59.3096 16.3975C60.4517 16.3975 61.4306 17.3764 61.4306 18.5185C61.4306 19.7423 60.4517 20.6396 59.3096 20.6396C58.1674 20.6396 57.1885 19.7423 57.1885 18.5185Z" fill="#A5ABBD"/>
<path opacity="0.2" d="M50.0918 18.5185C50.0918 17.2948 51.0708 16.3975 52.2129 16.3975C53.4366 16.3975 54.334 17.3764 54.334 18.5185C54.334 19.7423 53.355 20.6396 52.2129 20.6396C51.0708 20.7212 50.0918 19.7423 50.0918 18.5185Z" fill="#A5ABBD"/>
<path opacity="0.2" d="M42.9932 18.5185C42.9932 17.2948 43.9721 16.3975 45.1142 16.3975C46.338 16.3975 47.2353 17.3764 47.2353 18.5185C47.2353 19.7423 46.2564 20.6396 45.1142 20.6396C43.8905 20.7212 42.9932 19.7423 42.9932 18.5185Z" fill="#A5ABBD"/>
<path opacity="0.2" d="M35.8145 18.5185C35.8145 17.2948 36.7934 16.3975 37.9355 16.3975C39.0777 16.3975 40.0566 17.3764 40.0566 18.5185C40.0566 19.7423 39.0777 20.6396 37.9355 20.6396C36.7934 20.6396 35.8145 19.7423 35.8145 18.5185Z" fill="#A5ABBD"/>
<path opacity="0.2" d="M121.229 10.3608C121.229 9.13713 122.207 8.23975 123.35 8.23975C124.573 8.23975 125.471 9.21871 125.471 10.3608C125.471 11.5845 124.492 12.4819 123.35 12.4819C122.207 12.4819 121.229 11.503 121.229 10.3608Z" fill="#A5ABBD"/>
<path opacity="0.2" d="M114.131 10.3608C114.131 9.13713 115.11 8.23975 116.252 8.23975C117.476 8.23975 118.373 9.21871 118.373 10.3608C118.373 11.5845 117.394 12.4819 116.252 12.4819C115.11 12.4819 114.131 11.503 114.131 10.3608Z" fill="#A5ABBD"/>
<path opacity="0.2" d="M107.033 10.3608C107.033 9.13713 108.012 8.23975 109.154 8.23975C110.378 8.23975 111.275 9.21871 111.275 10.3608C111.275 11.5845 110.296 12.4819 109.154 12.4819C108.012 12.4819 107.033 11.503 107.033 10.3608Z" fill="#A5ABBD"/>
<path opacity="0.2" d="M99.9365 10.3608C99.9365 9.13713 100.915 8.23975 102.058 8.23975C103.2 8.23975 104.179 9.21871 104.179 10.3608C104.179 11.5845 103.2 12.4819 102.058 12.4819C100.915 12.4819 99.9365 11.503 99.9365 10.3608Z" fill="#A5ABBD"/>
<path opacity="0.2" d="M92.7578 10.3608C92.7578 9.13713 93.7368 8.23975 94.8789 8.23975C96.1026 8.23975 97 9.21871 97 10.3608C97 11.5845 96.021 12.4819 94.8789 12.4819C93.7368 12.4819 92.7578 11.503 92.7578 10.3608Z" fill="#A5ABBD"/>
<path opacity="0.2" d="M85.6602 10.3608C85.6602 9.13713 86.6391 8.23975 87.7812 8.23975C89.005 8.23975 89.9023 9.21871 89.9023 10.3608C89.9023 11.5845 88.9234 12.4819 87.7812 12.4819C86.6391 12.4819 85.6602 11.503 85.6602 10.3608Z" fill="#A5ABBD"/>
<path opacity="0.2" d="M78.5625 10.3608C78.5625 9.13713 79.5415 8.23975 80.6836 8.23975C81.9073 8.23975 82.8047 9.21871 82.8047 10.3608C82.8047 11.5845 81.8257 12.4819 80.6836 12.4819C79.5415 12.4819 78.5625 11.503 78.5625 10.3608Z" fill="#A5ABBD"/>
<path opacity="0.2" d="M71.3838 10.3608C71.3838 9.13713 72.3628 8.23975 73.5049 8.23975C74.647 8.23975 75.626 9.21871 75.626 10.3608C75.626 11.5845 74.647 12.4819 73.5049 12.4819C72.3628 12.4819 71.3838 11.503 71.3838 10.3608Z" fill="#A5ABBD"/>
<path opacity="0.2" d="M64.2852 10.3608C64.2852 9.13713 65.2641 8.23975 66.4062 8.23975C67.5484 8.23975 68.5273 9.21871 68.5273 10.3608C68.5273 11.5845 67.5484 12.4819 66.4062 12.4819C65.2641 12.4819 64.2852 11.503 64.2852 10.3608Z" fill="#A5ABBD"/>
<path opacity="0.2" d="M57.1885 10.3608C57.1885 9.13713 58.1674 8.23975 59.3096 8.23975C60.4517 8.23975 61.4306 9.21871 61.4306 10.3608C61.4306 11.5845 60.4517 12.4819 59.3096 12.4819C58.1674 12.4819 57.1885 11.503 57.1885 10.3608Z" fill="#A5ABBD"/>
<path opacity="0.2" d="M50.0908 10.3608C50.0908 9.13713 51.0698 8.23975 52.2119 8.23975C53.4356 8.23975 54.333 9.21871 54.333 10.3608C54.333 11.5845 53.354 12.4819 52.2119 12.4819C51.0698 12.4819 50.0908 11.503 50.0908 10.3608Z" fill="#A5ABBD"/>
<path opacity="0.2" d="M107.033 2.12109C107.033 0.897382 108.012 0 109.154 0C110.378 0 111.275 0.978963 111.275 2.12109C111.275 3.34479 110.296 4.24217 109.154 4.24217C108.012 4.32375 107.033 3.34479 107.033 2.12109Z" fill="#A5ABBD"/>
<path opacity="0.2" d="M99.9355 2.12109C99.9355 0.897382 100.915 0 102.057 0C103.199 0 104.178 0.978963 104.178 2.12109C104.178 3.34479 103.199 4.24217 102.057 4.24217C100.915 4.24217 99.9355 3.34479 99.9355 2.12109Z" fill="#A5ABBD"/>
<path opacity="0.2" d="M92.7568 2.12109C92.7568 0.897382 93.7358 0 94.8779 0C96.1016 0 96.999 0.978963 96.999 2.12109C96.999 3.34479 96.02 4.24217 94.8779 4.24217C93.7358 4.32375 92.7568 3.34479 92.7568 2.12109Z" fill="#A5ABBD"/>
<path opacity="0.2" d="M85.6592 2.12109C85.6592 0.897382 86.6381 0 87.7803 0C89.004 0 89.9014 0.978963 89.9014 2.12109C89.9014 3.34479 88.9224 4.24217 87.7803 4.24217C86.6381 4.32375 85.6592 3.34479 85.6592 2.12109Z" fill="#A5ABBD"/>
<path opacity="0.2" d="M78.5615 2.12109C78.5615 0.978963 79.5405 0 80.6826 0C81.9063 0 82.8037 0.978963 82.8037 2.12109C82.8037 3.34479 81.8247 4.24217 80.6826 4.24217C79.5405 4.32375 78.5615 3.34479 78.5615 2.12109Z" fill="#A5ABBD"/>
<path opacity="0.2" d="M71.3828 2.12109C71.3828 0.897382 72.3618 0 73.5039 0C74.646 0 75.625 0.978963 75.625 2.12109C75.625 3.34479 74.646 4.24217 73.5039 4.24217C72.3618 4.24217 71.3828 3.34479 71.3828 2.12109Z" fill="#A5ABBD"/>
<path opacity="0.2" d="M64.2852 2.12109C64.2852 0.897382 65.2641 0 66.4062 0C67.5484 0 68.5273 0.978963 68.5273 2.12109C68.5273 3.34479 67.5484 4.24217 66.4062 4.24217C65.2641 4.24217 64.2852 3.34479 64.2852 2.12109Z" fill="#A5ABBD"/>
</svg>
