<svg width="27" height="33" viewBox="0 0 27 33" fill="none" xmlns="http://www.w3.org/2000/svg">
<path d="M21.4796 0.602539C18.4349 0.602539 15.9592 3.06935 15.9592 6.10256C15.9592 8.46928 17.4983 10.5693 19.7065 11.3026V14.9027L3.7476 14.9024V21.9358C1.50601 22.6691 0.0003284 24.7691 0.0003284 27.1358C-0.0327869 30.1693 2.44284 32.6025 5.48754 32.6025C8.53224 32.6025 11.0079 30.1357 11.0079 27.1025C11.0079 24.7358 9.46886 22.6358 7.26061 21.9025V18.3359H23.2527V11.2692C25.4943 10.5359 27 8.43585 27 6.06913C27 3.03592 24.5241 0.602687 21.4797 0.602687L21.4796 0.602539Z" fill="#86BE3F"/>
</svg>
