<svg width="32" height="25" viewBox="0 0 32 25" fill="none" xmlns="http://www.w3.org/2000/svg">
<path d="M29.759 0.240967H2.87735C2.28303 0.240967 1.71318 0.476901 1.29277 0.897367C0.872652 1.31749 0.636719 1.88732 0.636719 2.48159V4.72224C0.636719 5.31656 0.872652 5.88677 1.29277 6.30682C1.71324 6.72694 2.28308 6.96322 2.87735 6.96322H29.759C30.3534 6.96322 30.9232 6.72694 31.3433 6.30682C31.7637 5.8867 31.9997 5.31651 31.9997 4.72224V2.48159C31.9997 1.88727 31.7637 1.31742 31.3433 0.897367C30.9231 0.476901 30.3533 0.240967 29.759 0.240967ZM26.3998 4.72228C25.9472 4.72228 25.5392 4.44979 25.366 4.03173C25.1929 3.61402 25.2888 3.13282 25.6085 2.81273C25.9286 2.49298 26.4098 2.39709 26.8279 2.57024C27.2456 2.7434 27.5184 3.15144 27.5184 3.60364C27.5184 4.22141 27.0176 4.72224 26.3998 4.72224L26.3998 4.72228Z" fill="#86BE3F"/>
<path d="M29.759 9.20448H2.87735C2.28303 9.20448 1.71318 9.44041 1.29277 9.86088C0.872652 10.281 0.636719 10.8508 0.636719 11.4451V13.6861C0.636719 14.2801 0.872652 14.8503 1.29277 15.2703C1.71324 15.6905 2.28308 15.9267 2.87735 15.9267H29.759C30.354 15.9267 30.9242 15.6901 31.3447 15.2693C31.7652 14.8481 32.0007 14.2773 31.9997 13.6822V11.445C31.9997 10.8507 31.7638 10.2809 31.3433 9.86082C30.9232 9.44035 30.3534 9.20441 29.7591 9.20441L29.759 9.20448ZM26.3998 13.6823C25.9472 13.6823 25.5392 13.4099 25.366 12.9918C25.1929 12.5741 25.2888 12.0929 25.6085 11.7728C25.9286 11.453 26.4098 11.3572 26.8279 11.5303C27.2456 11.7035 27.5184 12.1115 27.5184 12.5637C27.5184 13.1815 27.0176 13.6823 26.3998 13.6823L26.3998 13.6823Z" fill="#86BE3F"/>
<path d="M29.759 18.1636H2.87735C2.28303 18.1636 1.71318 18.3995 1.29277 18.82C0.872652 19.2401 0.636719 19.8099 0.636719 20.4042V22.6452C0.636719 23.2392 0.872652 23.8094 1.29277 24.2294C1.71324 24.6496 2.28308 24.8858 2.87735 24.8858H29.759C30.3534 24.8858 30.9232 24.6496 31.3433 24.2294C31.7637 23.8093 31.9997 23.2391 31.9997 22.6452V20.4042C31.9997 19.8099 31.7637 19.24 31.3433 18.82C30.9231 18.3995 30.3533 18.1636 29.759 18.1636ZM26.3998 22.6453C25.9472 22.6453 25.5392 22.3724 25.366 21.9547C25.1929 21.5367 25.2888 21.0554 25.6085 20.7354C25.9286 20.4156 26.4098 20.3197 26.8279 20.4929C27.2456 20.666 27.5184 21.0741 27.5184 21.5263C27.5184 22.1444 27.0176 22.6452 26.3998 22.6452L26.3998 22.6453Z" fill="#86BE3F"/>
</svg>
