<svg width="163" height="135" viewBox="0 0 163 135" fill="none" xmlns="http://www.w3.org/2000/svg">
<circle cx="58.3487" cy="58.3487" r="58.3487" transform="matrix(-1 0 0 1 116.697 18.1069)" fill="#FCFCFC"/>
<g clip-path="url(#clip0_150_1744)">
<path d="M159.711 4.66394C158.425 4.66394 157.381 3.61988 157.381 2.33197C157.381 1.04406 158.425 0 159.711 0C160.998 0 162.041 1.04406 162.041 2.33197C162.041 3.61988 160.998 4.66394 159.711 4.66394Z" fill="#86BE3F"/>
<path d="M159.711 22.7709C158.425 22.7709 157.381 21.7268 157.381 20.4389C157.381 19.151 158.425 18.1069 159.711 18.1069C160.998 18.1069 162.041 19.151 162.041 20.4389C162.041 21.7268 160.998 22.7709 159.711 22.7709Z" fill="#86BE3F"/>
<path d="M159.711 40.8783C158.425 40.8783 157.381 39.8342 157.381 38.5463C157.381 37.2584 158.425 36.2144 159.711 36.2144C160.998 36.2144 162.041 37.2584 162.041 38.5463C162.041 39.8342 160.998 40.8783 159.711 40.8783Z" fill="#86BE3F"/>
<path d="M159.711 59.1224C158.425 59.1224 157.381 58.0784 157.381 56.7905C157.381 55.5026 158.425 54.4585 159.711 54.4585C160.998 54.4585 162.041 55.5026 162.041 56.7905C162.041 58.0784 160.998 59.1224 159.711 59.1224Z" fill="#86BE3F"/>
<path d="M159.711 77.2294C158.425 77.2294 157.381 76.1853 157.381 74.8974C157.381 73.6095 158.425 72.5654 159.711 72.5654C160.998 72.5654 162.041 73.6095 162.041 74.8974C162.041 76.1853 160.998 77.2294 159.711 77.2294Z" fill="#86BE3F"/>
<path d="M159.711 90.6724C160.945 90.6724 162.041 91.7698 162.041 93.0043C162.041 94.2389 160.945 95.3363 159.711 95.3363C158.478 95.3363 157.381 94.2389 157.381 93.0043C157.381 91.7698 158.341 90.6724 159.711 90.6724Z" fill="#86BE3F"/>
<path d="M143.677 0C144.91 0 146.007 1.0974 146.007 2.33197C146.007 3.56654 144.91 4.66394 143.677 4.66394C142.444 4.66394 141.347 3.56654 141.347 2.33197C141.347 1.0974 142.307 0 143.677 0Z" fill="#86BE3F"/>
<path d="M143.677 18.1069C144.91 18.1069 146.007 19.2043 146.007 20.4389C146.007 21.6735 144.91 22.7709 143.677 22.7709C142.444 22.7709 141.347 21.6735 141.347 20.4389C141.347 19.2043 142.307 18.1069 143.677 18.1069Z" fill="#86BE3F"/>
<path d="M143.677 36.2144C144.91 36.2144 146.007 37.3118 146.007 38.5463C146.007 39.7809 144.91 40.8783 143.677 40.8783C142.444 40.8783 141.347 39.7809 141.347 38.5463C141.347 37.3118 142.307 36.2144 143.677 36.2144Z" fill="#86BE3F"/>
<path d="M143.677 54.4585C144.91 54.4585 146.007 55.5559 146.007 56.7905C146.007 58.025 144.91 59.1224 143.677 59.1224C142.444 59.1224 141.347 58.025 141.347 56.7905C141.347 55.4187 142.307 54.4585 143.677 54.4585Z" fill="#86BE3F"/>
<path d="M143.677 72.5654C144.91 72.5654 146.007 73.6628 146.007 74.8974C146.007 76.132 144.91 77.2294 143.677 77.2294C142.444 77.2294 141.347 76.132 141.347 74.8974C141.347 73.5257 142.307 72.5654 143.677 72.5654Z" fill="#86BE3F"/>
<path d="M143.677 90.6724C144.91 90.6724 146.007 91.7698 146.007 93.0043C146.007 94.2389 144.91 95.3363 143.677 95.3363C142.444 95.3363 141.347 94.2389 141.347 93.0043C141.347 91.7698 142.307 90.6724 143.677 90.6724Z" fill="#86BE3F"/>
<path d="M127.643 0C128.876 0 129.973 1.0974 129.973 2.33197C129.973 3.56654 128.876 4.66394 127.643 4.66394C126.409 4.66394 125.313 3.56654 125.313 2.33197C125.313 1.0974 126.272 0 127.643 0Z" fill="#86BE3F"/>
<path d="M127.643 18.1069C128.876 18.1069 129.973 19.2043 129.973 20.4389C129.973 21.6735 128.876 22.7709 127.643 22.7709C126.409 22.7709 125.313 21.6735 125.313 20.4389C125.313 19.2043 126.272 18.1069 127.643 18.1069Z" fill="#86BE3F"/>
<path d="M127.643 36.2144C128.876 36.2144 129.973 37.3118 129.973 38.5463C129.973 39.7809 128.876 40.8783 127.643 40.8783C126.409 40.8783 125.313 39.7809 125.313 38.5463C125.313 37.3118 126.272 36.2144 127.643 36.2144Z" fill="#86BE3F"/>
<path d="M127.643 54.4585C128.876 54.4585 129.973 55.5559 129.973 56.7905C129.973 58.025 128.876 59.1224 127.643 59.1224C126.409 59.1224 125.313 58.025 125.313 56.7905C125.313 55.4187 126.272 54.4585 127.643 54.4585Z" fill="#86BE3F"/>
<path d="M127.643 72.5654C128.876 72.5654 129.973 73.6628 129.973 74.8974C129.973 76.132 128.876 77.2294 127.643 77.2294C126.409 77.2294 125.313 76.132 125.313 74.8974C125.313 73.5257 126.272 72.5654 127.643 72.5654Z" fill="#86BE3F"/>
<path d="M127.643 90.6724C128.876 90.6724 129.973 91.7698 129.973 93.0043C129.973 94.2389 128.876 95.3363 127.643 95.3363C126.409 95.3363 125.313 94.2389 125.313 93.0043C125.313 91.7698 126.272 90.6724 127.643 90.6724Z" fill="#86BE3F"/>
</g>
<g clip-path="url(#clip1_150_1744)">
<path d="M114.368 4.66394C113.081 4.66394 112.038 3.61988 112.038 2.33197C112.038 1.04406 113.081 0 114.368 0C115.654 0 116.697 1.04406 116.697 2.33197C116.697 3.61988 115.654 4.66394 114.368 4.66394Z" fill="#86BE3F"/>
<path d="M114.368 22.7709C113.081 22.7709 112.038 21.7268 112.038 20.4389C112.038 19.151 113.081 18.1069 114.368 18.1069C115.654 18.1069 116.697 19.151 116.697 20.4389C116.697 21.7268 115.654 22.7709 114.368 22.7709Z" fill="#86BE3F"/>
<path d="M114.368 40.8783C113.081 40.8783 112.038 39.8342 112.038 38.5463C112.038 37.2584 113.081 36.2144 114.368 36.2144C115.654 36.2144 116.697 37.2584 116.697 38.5463C116.697 39.8342 115.654 40.8783 114.368 40.8783Z" fill="#86BE3F"/>
<path d="M114.368 59.1224C113.081 59.1224 112.038 58.0784 112.038 56.7905C112.038 55.5026 113.081 54.4585 114.368 54.4585C115.654 54.4585 116.697 55.5026 116.697 56.7905C116.697 58.0784 115.654 59.1224 114.368 59.1224Z" fill="#86BE3F"/>
<path d="M114.368 77.2294C113.081 77.2294 112.038 76.1853 112.038 74.8974C112.038 73.6095 113.081 72.5654 114.368 72.5654C115.654 72.5654 116.697 73.6095 116.697 74.8974C116.697 76.1853 115.654 77.2294 114.368 77.2294Z" fill="#86BE3F"/>
<path d="M114.368 90.6724C115.601 90.6724 116.697 91.7698 116.697 93.0043C116.697 94.2389 115.601 95.3363 114.368 95.3363C113.134 95.3363 112.038 94.2389 112.038 93.0043C112.038 91.7698 112.997 90.6724 114.368 90.6724Z" fill="#86BE3F"/>
<path d="M98.3333 0C99.5667 0 100.663 1.0974 100.663 2.33197C100.663 3.56654 99.5667 4.66394 98.3333 4.66394C97.0999 4.66394 96.0036 3.56654 96.0036 2.33197C96.0036 1.0974 96.9629 0 98.3333 0Z" fill="#86BE3F"/>
<path d="M98.3333 18.1069C99.5667 18.1069 100.663 19.2043 100.663 20.4389C100.663 21.6735 99.5667 22.7709 98.3333 22.7709C97.0999 22.7709 96.0036 21.6735 96.0036 20.4389C96.0036 19.2043 96.9629 18.1069 98.3333 18.1069Z" fill="#86BE3F"/>
<path d="M98.3333 36.2144C99.5667 36.2144 100.663 37.3118 100.663 38.5463C100.663 39.7809 99.5667 40.8783 98.3333 40.8783C97.0999 40.8783 96.0036 39.7809 96.0036 38.5463C96.0036 37.3118 96.9629 36.2144 98.3333 36.2144Z" fill="#86BE3F"/>
<path d="M98.3333 54.4585C99.5667 54.4585 100.663 55.5559 100.663 56.7905C100.663 58.025 99.5667 59.1224 98.3333 59.1224C97.0999 59.1224 96.0036 58.025 96.0036 56.7905C96.0036 55.4187 96.9629 54.4585 98.3333 54.4585Z" fill="#86BE3F"/>
<path d="M98.3333 72.5654C99.5667 72.5654 100.663 73.6628 100.663 74.8974C100.663 76.132 99.5667 77.2294 98.3333 77.2294C97.0999 77.2294 96.0036 76.132 96.0036 74.8974C96.0036 73.5257 96.9629 72.5654 98.3333 72.5654Z" fill="#86BE3F"/>
<path d="M98.3333 90.6724C99.5667 90.6724 100.663 91.7698 100.663 93.0043C100.663 94.2389 99.5667 95.3363 98.3333 95.3363C97.0999 95.3363 96.0036 94.2389 96.0036 93.0043C96.0036 91.7698 96.9629 90.6724 98.3333 90.6724Z" fill="#86BE3F"/>
<path d="M82.2991 0C83.5325 0 84.6289 1.0974 84.6289 2.33197C84.6289 3.56654 83.5325 4.66394 82.2991 4.66394C81.0657 4.66394 79.9694 3.56654 79.9694 2.33197C79.9694 1.0974 80.9287 0 82.2991 0Z" fill="#86BE3F"/>
<path d="M82.2991 18.1069C83.5325 18.1069 84.6289 19.2043 84.6289 20.4389C84.6289 21.6735 83.5325 22.7709 82.2991 22.7709C81.0657 22.7709 79.9694 21.6735 79.9694 20.4389C79.9694 19.2043 80.9287 18.1069 82.2991 18.1069Z" fill="#86BE3F"/>
<path d="M82.2991 36.2144C83.5325 36.2144 84.6289 37.3118 84.6289 38.5463C84.6289 39.7809 83.5325 40.8783 82.2991 40.8783C81.0657 40.8783 79.9694 39.7809 79.9694 38.5463C79.9694 37.3118 80.9287 36.2144 82.2991 36.2144Z" fill="#86BE3F"/>
<path d="M82.2991 54.4585C83.5325 54.4585 84.6289 55.5559 84.6289 56.7905C84.6289 58.025 83.5325 59.1224 82.2991 59.1224C81.0657 59.1224 79.9694 58.025 79.9694 56.7905C79.9694 55.4187 80.9287 54.4585 82.2991 54.4585Z" fill="#86BE3F"/>
<path d="M82.2991 72.5654C83.5325 72.5654 84.6289 73.6628 84.6289 74.8974C84.6289 76.132 83.5325 77.2294 82.2991 77.2294C81.0657 77.2294 79.9694 76.132 79.9694 74.8974C79.9694 73.5257 80.9287 72.5654 82.2991 72.5654Z" fill="#86BE3F"/>
<path d="M82.2991 90.6724C83.5325 90.6724 84.6289 91.7698 84.6289 93.0043C84.6289 94.2389 83.5325 95.3363 82.2991 95.3363C81.0657 95.3363 79.9694 94.2389 79.9694 93.0043C79.9694 91.7698 80.9287 90.6724 82.2991 90.6724Z" fill="#86BE3F"/>
</g>
<defs>
<clipPath id="clip0_150_1744">
<rect width="36.728" height="95.3364" fill="white" transform="matrix(-1 0 0 1 162.041 0)"/>
</clipPath>
<clipPath id="clip1_150_1744">
<rect width="36.728" height="95.3364" fill="white" transform="matrix(-1 0 0 1 116.697 0)"/>
</clipPath>
</defs>
</svg>
