<svg width="14" height="8" viewBox="0 0 14 8" fill="none" xmlns="http://www.w3.org/2000/svg">
<path d="M6.66952 7.67413C6.93496 7.66534 7.18792 7.55934 7.38033 7.37627L12.7959 2.17734C13.0033 1.97805 13.123 1.70454 13.1287 1.41699C13.1344 1.12944 13.0257 0.851405 12.8264 0.644037C12.6271 0.43667 12.3536 0.316961 12.066 0.311249C11.7785 0.305537 11.5004 0.414285 11.2931 0.613575L6.6289 5.08819L1.96475 0.613575C1.75738 0.414285 1.47934 0.305537 1.19179 0.311249C0.904242 0.316961 0.630738 0.43667 0.431449 0.644037C0.232159 0.851405 0.123409 1.12944 0.12912 1.41699C0.134832 1.70454 0.254539 1.97805 0.461906 2.17734L5.87748 7.37627C5.98276 7.47653 6.10714 7.55456 6.24321 7.60574C6.37929 7.65691 6.52427 7.68017 6.66952 7.67413Z" fill="#666666"/>
</svg>
