<svg width="35" height="35" viewBox="0 0 35 35" fill="none" xmlns="http://www.w3.org/2000/svg">
<path d="M20.9877 20.8755C20.9877 23.28 19.2057 25.2293 17.0075 25.2293C14.8093 25.2293 13.0273 23.28 13.0273 20.8755C13.0273 18.471 14.8093 16.5217 17.0075 16.5217C19.2057 16.5217 20.9877 18.471 20.9877 20.8755Z" fill="#86BE3F"/>
<path d="M17.1536 34.5328C19.3722 34.5328 21.4903 34.2068 23.4361 33.6201V28.5269C23.4361 27.1043 22.2786 25.9481 20.857 25.9481L13.0869 25.9484C11.6646 25.9484 10.5078 27.1047 10.5078 28.5272V33.5112C12.552 34.1687 14.7975 34.5328 17.1537 34.5328L17.1536 34.5328Z" fill="#86BE3F"/>
<path d="M30.4874 12.0989H27.008C28.6157 11.7113 29.9665 10.623 30.7392 9.15375H32.318C32.318 4.09834 29.5357 0 25.7118 0C21.8866 0 19.1042 4.09826 19.1042 9.15375H20.6833C21.4567 10.623 22.8063 11.7113 24.4139 12.0989H20.7763C19.0893 12.0989 17.6607 13.1933 17.154 14.7095C16.647 13.1933 15.2187 12.0989 13.5323 12.0989H10.0529C12.5923 11.4859 14.4873 9.12011 14.4873 6.28824C14.4873 2.99165 11.9212 0.318509 8.75592 0.318509C5.59108 0.318509 3.02489 2.99165 3.02489 6.28824C3.02489 9.12043 4.92017 11.4859 7.45962 12.0989H3.8208C1.71087 12.0989 0 13.8095 0 15.92V21.4129L0.0133326 21.406C0.0133326 26.562 3.90045 31.0213 9.55232 33.1686L9.55264 28.5268C9.55264 26.5785 11.1384 24.9924 13.087 24.9924H13.9531C12.7318 24.0257 11.9727 22.506 11.9727 20.8215C11.9727 17.9237 14.2439 15.5667 17.0361 15.5667C19.8282 15.5667 22.0988 17.924 22.0988 20.8215C22.0988 22.5063 21.3397 24.0258 20.1181 24.9924H20.8568C22.8055 24.9924 24.3916 26.5786 24.3916 28.5268V33.3121C30.102 31.2793 34.102 26.9144 34.3077 21.8161L34.308 15.9203C34.3083 13.8094 32.5971 12.0988 30.4875 12.0988L30.4874 12.0989Z" fill="#86BE3F"/>
</svg>
