<svg width="63" height="73" viewBox="0 0 63 73" fill="none" xmlns="http://www.w3.org/2000/svg">
<g opacity="0.6">
<g clip-path="url(#clip0_150_1703)">
<path d="M1.78223 3.56784C2.76652 3.56784 3.56445 2.76915 3.56445 1.78392C3.56445 0.798687 2.76652 0 1.78223 0C0.79793 0 0 0.798687 0 1.78392C0 2.76915 0.79793 3.56784 1.78223 3.56784Z" fill="#86BE3F"/>
<path d="M1.78223 17.4194C2.76652 17.4194 3.56445 16.6207 3.56445 15.6355C3.56445 14.6502 2.76652 13.8516 1.78223 13.8516C0.79793 13.8516 0 14.6502 0 15.6355C0 16.6207 0.79793 17.4194 1.78223 17.4194Z" fill="#86BE3F"/>
<path d="M1.78223 31.2712C2.76652 31.2712 3.56445 30.4725 3.56445 29.4873C3.56445 28.5021 2.76652 27.7034 1.78223 27.7034C0.79793 27.7034 0 28.5021 0 29.4873C0 30.4725 0.79793 31.2712 1.78223 31.2712Z" fill="#86BE3F"/>
<path d="M1.78223 45.2277C2.76652 45.2277 3.56445 44.4291 3.56445 43.4438C3.56445 42.4586 2.76652 41.6599 1.78223 41.6599C0.79793 41.6599 0 42.4586 0 43.4438C0 44.4291 0.79793 45.2277 1.78223 45.2277Z" fill="#86BE3F"/>
<path d="M1.78223 59.0791C2.76652 59.0791 3.56445 58.2804 3.56445 57.2952C3.56445 56.3099 2.76652 55.5112 1.78223 55.5112C0.79793 55.5112 0 56.3099 0 57.2952C0 58.2804 0.79793 59.0791 1.78223 59.0791Z" fill="#86BE3F"/>
<path d="M1.78223 69.3628C0.838695 69.3628 0 70.2023 0 71.1467C0 72.0911 0.838695 72.9306 1.78223 72.9306C2.72576 72.9306 3.56445 72.0911 3.56445 71.1467C3.56445 70.2023 2.83059 69.3628 1.78223 69.3628Z" fill="#86BE3F"/>
<path d="M14.0479 0C13.1043 0 12.2656 0.839491 12.2656 1.78392C12.2656 2.72835 13.1043 3.56784 14.0479 3.56784C14.9914 3.56784 15.8301 2.72835 15.8301 1.78392C15.8301 0.839491 15.0962 0 14.0479 0Z" fill="#86BE3F"/>
<path d="M14.0479 13.8516C13.1043 13.8516 12.2656 14.6911 12.2656 15.6355C12.2656 16.5799 13.1043 17.4194 14.0479 17.4194C14.9914 17.4194 15.8301 16.5799 15.8301 15.6355C15.8301 14.6911 15.0962 13.8516 14.0479 13.8516Z" fill="#86BE3F"/>
<path d="M14.0479 27.7034C13.1043 27.7034 12.2656 28.5429 12.2656 29.4873C12.2656 30.4317 13.1043 31.2712 14.0479 31.2712C14.9914 31.2712 15.8301 30.4317 15.8301 29.4873C15.8301 28.5429 15.0962 27.7034 14.0479 27.7034Z" fill="#86BE3F"/>
<path d="M14.0479 41.6599C13.1043 41.6599 12.2656 42.4994 12.2656 43.4438C12.2656 44.3883 13.1043 45.2277 14.0479 45.2277C14.9914 45.2277 15.8301 44.3883 15.8301 43.4438C15.8301 42.3945 15.0962 41.6599 14.0479 41.6599Z" fill="#86BE3F"/>
<path d="M14.0479 55.5112C13.1043 55.5112 12.2656 56.3507 12.2656 57.2952C12.2656 58.2396 13.1043 59.0791 14.0479 59.0791C14.9914 59.0791 15.8301 58.2396 15.8301 57.2952C15.8301 56.2458 15.0962 55.5112 14.0479 55.5112Z" fill="#86BE3F"/>
<path d="M14.0479 69.3628C13.1043 69.3628 12.2656 70.2023 12.2656 71.1467C12.2656 72.0911 13.1043 72.9306 14.0479 72.9306C14.9914 72.9306 15.8301 72.0911 15.8301 71.1467C15.8301 70.2023 15.0962 69.3628 14.0479 69.3628Z" fill="#86BE3F"/>
<path d="M26.3145 0C25.3709 0 24.5322 0.839491 24.5322 1.78392C24.5322 2.72835 25.3709 3.56784 26.3145 3.56784C27.258 3.56784 28.0967 2.72835 28.0967 1.78392C28.0967 0.839491 27.3628 0 26.3145 0Z" fill="#86BE3F"/>
<path d="M26.3145 13.8516C25.3709 13.8516 24.5322 14.6911 24.5322 15.6355C24.5322 16.5799 25.3709 17.4194 26.3145 17.4194C27.258 17.4194 28.0967 16.5799 28.0967 15.6355C28.0967 14.6911 27.3628 13.8516 26.3145 13.8516Z" fill="#86BE3F"/>
<path d="M26.3145 27.7034C25.3709 27.7034 24.5322 28.5429 24.5322 29.4873C24.5322 30.4317 25.3709 31.2712 26.3145 31.2712C27.258 31.2712 28.0967 30.4317 28.0967 29.4873C28.0967 28.5429 27.3628 27.7034 26.3145 27.7034Z" fill="#86BE3F"/>
<path d="M26.3145 41.6599C25.3709 41.6599 24.5322 42.4994 24.5322 43.4438C24.5322 44.3883 25.3709 45.2277 26.3145 45.2277C27.258 45.2277 28.0967 44.3883 28.0967 43.4438C28.0967 42.3945 27.3628 41.6599 26.3145 41.6599Z" fill="#86BE3F"/>
<path d="M26.3145 55.5112C25.3709 55.5112 24.5322 56.3507 24.5322 57.2952C24.5322 58.2396 25.3709 59.0791 26.3145 59.0791C27.258 59.0791 28.0967 58.2396 28.0967 57.2952C28.0967 56.2458 27.3628 55.5112 26.3145 55.5112Z" fill="#86BE3F"/>
<path d="M26.3145 69.3628C25.3709 69.3628 24.5322 70.2023 24.5322 71.1467C24.5322 72.0911 25.3709 72.9306 26.3145 72.9306C27.258 72.9306 28.0967 72.0911 28.0967 71.1467C28.0967 70.2023 27.3628 69.3628 26.3145 69.3628Z" fill="#86BE3F"/>
</g>
<g clip-path="url(#clip1_150_1703)">
<path d="M36.4697 3.56784C37.454 3.56784 38.252 2.76915 38.252 1.78392C38.252 0.798687 37.454 0 36.4697 0C35.4854 0 34.6875 0.798687 34.6875 1.78392C34.6875 2.76915 35.4854 3.56784 36.4697 3.56784Z" fill="#86BE3F"/>
<path d="M36.4697 17.4194C37.454 17.4194 38.252 16.6207 38.252 15.6355C38.252 14.6502 37.454 13.8516 36.4697 13.8516C35.4854 13.8516 34.6875 14.6502 34.6875 15.6355C34.6875 16.6207 35.4854 17.4194 36.4697 17.4194Z" fill="#86BE3F"/>
<path d="M36.4697 31.2712C37.454 31.2712 38.252 30.4725 38.252 29.4873C38.252 28.5021 37.454 27.7034 36.4697 27.7034C35.4854 27.7034 34.6875 28.5021 34.6875 29.4873C34.6875 30.4725 35.4854 31.2712 36.4697 31.2712Z" fill="#86BE3F"/>
<path d="M36.4697 45.2277C37.454 45.2277 38.252 44.4291 38.252 43.4438C38.252 42.4586 37.454 41.6599 36.4697 41.6599C35.4854 41.6599 34.6875 42.4586 34.6875 43.4438C34.6875 44.4291 35.4854 45.2277 36.4697 45.2277Z" fill="#86BE3F"/>
<path d="M36.4697 59.0791C37.454 59.0791 38.252 58.2804 38.252 57.2952C38.252 56.3099 37.454 55.5112 36.4697 55.5112C35.4854 55.5112 34.6875 56.3099 34.6875 57.2952C34.6875 58.2804 35.4854 59.0791 36.4697 59.0791Z" fill="#86BE3F"/>
<path d="M36.4697 69.3628C35.5262 69.3628 34.6875 70.2023 34.6875 71.1467C34.6875 72.0911 35.5262 72.9306 36.4697 72.9306C37.4133 72.9306 38.252 72.0911 38.252 71.1467C38.252 70.2023 37.5181 69.3628 36.4697 69.3628Z" fill="#86BE3F"/>
<path d="M48.7354 0C47.7918 0 46.9531 0.839491 46.9531 1.78392C46.9531 2.72835 47.7918 3.56784 48.7354 3.56784C49.6789 3.56784 50.5176 2.72835 50.5176 1.78392C50.5176 0.839491 49.7837 0 48.7354 0Z" fill="#86BE3F"/>
<path d="M48.7354 13.8516C47.7918 13.8516 46.9531 14.6911 46.9531 15.6355C46.9531 16.5799 47.7918 17.4194 48.7354 17.4194C49.6789 17.4194 50.5176 16.5799 50.5176 15.6355C50.5176 14.6911 49.7837 13.8516 48.7354 13.8516Z" fill="#86BE3F"/>
<path d="M48.7354 27.7034C47.7918 27.7034 46.9531 28.5429 46.9531 29.4873C46.9531 30.4317 47.7918 31.2712 48.7354 31.2712C49.6789 31.2712 50.5176 30.4317 50.5176 29.4873C50.5176 28.5429 49.7837 27.7034 48.7354 27.7034Z" fill="#86BE3F"/>
<path d="M48.7354 41.6599C47.7918 41.6599 46.9531 42.4994 46.9531 43.4438C46.9531 44.3883 47.7918 45.2277 48.7354 45.2277C49.6789 45.2277 50.5176 44.3883 50.5176 43.4438C50.5176 42.3945 49.7837 41.6599 48.7354 41.6599Z" fill="#86BE3F"/>
<path d="M48.7354 55.5112C47.7918 55.5112 46.9531 56.3507 46.9531 57.2952C46.9531 58.2396 47.7918 59.0791 48.7354 59.0791C49.6789 59.0791 50.5176 58.2396 50.5176 57.2952C50.5176 56.2458 49.7837 55.5112 48.7354 55.5112Z" fill="#86BE3F"/>
<path d="M48.7354 69.3628C47.7918 69.3628 46.9531 70.2023 46.9531 71.1467C46.9531 72.0911 47.7918 72.9306 48.7354 72.9306C49.6789 72.9306 50.5176 72.0911 50.5176 71.1467C50.5176 70.2023 49.7837 69.3628 48.7354 69.3628Z" fill="#86BE3F"/>
<path d="M61.002 0C60.0584 0 59.2197 0.839491 59.2197 1.78392C59.2197 2.72835 60.0584 3.56784 61.002 3.56784C61.9455 3.56784 62.7842 2.72835 62.7842 1.78392C62.7842 0.839491 62.0503 0 61.002 0Z" fill="#86BE3F"/>
<path d="M61.002 13.8516C60.0584 13.8516 59.2197 14.6911 59.2197 15.6355C59.2197 16.5799 60.0584 17.4194 61.002 17.4194C61.9455 17.4194 62.7842 16.5799 62.7842 15.6355C62.7842 14.6911 62.0503 13.8516 61.002 13.8516Z" fill="#86BE3F"/>
<path d="M61.002 27.7034C60.0584 27.7034 59.2197 28.5429 59.2197 29.4873C59.2197 30.4317 60.0584 31.2712 61.002 31.2712C61.9455 31.2712 62.7842 30.4317 62.7842 29.4873C62.7842 28.5429 62.0503 27.7034 61.002 27.7034Z" fill="#86BE3F"/>
<path d="M61.002 41.6599C60.0584 41.6599 59.2197 42.4994 59.2197 43.4438C59.2197 44.3883 60.0584 45.2277 61.002 45.2277C61.9455 45.2277 62.7842 44.3883 62.7842 43.4438C62.7842 42.3945 62.0503 41.6599 61.002 41.6599Z" fill="#86BE3F"/>
<path d="M61.002 55.5112C60.0584 55.5112 59.2197 56.3507 59.2197 57.2952C59.2197 58.2396 60.0584 59.0791 61.002 59.0791C61.9455 59.0791 62.7842 58.2396 62.7842 57.2952C62.7842 56.2458 62.0503 55.5112 61.002 55.5112Z" fill="#86BE3F"/>
<path d="M61.002 69.3628C60.0584 69.3628 59.2197 70.2023 59.2197 71.1467C59.2197 72.0911 60.0584 72.9306 61.002 72.9306C61.9455 72.9306 62.7842 72.0911 62.7842 71.1467C62.7842 70.2023 62.0503 69.3628 61.002 69.3628Z" fill="#86BE3F"/>
</g>
</g>
<defs>
<clipPath id="clip0_150_1703">
<rect width="28.0963" height="72.9308" fill="white"/>
</clipPath>
<clipPath id="clip1_150_1703">
<rect width="28.0963" height="72.9308" fill="white" transform="translate(34.6875)"/>
</clipPath>
</defs>
</svg>
