<svg width="83" height="96" viewBox="0 0 83 96" fill="none" xmlns="http://www.w3.org/2000/svg">
<g clip-path="url(#clip0_150_1064)">
<path d="M2.36492 5.04041C3.65161 5.04041 4.69468 3.99635 4.69468 2.70844C4.69468 1.42052 3.65161 0.376465 2.36492 0.376465C1.07823 0.376465 0.0351562 1.42052 0.0351562 2.70844C0.0351562 3.99635 1.07823 5.04041 2.36492 5.04041Z" fill="#86BE3F"/>
<path d="M2.36492 23.1473C3.65161 23.1473 4.69468 22.1033 4.69468 20.8154C4.69468 19.5275 3.65161 18.4834 2.36492 18.4834C1.07823 18.4834 0.0351562 19.5275 0.0351562 20.8154C0.0351562 22.1033 1.07823 23.1473 2.36492 23.1473Z" fill="#86BE3F"/>
<path d="M2.36492 41.2548C3.65161 41.2548 4.69468 40.2107 4.69468 38.9228C4.69468 37.6349 3.65161 36.5908 2.36492 36.5908C1.07823 36.5908 0.0351562 37.6349 0.0351562 38.9228C0.0351562 40.2107 1.07823 41.2548 2.36492 41.2548Z" fill="#86BE3F"/>
<path d="M2.36492 59.4989C3.65161 59.4989 4.69468 58.4548 4.69468 57.1669C4.69468 55.879 3.65161 54.835 2.36492 54.835C1.07823 54.835 0.0351562 55.879 0.0351562 57.1669C0.0351562 58.4548 1.07823 59.4989 2.36492 59.4989Z" fill="#86BE3F"/>
<path d="M2.36492 77.6058C3.65161 77.6058 4.69468 76.5618 4.69468 75.2739C4.69468 73.986 3.65161 72.9419 2.36492 72.9419C1.07823 72.9419 0.0351562 73.986 0.0351562 75.2739C0.0351562 76.5618 1.07823 77.6058 2.36492 77.6058Z" fill="#86BE3F"/>
<path d="M2.36492 91.0488C1.13151 91.0488 0.0351562 92.1462 0.0351562 93.3808C0.0351562 94.6154 1.13151 95.7128 2.36492 95.7128C3.59832 95.7128 4.69468 94.6154 4.69468 93.3808C4.69468 92.1462 3.73536 91.0488 2.36492 91.0488Z" fill="#86BE3F"/>
<path d="M18.3991 0.376465C17.1657 0.376465 16.0693 1.47386 16.0693 2.70844C16.0693 3.94301 17.1657 5.04041 18.3991 5.04041C19.6325 5.04041 20.7289 3.94301 20.7289 2.70844C20.7289 1.47386 19.7695 0.376465 18.3991 0.376465Z" fill="#86BE3F"/>
<path d="M18.3991 18.4834C17.1657 18.4834 16.0693 19.5808 16.0693 20.8154C16.0693 22.0499 17.1657 23.1473 18.3991 23.1473C19.6325 23.1473 20.7289 22.0499 20.7289 20.8154C20.7289 19.5808 19.7695 18.4834 18.3991 18.4834Z" fill="#86BE3F"/>
<path d="M18.3991 36.5908C17.1657 36.5908 16.0693 37.6882 16.0693 38.9228C16.0693 40.1574 17.1657 41.2548 18.3991 41.2548C19.6325 41.2548 20.7289 40.1574 20.7289 38.9228C20.7289 37.6882 19.7695 36.5908 18.3991 36.5908Z" fill="#86BE3F"/>
<path d="M18.3991 54.835C17.1657 54.835 16.0693 55.9324 16.0693 57.1669C16.0693 58.4015 17.1657 59.4989 18.3991 59.4989C19.6325 59.4989 20.7289 58.4015 20.7289 57.1669C20.7289 55.7952 19.7695 54.835 18.3991 54.835Z" fill="#86BE3F"/>
<path d="M18.3991 72.9419C17.1657 72.9419 16.0693 74.0393 16.0693 75.2739C16.0693 76.5084 17.1657 77.6058 18.3991 77.6058C19.6325 77.6058 20.7289 76.5084 20.7289 75.2739C20.7289 73.9021 19.7695 72.9419 18.3991 72.9419Z" fill="#86BE3F"/>
<path d="M18.3991 91.0488C17.1657 91.0488 16.0693 92.1462 16.0693 93.3808C16.0693 94.6154 17.1657 95.7128 18.3991 95.7128C19.6325 95.7128 20.7289 94.6154 20.7289 93.3808C20.7289 92.1462 19.7695 91.0488 18.3991 91.0488Z" fill="#86BE3F"/>
<path d="M34.4333 0.376465C33.1999 0.376465 32.1035 1.47386 32.1035 2.70844C32.1035 3.94301 33.1999 5.04041 34.4333 5.04041C35.6667 5.04041 36.763 3.94301 36.763 2.70844C36.763 1.47386 35.8037 0.376465 34.4333 0.376465Z" fill="#86BE3F"/>
<path d="M34.4333 18.4834C33.1999 18.4834 32.1035 19.5808 32.1035 20.8154C32.1035 22.0499 33.1999 23.1473 34.4333 23.1473C35.6667 23.1473 36.763 22.0499 36.763 20.8154C36.763 19.5808 35.8037 18.4834 34.4333 18.4834Z" fill="#86BE3F"/>
<path d="M34.4333 36.5908C33.1999 36.5908 32.1035 37.6882 32.1035 38.9228C32.1035 40.1574 33.1999 41.2548 34.4333 41.2548C35.6667 41.2548 36.763 40.1574 36.763 38.9228C36.763 37.6882 35.8037 36.5908 34.4333 36.5908Z" fill="#86BE3F"/>
<path d="M34.4333 54.835C33.1999 54.835 32.1035 55.9324 32.1035 57.1669C32.1035 58.4015 33.1999 59.4989 34.4333 59.4989C35.6667 59.4989 36.763 58.4015 36.763 57.1669C36.763 55.7952 35.8037 54.835 34.4333 54.835Z" fill="#86BE3F"/>
<path d="M34.4333 72.9419C33.1999 72.9419 32.1035 74.0393 32.1035 75.2739C32.1035 76.5084 33.1999 77.6058 34.4333 77.6058C35.6667 77.6058 36.763 76.5084 36.763 75.2739C36.763 73.9021 35.8037 72.9419 34.4333 72.9419Z" fill="#86BE3F"/>
<path d="M34.4333 91.0488C33.1999 91.0488 32.1035 92.1462 32.1035 93.3808C32.1035 94.6154 33.1999 95.7128 34.4333 95.7128C35.6667 95.7128 36.763 94.6154 36.763 93.3808C36.763 92.1462 35.8037 91.0488 34.4333 91.0488Z" fill="#86BE3F"/>
</g>
<g clip-path="url(#clip1_150_1064)">
<path d="M47.7087 5.04041C48.9954 5.04041 50.0384 3.99635 50.0384 2.70844C50.0384 1.42052 48.9954 0.376465 47.7087 0.376465C46.422 0.376465 45.3789 1.42052 45.3789 2.70844C45.3789 3.99635 46.422 5.04041 47.7087 5.04041Z" fill="#86BE3F"/>
<path d="M47.7087 23.1473C48.9954 23.1473 50.0384 22.1033 50.0384 20.8154C50.0384 19.5275 48.9954 18.4834 47.7087 18.4834C46.422 18.4834 45.3789 19.5275 45.3789 20.8154C45.3789 22.1033 46.422 23.1473 47.7087 23.1473Z" fill="#86BE3F"/>
<path d="M47.7087 41.2548C48.9954 41.2548 50.0384 40.2107 50.0384 38.9228C50.0384 37.6349 48.9954 36.5908 47.7087 36.5908C46.422 36.5908 45.3789 37.6349 45.3789 38.9228C45.3789 40.2107 46.422 41.2548 47.7087 41.2548Z" fill="#86BE3F"/>
<path d="M47.7087 59.4989C48.9954 59.4989 50.0384 58.4548 50.0384 57.1669C50.0384 55.879 48.9954 54.835 47.7087 54.835C46.422 54.835 45.3789 55.879 45.3789 57.1669C45.3789 58.4548 46.422 59.4989 47.7087 59.4989Z" fill="#86BE3F"/>
<path d="M47.7087 77.6058C48.9954 77.6058 50.0384 76.5618 50.0384 75.2739C50.0384 73.986 48.9954 72.9419 47.7087 72.9419C46.422 72.9419 45.3789 73.986 45.3789 75.2739C45.3789 76.5618 46.422 77.6058 47.7087 77.6058Z" fill="#86BE3F"/>
<path d="M47.7087 91.0488C46.4753 91.0488 45.3789 92.1462 45.3789 93.3808C45.3789 94.6154 46.4753 95.7128 47.7087 95.7128C48.9421 95.7128 50.0384 94.6154 50.0384 93.3808C50.0384 92.1462 49.0791 91.0488 47.7087 91.0488Z" fill="#86BE3F"/>
<path d="M63.7428 0.376465C62.5094 0.376465 61.4131 1.47386 61.4131 2.70844C61.4131 3.94301 62.5094 5.04041 63.7428 5.04041C64.9762 5.04041 66.0726 3.94301 66.0726 2.70844C66.0726 1.47386 65.1133 0.376465 63.7428 0.376465Z" fill="#86BE3F"/>
<path d="M63.7428 18.4834C62.5094 18.4834 61.4131 19.5808 61.4131 20.8154C61.4131 22.0499 62.5094 23.1473 63.7428 23.1473C64.9762 23.1473 66.0726 22.0499 66.0726 20.8154C66.0726 19.5808 65.1133 18.4834 63.7428 18.4834Z" fill="#86BE3F"/>
<path d="M63.7428 36.5908C62.5094 36.5908 61.4131 37.6882 61.4131 38.9228C61.4131 40.1574 62.5094 41.2548 63.7428 41.2548C64.9762 41.2548 66.0726 40.1574 66.0726 38.9228C66.0726 37.6882 65.1133 36.5908 63.7428 36.5908Z" fill="#86BE3F"/>
<path d="M63.7428 54.835C62.5094 54.835 61.4131 55.9324 61.4131 57.1669C61.4131 58.4015 62.5094 59.4989 63.7428 59.4989C64.9762 59.4989 66.0726 58.4015 66.0726 57.1669C66.0726 55.7952 65.1133 54.835 63.7428 54.835Z" fill="#86BE3F"/>
<path d="M63.7428 72.9419C62.5094 72.9419 61.4131 74.0393 61.4131 75.2739C61.4131 76.5084 62.5094 77.6058 63.7428 77.6058C64.9762 77.6058 66.0726 76.5084 66.0726 75.2739C66.0726 73.9021 65.1133 72.9419 63.7428 72.9419Z" fill="#86BE3F"/>
<path d="M63.7428 91.0488C62.5094 91.0488 61.4131 92.1462 61.4131 93.3808C61.4131 94.6154 62.5094 95.7128 63.7428 95.7128C64.9762 95.7128 66.0726 94.6154 66.0726 93.3808C66.0726 92.1462 65.1133 91.0488 63.7428 91.0488Z" fill="#86BE3F"/>
<path d="M79.777 0.376465C78.5436 0.376465 77.4473 1.47386 77.4473 2.70844C77.4473 3.94301 78.5436 5.04041 79.777 5.04041C81.0104 5.04041 82.1068 3.94301 82.1068 2.70844C82.1068 1.47386 81.1475 0.376465 79.777 0.376465Z" fill="#86BE3F"/>
<path d="M79.777 18.4834C78.5436 18.4834 77.4473 19.5808 77.4473 20.8154C77.4473 22.0499 78.5436 23.1473 79.777 23.1473C81.0104 23.1473 82.1068 22.0499 82.1068 20.8154C82.1068 19.5808 81.1475 18.4834 79.777 18.4834Z" fill="#86BE3F"/>
<path d="M79.777 36.5908C78.5436 36.5908 77.4473 37.6882 77.4473 38.9228C77.4473 40.1574 78.5436 41.2548 79.777 41.2548C81.0104 41.2548 82.1068 40.1574 82.1068 38.9228C82.1068 37.6882 81.1475 36.5908 79.777 36.5908Z" fill="#86BE3F"/>
<path d="M79.777 54.835C78.5436 54.835 77.4473 55.9324 77.4473 57.1669C77.4473 58.4015 78.5436 59.4989 79.777 59.4989C81.0104 59.4989 82.1068 58.4015 82.1068 57.1669C82.1068 55.7952 81.1475 54.835 79.777 54.835Z" fill="#86BE3F"/>
<path d="M79.777 72.9419C78.5436 72.9419 77.4473 74.0393 77.4473 75.2739C77.4473 76.5084 78.5436 77.6058 79.777 77.6058C81.0104 77.6058 82.1068 76.5084 82.1068 75.2739C82.1068 73.9021 81.1475 72.9419 79.777 72.9419Z" fill="#86BE3F"/>
<path d="M79.777 91.0488C78.5436 91.0488 77.4473 92.1462 77.4473 93.3808C77.4473 94.6154 78.5436 95.7128 79.777 95.7128C81.0104 95.7128 82.1068 94.6154 82.1068 93.3808C82.1068 92.1462 81.1475 91.0488 79.777 91.0488Z" fill="#86BE3F"/>
</g>
<defs>
<clipPath id="clip0_150_1064">
<rect width="36.728" height="95.3364" fill="white" transform="translate(0.0351562 0.376465)"/>
</clipPath>
<clipPath id="clip1_150_1064">
<rect width="36.728" height="95.3364" fill="white" transform="translate(45.3789 0.376465)"/>
</clipPath>
</defs>
</svg>
