<svg width="83" height="96" viewBox="0 0 83 96" fill="none" xmlns="http://www.w3.org/2000/svg">
<g clip-path="url(#clip0_150_808)">
<path d="M2.32976 4.66394C3.61645 4.66394 4.65952 3.61988 4.65952 2.33197C4.65952 1.04406 3.61645 0 2.32976 0C1.04307 0 0 1.04406 0 2.33197C0 3.61988 1.04307 4.66394 2.32976 4.66394Z" fill="#86BE3F" fill-opacity="0.3"/>
<path d="M2.32976 22.7709C3.61645 22.7709 4.65952 21.7268 4.65952 20.4389C4.65952 19.151 3.61645 18.1069 2.32976 18.1069C1.04307 18.1069 0 19.151 0 20.4389C0 21.7268 1.04307 22.7709 2.32976 22.7709Z" fill="#86BE3F" fill-opacity="0.3"/>
<path d="M2.32976 40.8783C3.61645 40.8783 4.65952 39.8342 4.65952 38.5463C4.65952 37.2584 3.61645 36.2144 2.32976 36.2144C1.04307 36.2144 0 37.2584 0 38.5463C0 39.8342 1.04307 40.8783 2.32976 40.8783Z" fill="#86BE3F" fill-opacity="0.3"/>
<path d="M2.32976 59.1224C3.61645 59.1224 4.65952 58.0784 4.65952 56.7905C4.65952 55.5026 3.61645 54.4585 2.32976 54.4585C1.04307 54.4585 0 55.5026 0 56.7905C0 58.0784 1.04307 59.1224 2.32976 59.1224Z" fill="#86BE3F" fill-opacity="0.3"/>
<path d="M2.32976 77.2294C3.61645 77.2294 4.65952 76.1853 4.65952 74.8974C4.65952 73.6095 3.61645 72.5654 2.32976 72.5654C1.04307 72.5654 0 73.6095 0 74.8974C0 76.1853 1.04307 77.2294 2.32976 77.2294Z" fill="#86BE3F" fill-opacity="0.3"/>
<path d="M2.32976 90.6724C1.09636 90.6724 0 91.7698 0 93.0043C0 94.2389 1.09636 95.3363 2.32976 95.3363C3.56316 95.3363 4.65952 94.2389 4.65952 93.0043C4.65952 91.7698 3.70021 90.6724 2.32976 90.6724Z" fill="#86BE3F" fill-opacity="0.3"/>
<path d="M18.3639 0C17.1305 0 16.0342 1.0974 16.0342 2.33197C16.0342 3.56654 17.1305 4.66394 18.3639 4.66394C19.5973 4.66394 20.6937 3.56654 20.6937 2.33197C20.6937 1.0974 19.7344 0 18.3639 0Z" fill="#86BE3F" fill-opacity="0.3"/>
<path d="M18.3639 18.1069C17.1305 18.1069 16.0342 19.2043 16.0342 20.4389C16.0342 21.6735 17.1305 22.7709 18.3639 22.7709C19.5973 22.7709 20.6937 21.6735 20.6937 20.4389C20.6937 19.2043 19.7344 18.1069 18.3639 18.1069Z" fill="#86BE3F" fill-opacity="0.3"/>
<path d="M18.3639 36.2144C17.1305 36.2144 16.0342 37.3118 16.0342 38.5463C16.0342 39.7809 17.1305 40.8783 18.3639 40.8783C19.5973 40.8783 20.6937 39.7809 20.6937 38.5463C20.6937 37.3118 19.7344 36.2144 18.3639 36.2144Z" fill="#86BE3F" fill-opacity="0.3"/>
<path d="M18.3639 54.4585C17.1305 54.4585 16.0342 55.5559 16.0342 56.7905C16.0342 58.025 17.1305 59.1224 18.3639 59.1224C19.5973 59.1224 20.6937 58.025 20.6937 56.7905C20.6937 55.4187 19.7344 54.4585 18.3639 54.4585Z" fill="#86BE3F" fill-opacity="0.3"/>
<path d="M18.3639 72.5654C17.1305 72.5654 16.0342 73.6628 16.0342 74.8974C16.0342 76.132 17.1305 77.2294 18.3639 77.2294C19.5973 77.2294 20.6937 76.132 20.6937 74.8974C20.6937 73.5257 19.7344 72.5654 18.3639 72.5654Z" fill="#86BE3F" fill-opacity="0.3"/>
<path d="M18.3639 90.6724C17.1305 90.6724 16.0342 91.7698 16.0342 93.0043C16.0342 94.2389 17.1305 95.3363 18.3639 95.3363C19.5973 95.3363 20.6937 94.2389 20.6937 93.0043C20.6937 91.7698 19.7344 90.6724 18.3639 90.6724Z" fill="#86BE3F" fill-opacity="0.3"/>
<path d="M34.3981 0C33.1647 0 32.0684 1.0974 32.0684 2.33197C32.0684 3.56654 33.1647 4.66394 34.3981 4.66394C35.6315 4.66394 36.7279 3.56654 36.7279 2.33197C36.7279 1.0974 35.7686 0 34.3981 0Z" fill="#86BE3F" fill-opacity="0.3"/>
<path d="M34.3981 18.1069C33.1647 18.1069 32.0684 19.2043 32.0684 20.4389C32.0684 21.6735 33.1647 22.7709 34.3981 22.7709C35.6315 22.7709 36.7279 21.6735 36.7279 20.4389C36.7279 19.2043 35.7686 18.1069 34.3981 18.1069Z" fill="#86BE3F" fill-opacity="0.3"/>
<path d="M34.3981 36.2144C33.1647 36.2144 32.0684 37.3118 32.0684 38.5463C32.0684 39.7809 33.1647 40.8783 34.3981 40.8783C35.6315 40.8783 36.7279 39.7809 36.7279 38.5463C36.7279 37.3118 35.7686 36.2144 34.3981 36.2144Z" fill="#86BE3F" fill-opacity="0.3"/>
<path d="M34.3981 54.4585C33.1647 54.4585 32.0684 55.5559 32.0684 56.7905C32.0684 58.025 33.1647 59.1224 34.3981 59.1224C35.6315 59.1224 36.7279 58.025 36.7279 56.7905C36.7279 55.4187 35.7686 54.4585 34.3981 54.4585Z" fill="#86BE3F" fill-opacity="0.3"/>
<path d="M34.3981 72.5654C33.1647 72.5654 32.0684 73.6628 32.0684 74.8974C32.0684 76.132 33.1647 77.2294 34.3981 77.2294C35.6315 77.2294 36.7279 76.132 36.7279 74.8974C36.7279 73.5257 35.7686 72.5654 34.3981 72.5654Z" fill="#86BE3F" fill-opacity="0.3"/>
<path d="M34.3981 90.6724C33.1647 90.6724 32.0684 91.7698 32.0684 93.0043C32.0684 94.2389 33.1647 95.3363 34.3981 95.3363C35.6315 95.3363 36.7279 94.2389 36.7279 93.0043C36.7279 91.7698 35.7686 90.6724 34.3981 90.6724Z" fill="#86BE3F" fill-opacity="0.3"/>
</g>
<g clip-path="url(#clip1_150_808)">
<path d="M47.6735 4.66394C48.9602 4.66394 50.0033 3.61988 50.0033 2.33197C50.0033 1.04406 48.9602 0 47.6735 0C46.3868 0 45.3438 1.04406 45.3438 2.33197C45.3438 3.61988 46.3868 4.66394 47.6735 4.66394Z" fill="#86BE3F" fill-opacity="0.3"/>
<path d="M47.6735 22.7709C48.9602 22.7709 50.0033 21.7268 50.0033 20.4389C50.0033 19.151 48.9602 18.1069 47.6735 18.1069C46.3868 18.1069 45.3438 19.151 45.3438 20.4389C45.3438 21.7268 46.3868 22.7709 47.6735 22.7709Z" fill="#86BE3F" fill-opacity="0.3"/>
<path d="M47.6735 40.8783C48.9602 40.8783 50.0033 39.8342 50.0033 38.5463C50.0033 37.2584 48.9602 36.2144 47.6735 36.2144C46.3868 36.2144 45.3438 37.2584 45.3438 38.5463C45.3438 39.8342 46.3868 40.8783 47.6735 40.8783Z" fill="#86BE3F" fill-opacity="0.3"/>
<path d="M47.6735 59.1224C48.9602 59.1224 50.0033 58.0784 50.0033 56.7905C50.0033 55.5026 48.9602 54.4585 47.6735 54.4585C46.3868 54.4585 45.3438 55.5026 45.3438 56.7905C45.3438 58.0784 46.3868 59.1224 47.6735 59.1224Z" fill="#86BE3F" fill-opacity="0.3"/>
<path d="M47.6735 77.2294C48.9602 77.2294 50.0033 76.1853 50.0033 74.8974C50.0033 73.6095 48.9602 72.5654 47.6735 72.5654C46.3868 72.5654 45.3438 73.6095 45.3438 74.8974C45.3438 76.1853 46.3868 77.2294 47.6735 77.2294Z" fill="#86BE3F" fill-opacity="0.3"/>
<path d="M47.6735 90.6724C46.4401 90.6724 45.3438 91.7698 45.3438 93.0043C45.3438 94.2389 46.4401 95.3363 47.6735 95.3363C48.9069 95.3363 50.0033 94.2389 50.0033 93.0043C50.0033 91.7698 49.044 90.6724 47.6735 90.6724Z" fill="#86BE3F" fill-opacity="0.3"/>
<path d="M63.7077 0C62.4743 0 61.3779 1.0974 61.3779 2.33197C61.3779 3.56654 62.4743 4.66394 63.7077 4.66394C64.9411 4.66394 66.0375 3.56654 66.0375 2.33197C66.0375 1.0974 65.0781 0 63.7077 0Z" fill="#86BE3F" fill-opacity="0.3"/>
<path d="M63.7077 18.1069C62.4743 18.1069 61.3779 19.2043 61.3779 20.4389C61.3779 21.6735 62.4743 22.7709 63.7077 22.7709C64.9411 22.7709 66.0375 21.6735 66.0375 20.4389C66.0375 19.2043 65.0781 18.1069 63.7077 18.1069Z" fill="#86BE3F" fill-opacity="0.3"/>
<path d="M63.7077 36.2144C62.4743 36.2144 61.3779 37.3118 61.3779 38.5463C61.3779 39.7809 62.4743 40.8783 63.7077 40.8783C64.9411 40.8783 66.0375 39.7809 66.0375 38.5463C66.0375 37.3118 65.0781 36.2144 63.7077 36.2144Z" fill="#86BE3F" fill-opacity="0.3"/>
<path d="M63.7077 54.4585C62.4743 54.4585 61.3779 55.5559 61.3779 56.7905C61.3779 58.025 62.4743 59.1224 63.7077 59.1224C64.9411 59.1224 66.0375 58.025 66.0375 56.7905C66.0375 55.4187 65.0781 54.4585 63.7077 54.4585Z" fill="#86BE3F" fill-opacity="0.3"/>
<path d="M63.7077 72.5654C62.4743 72.5654 61.3779 73.6628 61.3779 74.8974C61.3779 76.132 62.4743 77.2294 63.7077 77.2294C64.9411 77.2294 66.0375 76.132 66.0375 74.8974C66.0375 73.5257 65.0781 72.5654 63.7077 72.5654Z" fill="#86BE3F" fill-opacity="0.3"/>
<path d="M63.7077 90.6724C62.4743 90.6724 61.3779 91.7698 61.3779 93.0043C61.3779 94.2389 62.4743 95.3363 63.7077 95.3363C64.9411 95.3363 66.0375 94.2389 66.0375 93.0043C66.0375 91.7698 65.0781 90.6724 63.7077 90.6724Z" fill="#86BE3F" fill-opacity="0.3"/>
<path d="M79.7419 0C78.5085 0 77.4121 1.0974 77.4121 2.33197C77.4121 3.56654 78.5085 4.66394 79.7419 4.66394C80.9753 4.66394 82.0716 3.56654 82.0716 2.33197C82.0716 1.0974 81.1123 0 79.7419 0Z" fill="#86BE3F" fill-opacity="0.3"/>
<path d="M79.7419 18.1069C78.5085 18.1069 77.4121 19.2043 77.4121 20.4389C77.4121 21.6735 78.5085 22.7709 79.7419 22.7709C80.9753 22.7709 82.0716 21.6735 82.0716 20.4389C82.0716 19.2043 81.1123 18.1069 79.7419 18.1069Z" fill="#86BE3F" fill-opacity="0.3"/>
<path d="M79.7419 36.2144C78.5085 36.2144 77.4121 37.3118 77.4121 38.5463C77.4121 39.7809 78.5085 40.8783 79.7419 40.8783C80.9753 40.8783 82.0716 39.7809 82.0716 38.5463C82.0716 37.3118 81.1123 36.2144 79.7419 36.2144Z" fill="#86BE3F" fill-opacity="0.3"/>
<path d="M79.7419 54.4585C78.5085 54.4585 77.4121 55.5559 77.4121 56.7905C77.4121 58.025 78.5085 59.1224 79.7419 59.1224C80.9753 59.1224 82.0716 58.025 82.0716 56.7905C82.0716 55.4187 81.1123 54.4585 79.7419 54.4585Z" fill="#86BE3F" fill-opacity="0.3"/>
<path d="M79.7419 72.5654C78.5085 72.5654 77.4121 73.6628 77.4121 74.8974C77.4121 76.132 78.5085 77.2294 79.7419 77.2294C80.9753 77.2294 82.0716 76.132 82.0716 74.8974C82.0716 73.5257 81.1123 72.5654 79.7419 72.5654Z" fill="#86BE3F" fill-opacity="0.3"/>
<path d="M79.7419 90.6724C78.5085 90.6724 77.4121 91.7698 77.4121 93.0043C77.4121 94.2389 78.5085 95.3363 79.7419 95.3363C80.9753 95.3363 82.0716 94.2389 82.0716 93.0043C82.0716 91.7698 81.1123 90.6724 79.7419 90.6724Z" fill="#86BE3F" fill-opacity="0.3"/>
</g>
<defs>
<clipPath id="clip0_150_808">
<rect width="36.728" height="95.3364" fill="white"/>
</clipPath>
<clipPath id="clip1_150_808">
<rect width="36.728" height="95.3364" fill="white" transform="translate(45.3438)"/>
</clipPath>
</defs>
</svg>
