<svg width="39" height="33" viewBox="0 0 39 33" fill="none" xmlns="http://www.w3.org/2000/svg">
<path d="M19.5 2.56039C12.4841 2.56039 6.69366 7.80956 5.84298 14.5951L7.38606 13.0517C7.61028 12.8278 7.97313 12.8278 8.19735 13.0517L9.00831 13.8629C9.2322 14.0868 9.2322 14.45 9.00831 14.6739L5.39939 18.2831C4.95129 18.7309 4.22491 18.7309 3.77717 18.2831L0.167921 14.6739C-0.0559735 14.45 -0.0559735 14.0868 0.167921 13.8629L0.979202 13.0517C1.2031 12.8278 1.56627 12.8278 1.79016 13.0517L3.51466 14.7765C4.29377 6.63409 11.1533 0.266357 19.4997 0.266357C23.5297 0.266357 27.3258 1.75929 30.2464 4.39194C30.302 4.44245 30.3683 4.50357 30.4445 4.57562C30.4487 4.57948 30.4529 4.58367 30.4571 4.58785C30.6807 4.81206 30.6803 5.17524 30.4561 5.39881L29.6432 6.20912C29.4245 6.42754 29.0716 6.43302 28.8461 6.22135C28.7847 6.16409 28.7313 6.11454 28.6853 6.07337C26.1849 3.83031 22.9442 2.56063 19.4999 2.56063L19.5 2.56039ZM33.1569 18.0546L31.6135 19.598C31.3896 19.8219 31.0265 19.8219 30.8026 19.598L29.9916 18.7867C29.7674 18.5628 29.7674 18.1997 29.9916 17.9758L33.6005 14.3665C34.0486 13.9187 34.7747 13.9187 35.2227 14.3665L38.832 17.9758C39.0559 18.1997 39.0559 18.5628 38.832 18.7867L38.0207 19.598C37.7968 19.8219 37.4336 19.8219 37.2097 19.598L35.4849 17.8732C34.7058 26.0156 27.8466 32.3833 19.4999 32.3833C15.4693 32.3833 11.6721 30.89 8.75154 28.2558C8.70039 28.2098 8.64056 28.1545 8.57204 28.0898C8.56786 28.086 8.56368 28.0818 8.55949 28.0776C8.33528 27.8537 8.33528 27.4906 8.55949 27.2667L9.37206 26.4538C9.5908 26.2354 9.94305 26.2292 10.1692 26.4403C10.2901 26.5535 10.3921 26.6458 10.4748 26.7175C12.953 28.8731 16.129 30.0894 19.5004 30.0894C26.5165 30.0894 32.3067 24.8399 33.1573 18.0547L33.1569 18.0546ZM24.6617 14.0307C25.5852 14.0307 26.1301 15.0665 25.6071 15.8276L19.2983 25.0039C18.6601 25.9322 17.2061 25.4806 17.2061 24.3541V18.6188H14.3383C13.4428 18.6188 12.8927 17.638 13.3598 16.8737L19.6685 6.55029C20.2723 5.56176 21.7942 5.98993 21.7942 7.1483V14.0306L24.6617 14.0307Z" fill="#86BE3F"/>
</svg>
