<svg width="21" height="21" viewBox="0 0 21 21" fill="none" xmlns="http://www.w3.org/2000/svg">
<path d="M19.079 9.27979H2.70531C1.71271 9.27979 0.908203 9.69835 0.908203 10.2148C0.908203 10.7312 1.71271 11.1498 2.70531 11.1498H19.079C20.0716 11.1498 20.8761 10.7312 20.8761 10.2148C20.8761 9.69835 20.0716 9.27979 19.079 9.27979Z" fill="#363636"/>
<path d="M9.95703 2.02796L9.95703 18.4016C9.95703 19.3942 10.3756 20.1987 10.892 20.1987C11.4085 20.1987 11.827 19.3942 11.827 18.4016L11.827 2.02796C11.827 1.03536 11.4085 0.230856 10.892 0.230856C10.3756 0.230856 9.95703 1.03536 9.95703 2.02796Z" fill="#363636"/>
</svg>
