<svg width="289" height="259" viewBox="0 0 289 259" fill="none" xmlns="http://www.w3.org/2000/svg">
<path d="M280.654 137.141C280.947 136.848 280.947 136.373 280.654 136.08L275.881 131.307C275.588 131.014 275.113 131.014 274.82 131.307C274.527 131.6 274.527 132.075 274.82 132.368L279.063 136.61L274.82 140.853C274.527 141.146 274.527 141.621 274.82 141.914C275.113 142.207 275.588 142.207 275.881 141.914L280.654 137.141ZM1.75 136.61V6.61035H0.25V136.61H1.75ZM6 2.36035H248.986V0.860352H6V2.36035ZM253.236 6.61035V131.61H254.736V6.61035H253.236ZM258.986 137.36H280.123V135.86H258.986V137.36ZM253.236 131.61C253.236 134.786 255.811 137.36 258.986 137.36V135.86C256.639 135.86 254.736 133.958 254.736 131.61H253.236ZM248.986 2.36035C251.334 2.36035 253.236 4.26314 253.236 6.61035H254.736C254.736 3.43472 252.162 0.860352 248.986 0.860352V2.36035ZM1.75 6.61035C1.75 4.26314 3.65279 2.36035 6 2.36035V0.860352C2.82436 0.860352 0.25 3.43471 0.25 6.61035H1.75Z" fill="#86BE3F"/>
<path d="M253.25 124.61C253.25 124.196 253.586 123.86 254 123.86C254.414 123.86 254.75 124.196 254.75 124.61H253.25ZM1.75 128.61C1.75 129.025 1.41421 129.36 1 129.36C0.585786 129.36 0.25 129.025 0.25 128.61H1.75ZM0.25 136.61C0.25 136.196 0.585786 135.86 1 135.86C1.41421 135.86 1.75 136.196 1.75 136.61H0.25ZM1.75 144.61C1.75 145.025 1.41421 145.36 1 145.36C0.585786 145.36 0.25 145.025 0.25 144.61H1.75ZM0.25 152.61C0.25 152.196 0.585786 151.86 1 151.86C1.41421 151.86 1.75 152.196 1.75 152.61H0.25ZM1.75 160.61C1.75 161.025 1.41421 161.36 1 161.36C0.585786 161.36 0.25 161.025 0.25 160.61H1.75ZM0.25 168.61C0.25 168.196 0.585786 167.86 1 167.86C1.41421 167.86 1.75 168.196 1.75 168.61H0.25ZM1.75 176.61C1.75 177.025 1.41421 177.36 1 177.36C0.585786 177.36 0.25 177.025 0.25 176.61H1.75ZM0.25 184.61C0.25 184.196 0.585786 183.86 1 183.86C1.41421 183.86 1.75 184.196 1.75 184.61H0.25ZM1.75 192.61C1.75 193.025 1.41421 193.36 1 193.36C0.585786 193.36 0.25 193.025 0.25 192.61H1.75ZM0.25 200.61C0.25 200.196 0.585786 199.86 1 199.86C1.41421 199.86 1.75 200.196 1.75 200.61H0.25ZM1.75 208.61C1.75 209.025 1.41421 209.36 1 209.36C0.585786 209.36 0.25 209.025 0.25 208.61H1.75ZM0.25 216.61C0.25 216.196 0.585786 215.86 1 215.86C1.41421 215.86 1.75 216.196 1.75 216.61H0.25ZM1.75 224.61C1.75 225.025 1.41421 225.36 1 225.36C0.585786 225.36 0.25 225.025 0.25 224.61H1.75ZM0.25 232.61C0.25 232.196 0.585786 231.86 1 231.86C1.41421 231.86 1.75 232.196 1.75 232.61H0.25ZM1.75 240.61C1.75 241.025 1.41421 241.36 1 241.36C0.585786 241.36 0.25 241.025 0.25 240.61H1.75ZM0.25 248.61C0.25 248.196 0.585786 247.86 1 247.86C1.41421 247.86 1.75 248.196 1.75 248.61H0.25ZM2.0722 254.237C2.23086 254.62 2.04931 255.058 1.66669 255.217C1.28407 255.376 0.845274 255.194 0.686608 254.812L2.0722 254.237ZM3.79877 257.924C3.41615 257.765 3.2346 257.326 3.39327 256.944C3.55193 256.561 3.99073 256.379 4.37335 256.538L3.79877 257.924ZM10.05 256.86C10.4642 256.86 10.8 257.196 10.8 257.61C10.8 258.025 10.4642 258.36 10.05 258.36V256.86ZM18.15 258.36C17.7358 258.36 17.4 258.025 17.4 257.61C17.4 257.196 17.7358 256.86 18.15 256.86V258.36ZM26.25 256.86C26.6642 256.86 27 257.196 27 257.61C27 258.025 26.6642 258.36 26.25 258.36V256.86ZM34.35 258.36C33.9358 258.36 33.6 258.025 33.6 257.61C33.6 257.196 33.9358 256.86 34.35 256.86V258.36ZM42.45 256.86C42.8642 256.86 43.2 257.196 43.2 257.61C43.2 258.025 42.8642 258.36 42.45 258.36V256.86ZM50.55 258.36C50.1358 258.36 49.8 258.025 49.8 257.61C49.8 257.196 50.1358 256.86 50.55 256.86V258.36ZM58.65 256.86C59.0642 256.86 59.4 257.196 59.4 257.61C59.4 258.025 59.0642 258.36 58.65 258.36V256.86ZM66.75 258.36C66.3358 258.36 66 258.025 66 257.61C66 257.196 66.3358 256.86 66.75 256.86V258.36ZM74.85 256.86C75.2642 256.86 75.6 257.196 75.6 257.61C75.6 258.025 75.2642 258.36 74.85 258.36V256.86ZM82.95 258.36C82.5358 258.36 82.2 258.025 82.2 257.61C82.2 257.196 82.5358 256.86 82.95 256.86V258.36ZM91.05 256.86C91.4642 256.86 91.8 257.196 91.8 257.61C91.8 258.025 91.4642 258.36 91.05 258.36V256.86ZM99.15 258.36C98.7358 258.36 98.4 258.025 98.4 257.61C98.4 257.196 98.7358 256.86 99.15 256.86V258.36ZM107.25 256.86C107.664 256.86 108 257.196 108 257.61C108 258.025 107.664 258.36 107.25 258.36V256.86ZM115.35 258.36C114.936 258.36 114.6 258.025 114.6 257.61C114.6 257.196 114.936 256.86 115.35 256.86V258.36ZM123.45 256.86C123.864 256.86 124.2 257.196 124.2 257.61C124.2 258.025 123.864 258.36 123.45 258.36V256.86ZM131.55 258.36C131.136 258.36 130.8 258.025 130.8 257.61C130.8 257.196 131.136 256.86 131.55 256.86V258.36ZM139.65 256.86C140.064 256.86 140.4 257.196 140.4 257.61C140.4 258.025 140.064 258.36 139.65 258.36V256.86ZM147.75 258.36C147.336 258.36 147 258.025 147 257.61C147 257.196 147.336 256.86 147.75 256.86V258.36ZM155.85 256.86C156.264 256.86 156.6 257.196 156.6 257.61C156.6 258.025 156.264 258.36 155.85 258.36V256.86ZM163.95 258.36C163.536 258.36 163.2 258.025 163.2 257.61C163.2 257.196 163.536 256.86 163.95 256.86V258.36ZM172.05 256.86C172.464 256.86 172.8 257.196 172.8 257.61C172.8 258.025 172.464 258.36 172.05 258.36V256.86ZM180.15 258.36C179.736 258.36 179.4 258.025 179.4 257.61C179.4 257.196 179.736 256.86 180.15 256.86V258.36ZM188.25 256.86C188.664 256.86 189 257.196 189 257.61C189 258.025 188.664 258.36 188.25 258.36V256.86ZM196.35 258.36C195.936 258.36 195.6 258.025 195.6 257.61C195.6 257.196 195.936 256.86 196.35 256.86V258.36ZM204.45 256.86C204.864 256.86 205.2 257.196 205.2 257.61C205.2 258.025 204.864 258.36 204.45 258.36V256.86ZM212.55 258.36C212.136 258.36 211.8 258.025 211.8 257.61C211.8 257.196 212.136 256.86 212.55 256.86V258.36ZM220.65 256.86C221.064 256.86 221.4 257.196 221.4 257.61C221.4 258.025 221.064 258.36 220.65 258.36V256.86ZM228.75 258.36C228.336 258.36 228 258.025 228 257.61C228 257.196 228.336 256.86 228.75 256.86V258.36ZM236.85 256.86C237.264 256.86 237.6 257.196 237.6 257.61C237.6 258.025 237.264 258.36 236.85 258.36V256.86ZM244.95 258.36C244.536 258.36 244.2 258.025 244.2 257.61C244.2 257.196 244.536 256.86 244.95 256.86V258.36ZM250.627 256.538C251.009 256.379 251.448 256.561 251.607 256.944C251.765 257.326 251.584 257.765 251.201 257.924L250.627 256.538ZM254.313 254.812C254.155 255.194 253.716 255.376 253.333 255.217C252.951 255.058 252.769 254.62 252.928 254.237L254.313 254.812ZM253.25 248.61C253.25 248.196 253.586 247.86 254 247.86C254.414 247.86 254.75 248.196 254.75 248.61H253.25ZM254.75 240.61C254.75 241.025 254.414 241.36 254 241.36C253.586 241.36 253.25 241.025 253.25 240.61H254.75ZM253.25 232.61C253.25 232.196 253.586 231.86 254 231.86C254.414 231.86 254.75 232.196 254.75 232.61H253.25ZM254.75 224.61C254.75 225.025 254.414 225.36 254 225.36C253.586 225.36 253.25 225.025 253.25 224.61H254.75ZM253.25 216.61C253.25 216.196 253.586 215.86 254 215.86C254.414 215.86 254.75 216.196 254.75 216.61H253.25ZM254.75 208.61C254.75 209.025 254.414 209.36 254 209.36C253.586 209.36 253.25 209.025 253.25 208.61H254.75ZM253.25 200.61C253.25 200.196 253.586 199.86 254 199.86C254.414 199.86 254.75 200.196 254.75 200.61H253.25ZM254.75 192.61C254.75 193.025 254.414 193.36 254 193.36C253.586 193.36 253.25 193.025 253.25 192.61H254.75ZM253.25 184.61C253.25 184.196 253.586 183.86 254 183.86C254.414 183.86 254.75 184.196 254.75 184.61H253.25ZM254.75 176.61C254.75 177.025 254.414 177.36 254 177.36C253.586 177.36 253.25 177.025 253.25 176.61H254.75ZM253.25 168.61C253.25 168.196 253.586 167.86 254 167.86C254.414 167.86 254.75 168.196 254.75 168.61H253.25ZM254.75 160.61C254.75 161.025 254.414 161.36 254 161.36C253.586 161.36 253.25 161.025 253.25 160.61H254.75ZM253.25 152.61C253.25 152.196 253.586 151.86 254 151.86C254.414 151.86 254.75 152.196 254.75 152.61H253.25ZM254.75 144.61C254.75 145.025 254.414 145.36 254 145.36C253.586 145.36 253.25 145.025 253.25 144.61H254.75ZM253.25 136.61C253.25 136.196 253.586 135.86 254 135.86C254.414 135.86 254.75 136.196 254.75 136.61H253.25ZM254.75 128.61C254.75 129.025 254.414 129.36 254 129.36C253.586 129.36 253.25 129.025 253.25 128.61H254.75ZM1.75 124.61V128.61H0.25V124.61H1.75ZM1.75 136.61V144.61H0.25V136.61H1.75ZM1.75 152.61V160.61H0.25V152.61H1.75ZM1.75 168.61V176.61H0.25V168.61H1.75ZM1.75 184.61V192.61H0.25V184.61H1.75ZM1.75 200.61V208.61H0.25V200.61H1.75ZM1.75 216.61V224.61H0.25V216.61H1.75ZM1.75 232.61V240.61H0.25V232.61H1.75ZM1.75 248.61V252.61H0.25V248.61H1.75ZM1.75 252.61C1.75 253.188 1.86483 253.737 2.0722 254.237L0.686608 254.812C0.405034 254.133 0.25 253.389 0.25 252.61H1.75ZM4.37335 256.538C4.87342 256.746 5.42235 256.86 6 256.86V258.36C5.22173 258.36 4.47778 258.205 3.79877 257.924L4.37335 256.538ZM6 256.86H10.05V258.36H6V256.86ZM18.15 256.86H26.25V258.36H18.15V256.86ZM34.35 256.86H42.45V258.36H34.35V256.86ZM50.55 256.86H58.65V258.36H50.55V256.86ZM66.75 256.86H74.85V258.36H66.75V256.86ZM82.95 256.86H91.05V258.36H82.95V256.86ZM99.15 256.86H107.25V258.36H99.15V256.86ZM115.35 256.86H123.45V258.36H115.35V256.86ZM131.55 256.86H139.65V258.36H131.55V256.86ZM147.75 256.86H155.85V258.36H147.75V256.86ZM163.95 256.86H172.05V258.36H163.95V256.86ZM180.15 256.86H188.25V258.36H180.15V256.86ZM196.35 256.86H204.45V258.36H196.35V256.86ZM212.55 256.86H220.65V258.36H212.55V256.86ZM228.75 256.86H236.85V258.36H228.75V256.86ZM244.95 256.86H249V258.36H244.95V256.86ZM249 256.86C249.578 256.86 250.127 256.746 250.627 256.538L251.201 257.924C250.522 258.205 249.778 258.36 249 258.36V256.86ZM252.928 254.237C253.135 253.737 253.25 253.188 253.25 252.61H254.75C254.75 253.389 254.595 254.133 254.313 254.812L252.928 254.237ZM253.25 252.61V248.61H254.75V252.61H253.25ZM253.25 240.61V232.61H254.75V240.61H253.25ZM253.25 224.61V216.61H254.75V224.61H253.25ZM253.25 208.61V200.61H254.75V208.61H253.25ZM253.25 192.61V184.61H254.75V192.61H253.25ZM253.25 176.61V168.61H254.75V176.61H253.25ZM253.25 160.61V152.61H254.75V160.61H253.25ZM253.25 144.61V136.61H254.75V144.61H253.25ZM253.25 128.61V124.61H254.75V128.61H253.25Z" fill="#86BE3F"/>
</svg>
