<svg width="40" height="39" viewBox="0 0 40 39" fill="none" xmlns="http://www.w3.org/2000/svg">
<path d="M39.2368 5.15733C39.2368 2.84753 37.3342 0.922852 35.0508 0.922852H4.2915C1.94487 0.922852 0.105469 2.84753 0.105469 5.15733V22.6077C0.105469 23.8266 0.612695 24.9175 1.4373 25.6873C1.62747 25.1742 1.88125 24.6607 2.19831 24.1477C2.38848 23.8269 2.57897 23.5702 2.76915 23.2495C2.70587 23.0571 2.64225 22.8644 2.64225 22.6721V5.22174C2.64225 4.3236 3.40326 3.55378 4.29112 3.55378L19.6391 3.55344L34.987 3.48943C35.8748 3.48943 36.6359 4.25924 36.6359 5.15739V22.6077C36.6359 23.5059 35.8749 24.2757 34.987 24.2757L20.4636 24.2117C20.9075 25.0458 21.2882 25.8796 21.5416 26.7778L34.9877 26.8419C36.1293 26.8419 37.2074 26.3928 37.9684 25.6229C38.7294 24.8531 39.1734 23.7622 39.1734 22.6077V13.8821L39.2368 5.15733Z" fill="#86BE3F"/>
<path d="M34.0989 10.5469C31.689 9.84112 30.0397 8.17313 29.3423 5.73535H9.93522C9.30111 8.17313 7.65185 9.84143 5.17871 10.5469V17.2188C6.51054 17.6039 7.65219 18.3094 8.47654 19.2719C9.3644 19.0152 10.3159 18.8868 11.2671 18.8868C13.1698 18.8868 15.0725 19.3999 16.7214 20.4265C17.4824 20.8756 18.1168 21.3887 18.751 22.0304H29.3421C29.9762 19.5927 31.6255 17.9244 34.0986 17.2189V13.8829L34.0989 10.5469ZM22.493 16.0643C22.3661 17.0265 21.7953 17.7323 20.9074 18.1174C20.7805 18.1814 20.7172 18.1814 20.5903 18.2458L20.4634 18.3098V19.7213H18.8145V18.3741H18.6244C18.4975 18.3741 18.3706 18.3101 18.2437 18.3101C17.863 18.2461 17.4191 18.0534 17.1021 17.861C16.8483 17.7326 16.785 17.4759 16.8483 17.2196C16.9116 17.0272 16.9752 16.8988 17.0385 16.7065L17.2922 16.0007L17.9263 16.3214C18.4336 16.5781 18.8775 16.7065 19.3851 16.7065H19.512C19.7022 16.7065 19.8927 16.6424 20.0828 16.5781C20.3999 16.4497 20.5901 16.193 20.6537 15.8723C20.717 15.5516 20.5904 15.2308 20.273 14.9742C19.956 14.7818 19.6389 14.5891 19.2582 14.4611C18.8143 14.2687 18.307 14.012 17.7994 13.6269C17.2922 13.1778 16.9748 12.5364 16.9748 11.8305C16.9748 11.0607 17.3555 10.3549 17.926 9.90587C18.1798 9.71349 18.4969 9.52079 18.8772 9.39277L19.0041 9.32876V7.91718H20.5897V9.20044H20.7799C20.9068 9.20044 21.097 9.26445 21.2239 9.26445C21.414 9.32846 21.6678 9.39281 21.858 9.52117L21.9849 9.58518C22.2386 9.71354 22.3019 9.97025 22.2386 10.2266C22.1754 10.419 22.1117 10.6117 21.9849 10.8681L21.7311 11.5095L21.2245 11.4452C20.9707 11.2528 20.6537 11.1885 20.3367 11.1244C19.8927 11.0604 19.5121 11.0604 19.2586 11.1244C18.8779 11.2528 18.8147 11.5095 18.7514 11.7019C18.6881 12.0226 18.8147 12.215 19.0052 12.3433C19.2589 12.5357 19.576 12.6641 19.9564 12.8564C20.4003 13.0488 20.9076 13.2415 21.3518 13.5622C22.2393 14.1397 22.62 15.0379 22.4931 16.0643L22.493 16.0643Z" fill="#86BE3F"/>
<path d="M19.7663 30.6271L19.6394 30.5631C19.1954 30.3064 18.8148 29.9856 18.3708 29.7289C18.4341 28.3817 18.0537 27.0344 17.356 25.8796C15.3264 22.5436 11.0139 21.4527 7.71544 23.5058C6.32001 24.4039 5.24196 25.7512 4.73473 27.2912L4.60784 27.6762L3.14941 27.2271L3.27631 26.8421C3.91042 24.9174 5.17896 23.3134 6.89152 22.2229C10.887 19.7208 16.1515 21.004 18.5617 25.1098C19.5761 26.7777 20.0201 28.7025 19.7663 30.6272L19.7663 30.6271Z" fill="#86BE3F"/>
<path d="M15.7695 36.914L15.4524 37.1064L14.6914 35.8231L15.0085 35.6307C15.8963 35.1176 16.6573 34.3475 17.1649 33.5137L18.8138 33.5777C18.1161 34.9893 17.038 36.1442 15.7694 36.9139L15.7695 36.914Z" fill="#86BE3F"/>
<path d="M4.12357 29.1774C4.25381 29.5063 4.09578 29.8798 3.77103 30.0116C3.44593 30.1433 3.07664 29.9838 2.94608 29.6549C2.81584 29.3261 2.97353 28.9525 3.29862 28.8208C3.62372 28.6887 3.993 28.8485 4.12357 29.1774Z" fill="#86BE3F"/>
<path d="M13.4881 36.7037C13.8531 37.3085 13.6639 38.0983 13.066 38.4675C12.468 38.8367 11.6876 38.6453 11.3226 38.0404C10.9577 37.4356 11.1465 36.6461 11.7445 36.2769C12.3424 35.9078 13.1232 36.0988 13.4881 36.7037" fill="#86BE3F"/>
<path d="M9.04833 36.7223C9.04833 36.53 8.98506 36.3373 8.92144 36.1449C8.73127 35.8242 8.41422 35.6958 8.09683 35.6958C7.52599 35.6958 7.08203 36.0809 7.08203 36.658C7.08203 36.8504 7.14531 37.0431 7.20892 37.2355C7.39909 37.5562 7.71615 37.6845 8.03354 37.6845C8.5411 37.7486 8.98508 37.2995 9.04833 36.7223Z" fill="#86BE3F"/>
<path d="M5.49766 33.2569C5.43438 33.1285 5.37077 33.0645 5.24388 33.0001C5.05371 32.8718 4.79994 32.8078 4.60977 32.8718C4.356 32.9358 4.16583 33.0642 4.03893 33.2569C3.78516 33.5136 3.78516 33.8983 3.97566 34.2194C4.03893 34.3478 4.10255 34.4118 4.22943 34.4761C4.4196 34.6045 4.67338 34.6685 4.86354 34.6045C5.11732 34.5405 5.30749 34.4121 5.43438 34.2194C5.62455 33.9627 5.68782 33.5776 5.49766 33.2569Z" fill="#86BE3F"/>
<path d="M19.3862 32.5512C19.5131 32.5512 19.64 32.4872 19.7032 32.3588V32.2948V32.2308C19.7032 32.1024 19.64 31.91 19.5131 31.7817L19.4498 31.7177L19.0691 31.461C18.3714 31.0119 17.6737 30.5628 17.0395 30.1137C16.6589 29.857 16.2785 29.6006 15.8979 29.3439C14.8831 28.7025 13.8683 27.9967 12.8535 27.4192C11.8387 26.7778 10.5069 26.9701 9.68226 27.8683C8.92126 28.7025 8.85765 29.9214 9.42849 30.8835C9.49176 30.9475 9.55538 31.0759 9.61866 31.1402C10.0626 31.7177 10.7603 32.0384 11.5847 32.1024C13.2971 32.1665 15.0093 32.2948 16.6585 32.3592L19.3862 32.5512Z" fill="#86BE3F"/>
</svg>
