<svg width="39" height="38" viewBox="0 0 39 38" fill="none" xmlns="http://www.w3.org/2000/svg">
<path fill-rule="evenodd" clip-rule="evenodd" d="M15.9728 7.3208C7.48649 7.32815 0.526367 14.155 0.526367 22.5263C0.526367 30.8975 7.4864 37.7237 16.0075 37.7138L22.2455 37.7173C23.7204 37.7187 24.7016 36.7558 24.7016 35.5759C24.7016 34.396 23.7201 33.4324 22.5443 33.4331C21.245 33.4345 19.9082 33.3739 18.5769 33.2573C16.2689 33.0543 14.387 31.2962 14.387 29.0172C14.387 26.7382 16.2785 25.0369 18.5904 24.8678C19.0416 24.8345 19.0769 24.7911 19.9328 24.734C20.54 24.6938 22.2376 23.8041 22.2376 22.5527C22.2376 21.3013 21.1961 20.3396 19.9315 20.2853C19.4499 20.2646 18.9813 20.2467 18.5058 20.1676C16.2689 19.7961 14.387 18.2331 14.387 16.0081C14.387 13.783 16.2374 11.9679 18.5058 11.9679L19.9268 11.8846C21.1968 11.873 22.2376 10.8527 22.2376 9.60133C22.2376 8.35031 21.1968 7.3293 19.9354 7.3223L15.973 7.3216L15.9728 7.3208Z" fill="#8A8888"/>
<path fill-rule="evenodd" clip-rule="evenodd" d="M23.4479 31.1886C31.9342 31.1812 38.8944 24.3543 38.8944 15.9831C38.8944 7.61179 31.9343 0.785635 23.4132 0.795495L17.1749 0.791994C15.7 0.790593 14.7188 1.7535 14.7188 2.93344C14.7188 4.11338 15.7003 5.07694 16.8761 5.07622C18.1754 5.07482 19.5121 5.1354 20.8435 5.25199C23.1515 5.45506 25.0333 7.21309 25.0333 9.49212C25.0333 11.7712 23.1419 13.4724 20.83 13.6415C20.3788 13.6748 20.3435 13.7182 19.4876 13.7753C18.8804 13.8156 17.1827 14.7052 17.1827 15.9566C17.1827 17.208 18.2243 18.1698 19.4889 18.2241C19.9704 18.2448 20.4391 18.2626 20.9146 18.3417C23.1515 18.7132 25.0333 20.2762 25.0333 22.5013C25.0333 24.7264 23.1829 26.5414 20.9146 26.5414L19.4936 26.6248C18.2236 26.6363 17.1827 27.6566 17.1827 28.908C17.1827 30.159 18.2236 31.1801 19.485 31.1871L23.4478 31.1874L23.4479 31.1886Z" fill="#8A8888"/>
</svg>
