<svg width="35" height="25" viewBox="0 0 35 25" fill="none" xmlns="http://www.w3.org/2000/svg">
<path d="M34.6907 18.3411C25.0002 9.35083 9.92947 9.35083 0.276268 18.3411C-0.0920894 18.7095 -0.0920894 19.2991 0.276268 19.6678L5.13998 24.5315C5.47156 24.8631 6.02438 24.8998 6.39279 24.5683C12.6934 18.894 22.3108 18.894 28.6114 24.5683C28.9798 24.8998 29.5326 24.8631 29.8642 24.5315L34.7279 19.6678C35.0966 19.2991 35.0966 18.7095 34.6912 18.3411H34.6907Z" fill="#86BE3F"/>
<path d="M5.72956 10.2347L12.325 8.7977C12.9882 8.6503 13.2094 7.83978 12.7305 7.39753L11.2197 5.88673C13.0621 4.41303 15.2728 3.67599 17.4835 3.67599C19.6943 3.67599 21.9421 4.41301 23.7474 5.88673L22.2366 7.39753C21.7576 7.87651 22.0157 8.68707 22.6421 8.7977L29.2375 10.1979C29.8272 10.3085 30.3429 9.79244 30.2323 9.20314L28.8321 2.60766C28.6847 1.9445 27.8742 1.72325 27.4319 2.20223L25.8476 3.78656C21.0207 -0.26659 13.9466 -0.303313 9.11964 3.78656L7.5353 2.23895C7.05632 1.75997 6.24577 2.018 6.13514 2.64438L4.73497 9.23987C4.58787 9.82917 5.1404 10.3452 5.73001 10.2346L5.72956 10.2347Z" fill="#86BE3F"/>
</svg>
